<?xml version="1.0" standalone="no"?>
<!DOCTYPE svg PUBLIC "-//W3C//DTD SVG 1.1//EN" "http://www.w3.org/Graphics/SVG/1.1/DTD/svg11.dtd" >
<svg xmlns="http://www.w3.org/2000/svg" xmlns:xlink="http://www.w3.org/1999/xlink" version="1.1">
<metadata>
Created by FontForge 20170731 at Thu Nov 23 17:16:53 2017
 By Aleksey,,,
Copyright (c) 2003 - 2012 Linotype GmbH, www.linotype.com. All rights reserved. This font software may not be reproduced, modified, disclosed or transferred without the express written approval of Linotype GmbH. Avenir is a trademark of Linotype GmbH registered in the U.S. Patent and Trademark Office and may be registered in certain other jurisdictions. This typeface is original artwork of Adrian Frutiger and Akira Kobayashi. The design may be protected in certain jurisdictions.
</metadata>
<defs>
<font id="SVN-AvenirNextBold" horiz-adv-x="300" >
  <font-face 
    font-family="SVN-Avenir Next"
    font-weight="700"
    font-stretch="normal"
    units-per-em="1000"
    panose-1="2 11 8 3 2 2 2 2 2 4"
    ascent="756"
    descent="-244"
    x-height="498"
    cap-height="708"
    bbox="-194 -250 1210 1062"
    underline-thickness="50"
    underline-position="25"
    unicode-range="U+000D-FB04"
  />
<missing-glyph horiz-adv-x="512" 
d="M222 117v67h56v-67h-56zM225 234l-2 17q0 56 13 81q7 13 18 27.5t28 31.5q16 15 26 26.5t15 21t7 18t2 17.5q0 36 -22.5 60.5t-53.5 24.5t-53.5 -22t-28.5 -73l-50 8q7 72 44 104.5t91 32.5t89 -35.5t35 -95.5q0 -32 -12.5 -58.5t-50.5 -61.5q-37 -33 -43 -52
q-6 -20 -6 -72h-46zM462 50v617h-412v-617h412zM512 718v-718h-512v718h512z" />
    <glyph glyph-name="napostrophe" unicode="&#x22;n" horiz-adv-x="706" 
d="M481 0v272q0 21 -3.5 40t-11.5 33.5t-22.5 23t-36.5 8.5t-38.5 -8.5t-27.5 -23.5t-16.5 -34.5t-5.5 -40.5v-270h-165v498h159v-69h2q9 16 23.5 31.5t34 26.5t42.5 18t49 7q50 0 85 -18t56.5 -46.5t31 -65.5t9.5 -74v-308h-165zM117 513h-126l67 195h145z" />
    <glyph glyph-name="f_f" unicode="ff" horiz-adv-x="698" 
d="M707 635q-9 3 -21 5t-24 2q-23 0 -37 -8t-22 -21.5t-11 -30.5t-3 -34v-50h111v-123h-111v-375h-164v375h-170v-375h-164v375h-91v123h91v48q0 46 10 87.5t34.5 73t66 50t103.5 18.5q21 0 41.5 -2.5t37.5 -7.5l-11 -130q-9 3 -21 5t-24 2q-23 0 -37 -8t-22 -21.5
t-11 -30.5t-3 -34v-50h170v48q0 46 10 87.5t34.5 73t66 50t103.5 18.5q21 0 41.5 -2.5t37.5 -7.5z" />
    <glyph glyph-name="fi" unicode="fi" horiz-adv-x="665" 
d="M434 0v498h165v-498h-165zM373 635q-9 3 -21 5t-24 2q-23 0 -37 -8t-22 -21.5t-11 -30.5t-3 -34v-50h111v-123h-111v-375h-164v375h-91v123h91v48q0 46 10 87.5t34.5 73t66 50t103.5 18.5q21 0 41.5 -2.5t37.5 -7.5zM436 610q0 15 6 28.5t16.5 24t25.5 17t32 6.5
q35 0 58.5 -22t23.5 -54t-23.5 -54t-58.5 -22t-57.5 23t-22.5 53z" />
    <glyph glyph-name="fl" unicode="fl" horiz-adv-x="666" 
d="M434 0v756h166v-756h-166zM373 635q-9 3 -21 5t-24 2q-23 0 -37 -8t-22 -21.5t-11 -30.5t-3 -34v-50h111v-123h-111v-375h-164v375h-91v123h91v48q0 46 10 87.5t34.5 73t66 50t103.5 18.5q21 0 41.5 -2.5t37.5 -7.5z" />
    <glyph glyph-name="f_f_i" unicode="ffi" horiz-adv-x="999" 
d="M707 635q-9 3 -21 5t-24 2q-23 0 -37 -8t-22 -21.5t-11 -30.5t-3 -34v-50h111v-123h-111v-375h-164v375h-170v-375h-164v375h-91v123h91v48q0 46 10 87.5t34.5 73t66 50t103.5 18.5q21 0 41.5 -2.5t37.5 -7.5l-11 -130q-9 3 -21 5t-24 2q-23 0 -37 -8t-22 -21.5
t-11 -30.5t-3 -34v-50h170v48q0 46 10 87.5t34.5 73t66 50t103.5 18.5q21 0 41.5 -2.5t37.5 -7.5zM769 0v498h164v-498h-164zM770 610q0 15 6 28.5t16.5 24t25.5 17t32 6.5q35 0 58.5 -22t23.5 -54t-23.5 -54t-58.5 -22t-57.5 23t-22.5 53z" />
    <glyph glyph-name="f_f_l" unicode="ffl" horiz-adv-x="1000" 
d="M707 635q-9 3 -21 5t-24 2q-23 0 -37 -8t-22 -21.5t-11 -30.5t-3 -34v-50h111v-123h-111v-375h-164v375h-170v-375h-164v375h-91v123h91v48q0 46 10 87.5t34.5 73t66 50t103.5 18.5q21 0 41.5 -2.5t37.5 -7.5l-11 -130q-9 3 -21 5t-24 2q-23 0 -37 -8t-22 -21.5
t-11 -30.5t-3 -34v-50h170v48q0 46 10 87.5t34.5 73t66 50t103.5 18.5q21 0 41.5 -2.5t37.5 -7.5zM768 0v756h166v-756h-166z" />
    <glyph glyph-name=".notdef" horiz-adv-x="512" 
d="M222 117v67h56v-67h-56zM225 234l-2 17q0 56 13 81q7 13 18 27.5t28 31.5q16 15 26 26.5t15 21t7 18t2 17.5q0 36 -22.5 60.5t-53.5 24.5t-53.5 -22t-28.5 -73l-50 8q7 72 44 104.5t91 32.5t89 -35.5t35 -95.5q0 -32 -12.5 -58.5t-50.5 -61.5q-37 -33 -43 -52
q-6 -20 -6 -72h-46zM462 50v617h-412v-617h412zM512 718v-718h-512v718h512z" />
    <glyph glyph-name=".null" horiz-adv-x="500" 
 />
    <glyph glyph-name=".null" horiz-adv-x="500" 
 />
    <glyph glyph-name="nonmarkingreturn" unicode="&#xd;" horiz-adv-x="500" 
 />
    <glyph glyph-name="space" unicode=" " horiz-adv-x="250" 
 />
    <glyph glyph-name="exclam" unicode="!" horiz-adv-x="357" 
d="M94 237v471h168v-471h-168zM276 85q0 -20 -7.5 -37.5t-21 -30t-31.5 -20t-38 -7.5t-37.5 7t-30.5 20t-21 30t-8 37q0 19 7.5 36.5t20.5 30.5t31 20.5t38 7.5t38 -7.5t31.5 -20t21 -30t7.5 -36.5z" />
    <glyph glyph-name="quotedbl" unicode="&#x22;" horiz-adv-x="498" 
d="M281 437v271h130v-271h-130zM86 437v271h131v-271h-131z" />
    <glyph glyph-name="numbersign" unicode="#" horiz-adv-x="603" 
d="M458 404l-14 -100h85v-104h-98l-30 -200h-110l29 200h-79l-29 -200h-110l29 200h-85v104h99l15 100h-85v104h98l29 200h111l-29 -200h78l29 200h110l-28 -200h84v-104h-99zM269 404l-13 -100h78l14 100h-79z" />
    <glyph glyph-name="dollar" unicode="$" horiz-adv-x="646" 
d="M360 718q57 -2 117 -20t107 -56q-49 -56 -97 -109q-25 25 -60 39t-67 15v-160q39 -12 79 -27t73 -40t54 -61t21 -90q0 -55 -19.5 -95.5t-52 -67.5t-74 -41t-85.5 -15v-73h-74v73q-65 2 -131 24.5t-116 67.5q26 27 52.5 54.5t52.5 55.5q13 -15 31 -27.5t37 -21.5t38 -14.5
t36 -5.5v175q-43 12 -82.5 27t-69.5 39t-48 58.5t-18 84.5q0 49 20 87.5t52 65t72 41t79 16.5v69h73v-68zM287 589q-27 -3 -48.5 -20.5t-21.5 -50.5q0 -32 19 -49t51 -25v145zM356 122q34 2 53.5 22.5t19.5 55.5t-20.5 52.5t-52.5 27.5v-158z" />
    <glyph glyph-name="percent" unicode="%" horiz-adv-x="911" 
d="M889 177q0 -39 -15 -73.5t-40.5 -60t-60.5 -40.5t-74 -15t-74 15t-60.5 40.5t-40.5 60t-15 73.5t15 73.5t40.5 60t60.5 40.5t74 15t74 -15t60.5 -40.5t40.5 -60t15 -73.5zM777 177q0 16 -6.5 30.5t-17 25t-24.5 16.5t-30 6q-32 0 -55 -23t-23 -55t23 -54.5t55 -22.5
q16 0 30 6t24.5 16.5t17 24.5t6.5 30zM409 531q0 -39 -15 -73.5t-40.5 -60t-60.5 -40.5t-74 -15t-74 15t-60.5 40.5t-40.5 60t-15 73.5q0 40 15 74.5t40.5 60t60.5 40t74 14.5t74 -14.5t60.5 -40t40.5 -60t15 -74.5zM297 531q0 32 -23 55t-55 23t-55 -23t-23 -55t23 -54.5
t55 -22.5t55 22.5t23 54.5zM296 -34l-89 44l413 730l93 -45z" />
    <glyph glyph-name="ampersand" unicode="&#x26;" horiz-adv-x="781" 
d="M573 0l-67 69q-34 -36 -83.5 -59.5t-123.5 -23.5q-48 0 -94 12.5t-81.5 39t-57 66t-21.5 93.5q0 37 12 68t32.5 55t47.5 42t56 31q-33 32 -53 70t-20 84q0 48 20 82t51.5 56t71 32t78.5 10q40 0 79 -10.5t69.5 -32.5t49 -56t18.5 -81q0 -34 -11 -61.5t-30.5 -50
t-45.5 -40.5t-55 -33l89 -91l71 109h182l-153 -205l176 -175h-207zM410 542q0 27 -18 46t-49 19q-29 0 -48.5 -18.5t-19.5 -46.5q0 -25 13.5 -48t39.5 -44q34 14 58 37t24 55zM284 299q-30 -12 -52.5 -33.5t-22.5 -61.5q0 -21 8.5 -37.5t22 -28t30.5 -17.5t35 -6q33 0 59 14
t45 40z" />
    <glyph glyph-name="quotesingle" unicode="'" horiz-adv-x="303" 
d="M86 437v271h130v-271h-130z" />
    <glyph glyph-name="parenleft" unicode="(" horiz-adv-x="342" 
d="M176 -166q-71 98 -109 214.5t-38 239.5t38 239.5t109 214.5l112 -55q-63 -87 -96.5 -188.5t-33.5 -210.5t33.5 -210.5t96.5 -188.5z" />
    <glyph glyph-name="parenright" unicode=")" horiz-adv-x="342" 
d="M313 288q0 -123 -38 -239.5t-109 -214.5l-112 55q63 87 96.5 188.5t33.5 210.5t-33.5 210.5t-96.5 188.5l112 55q71 -98 109 -214.5t38 -239.5z" />
    <glyph glyph-name="asterisk" unicode="*" horiz-adv-x="489" 
d="M333 478l81 -107l-90 -63l-81 109l-79 -105l-88 63l81 104l-129 43l35 100l127 -44v130h110v-130l127 40l34 -100z" />
    <glyph glyph-name="plus" unicode="+" horiz-adv-x="666" 
d="M399 240v-209h-130v209h-213v126h212v209h130v-209h213v-126h-212z" />
    <glyph glyph-name="comma" unicode="," 
d="M155 -124h-135l75 284h157z" />
    <glyph glyph-name="hyphen" unicode="-" horiz-adv-x="326" 
d="M36 197v130h254v-130h-254z" />
    <glyph glyph-name="period" unicode="." 
d="M251 88q0 -42 -29.5 -70t-70.5 -28q-21 0 -39.5 7.5t-32.5 20.5t-22 30.5t-8 38.5q0 20 8 38t22 31.5t32.5 21.5t39.5 8q41 0 70.5 -28t29.5 -70z" />
    <glyph glyph-name="slash" unicode="/" horiz-adv-x="415" 
d="M106 -52l-113 37l309 777l113 -39z" />
    <glyph glyph-name="zero" unicode="0" horiz-adv-x="646" 
d="M600 356q0 -75 -15 -143t-48 -119.5t-85.5 -82t-127.5 -30.5t-128 30.5t-86.5 82t-48.5 119.5t-15 143t15 142.5t48.5 118t86.5 80.5t128 30t127.5 -30t85.5 -80.5t48 -118t15 -142.5zM428 356q0 33 -4 73t-15 74.5t-31.5 58t-53.5 23.5t-54 -23.5t-32.5 -58t-15.5 -74.5
t-4 -73q0 -34 4 -74.5t15.5 -75t32.5 -58t54 -23.5t53.5 23.5t31.5 58t15 75t4 74.5z" />
    <glyph glyph-name="one" unicode="1" horiz-adv-x="646" 
d="M283 0v520l-132 -102l-87 119l233 171h154v-708h-168z" />
    <glyph glyph-name="two" unicode="2" horiz-adv-x="646" 
d="M68 0v140l276 250q26 25 42 51t16 58q0 38 -24 61.5t-64 23.5q-42 0 -68.5 -29.5t-31.5 -77.5l-161 22q6 54 29.5 96t59.5 71.5t82.5 45t98.5 15.5q49 0 95 -13t82 -40t57.5 -68t21.5 -96q0 -38 -10 -68.5t-27.5 -56.5t-40 -48.5t-46.5 -44.5l-164 -146h289v-146h-512z
" />
    <glyph glyph-name="three" unicode="3" horiz-adv-x="646" 
d="M583 206q0 -58 -23.5 -100.5t-61.5 -70t-85.5 -41t-96.5 -13.5q-48 0 -93.5 11t-83 33.5t-65.5 58t-42 85.5l156 41q10 -35 41 -61.5t79 -26.5q18 0 36.5 5t33 15.5t24 27.5t9.5 42q0 27 -12.5 45t-33 28.5t-46.5 15t-52 4.5h-45v123h49q24 0 46 3.5t39.5 13t28 25.5
t10.5 42q0 38 -27 58t-62 20q-36 0 -62.5 -21.5t-34.5 -57.5l-156 36q13 45 39 78.5t61.5 56t77.5 34t86 11.5q47 0 91.5 -12t79.5 -37t56.5 -62.5t21.5 -88.5q0 -59 -33.5 -99.5t-85.5 -54.5v-3q30 -7 55 -22.5t43 -37t28 -48t10 -56.5z" />
    <glyph glyph-name="four" unicode="4" horiz-adv-x="646" 
d="M515 138v-138h-157v138h-333v141l288 429h201v-434h98v-136h-97zM359 536h-3l-168 -262h171v262z" />
    <glyph glyph-name="five" unicode="5" horiz-adv-x="646" 
d="M582 234q0 -65 -23 -112.5t-61.5 -78.5t-87.5 -46.5t-101 -15.5q-48 0 -91.5 12.5t-79 35.5t-61 56.5t-37.5 75.5l153 47q11 -37 41.5 -61t72.5 -24q43 0 74.5 26t31.5 77q0 31 -13 52t-33.5 33.5t-46.5 17.5t-52 5q-38 0 -86.5 -8.5t-86.5 -22.5l17 405h434v-144h-285
l-6 -112q16 4 35.5 5.5t35.5 1.5q53 0 100 -14t81.5 -42.5t54.5 -70.5t20 -98z" />
    <glyph glyph-name="six" unicode="6" horiz-adv-x="646" 
d="M601 238q0 -60 -22 -108t-60 -81t-89 -50.5t-108 -17.5q-58 0 -108.5 17.5t-88.5 50.5t-60 80t-22 105q0 63 22 114.5t57 104.5l171 255h203l-174 -242l-3 -5q10 4 24 6t26 2q46 0 88.5 -16.5t74 -47t50.5 -73t19 -94.5zM433 234q0 48 -30 79.5t-80 31.5t-81 -31t-31 -81
q0 -46 30 -79t81 -33q50 0 80.5 31t30.5 82z" />
    <glyph glyph-name="seven" unicode="7" horiz-adv-x="646" 
d="M306 0h-195l287 564h-335v144h514v-134z" />
    <glyph glyph-name="eight" unicode="8" horiz-adv-x="646" 
d="M589 202q0 -56 -22 -97.5t-58.5 -69t-85 -41t-100.5 -13.5q-53 0 -101 13.5t-84.5 40.5t-58.5 68.5t-22 97.5q0 32 10 59.5t27.5 49t40.5 37t49 23.5v2q-46 17 -77 55.5t-31 97.5q0 49 20 87t54 63.5t79 38.5t94 13t93.5 -12.5t78.5 -37.5t54.5 -62.5t20.5 -86.5
q0 -59 -30 -99t-78 -56v-3q27 -8 50 -23.5t40 -37t27 -49t10 -58.5zM408 516q0 35 -25 58t-60 23q-38 0 -61 -23t-23 -58q0 -34 22.5 -59t61.5 -25q37 0 61 25t24 59zM421 208q0 41 -27.5 68.5t-70.5 27.5q-44 0 -71.5 -27t-27.5 -69q0 -43 27.5 -68.5t71.5 -25.5t71 25.5
t27 68.5z" />
    <glyph glyph-name="nine" unicode="9" horiz-adv-x="646" 
d="M602 474q0 -63 -22 -114.5t-57 -104.5l-171 -255h-203l176 244l2 3q-11 -4 -24.5 -6t-25.5 -2q-47 0 -89 16.5t-74 47t-51 73t-19 94.5q0 60 22 108t60 81t89 50.5t108 17.5q58 0 109 -17.5t88.5 -50.5t59.5 -80t22 -105zM434 476q0 46 -29.5 79.5t-80.5 33.5
t-81.5 -31.5t-30.5 -82.5q0 -48 30 -79.5t80 -31.5t81 31t31 81z" />
    <glyph glyph-name="colon" unicode=":" horiz-adv-x="332" 
d="M264 410q0 -20 -8 -37.5t-21 -30.5t-31 -20.5t-37 -7.5q-20 0 -38 7t-31.5 20t-21.5 30t-8 37t8 37.5t21.5 30.5t31.5 20.5t38 7.5q19 0 37 -7.5t31 -20t21 -30t8 -36.5zM264 89q0 -20 -8 -37.5t-21 -30t-31 -20t-37 -7.5q-20 0 -38 7t-31.5 20t-21.5 30t-8 37t8 37.5
t21.5 30.5t31.5 20.5t38 7.5q19 0 37 -7.5t31 -20t21 -30t8 -37.5z" />
    <glyph glyph-name="semicolon" unicode=";" horiz-adv-x="332" 
d="M264 410q0 -40 -28.5 -67.5t-68.5 -27.5q-20 0 -37.5 7t-31 20t-21.5 30t-8 37t7.5 37.5t21 30.5t31.5 20.5t38 7.5q19 0 37 -7.5t31 -20t21 -30t8 -37.5zM168 -124h-138l75 284h160z" />
    <glyph glyph-name="less" unicode="&#x3c;" horiz-adv-x="666" 
d="M79 251v103l508 214v-136l-306 -131l306 -127v-137z" />
    <glyph glyph-name="equal" unicode="=" horiz-adv-x="666" 
d="M68 335v123h530v-123h-530zM68 150v123h530v-123h-530z" />
    <glyph glyph-name="greater" unicode="&#x3e;" horiz-adv-x="666" 
d="M79 37v137l306 127l-306 131v136l508 -214v-103z" />
    <glyph glyph-name="question" unicode="?" horiz-adv-x="546" 
d="M527 527q0 -33 -8 -58t-22.5 -46t-35 -39.5t-46.5 -38.5q-16 -13 -26.5 -23t-16.5 -20.5t-8.5 -22t-2.5 -27.5v-26h-156v38q0 26 5 46.5t15 37.5t24.5 33t34.5 33l33 31q17 15 29 31.5t12 39.5q0 32 -19.5 51t-53.5 19q-42 0 -63 -28.5t-23 -64.5l-159 17q6 54 27.5 95
t55.5 68t77 40.5t91 13.5q45 0 87.5 -11.5t75.5 -36t53 -62.5t20 -90zM381 85q0 -40 -28 -67.5t-69 -27.5q-20 0 -37.5 7t-31 20t-21.5 30t-8 37q0 19 7.5 36.5t21 30.5t31.5 20.5t38 7.5t37.5 -7.5t31 -20t21 -30t7.5 -36.5z" />
    <glyph glyph-name="at" unicode="@" horiz-adv-x="800" 
d="M774 401q0 -57 -15.5 -102t-43.5 -76t-65.5 -47t-80.5 -16q-40 0 -65.5 17.5t-29.5 46.5h-4q-14 -23 -44 -43.5t-75 -20.5q-34 0 -60.5 12.5t-45 35t-28.5 53.5t-10 68q0 42 13.5 82.5t39 72t60.5 51t79 19.5q38 0 63 -16t32 -38h1l7 34h108l-31 -157q-5 -24 -9 -46
t-4 -37q0 -14 6 -25t23 -11q30 0 53.5 34.5t23.5 104.5q0 58 -19 102.5t-53.5 74.5t-82 45.5t-104.5 15.5q-61 0 -111.5 -21.5t-86.5 -59t-56 -89.5t-20 -112q0 -64 21 -115t59.5 -87t91 -55.5t115.5 -19.5q72 0 128.5 22.5t101.5 63.5l63 -70q-58 -57 -135.5 -83.5
t-168.5 -26.5q-85 0 -156 27.5t-122 76.5t-79.5 117.5t-28.5 149.5q0 80 30.5 148t82.5 118t122 78.5t150 28.5q70 0 135.5 -20.5t115 -61.5t79.5 -101.5t30 -141.5zM465 379q0 15 -2.5 29t-8.5 25t-17 17.5t-28 6.5q-19 0 -34 -11.5t-26 -30t-17 -41.5t-6 -45
q0 -25 11.5 -47.5t43.5 -22.5q22 0 38 11.5t26 29.5t15 39t5 40z" />
    <glyph glyph-name="A" unicode="A" horiz-adv-x="729" 
d="M553 0l-55 139h-274l-52 -139h-186l297 708h166l294 -708h-190zM363 519l-90 -243h178z" />
    <glyph glyph-name="B" unicode="B" horiz-adv-x="665" 
d="M625 206q0 -58 -23 -97.5t-61 -63.5t-86.5 -34.5t-99.5 -10.5h-282v708h282q41 0 84 -8.5t78 -29t57 -55.5t22 -89q0 -59 -32 -97.5t-84 -55.5v-2q30 -5 56.5 -18.5t46 -34.5t31 -49t11.5 -63zM431 503q0 36 -27.5 52.5t-81.5 16.5h-84v-146h92q48 0 74.5 19.5t26.5 57.5
zM454 222q0 44 -33 61t-88 17h-95v-162h96q20 0 41.5 3.5t39 12.5t28.5 25.5t11 42.5z" />
    <glyph glyph-name="C" unicode="C" horiz-adv-x="696" 
d="M696 98q-47 -54 -116 -85.5t-159 -31.5q-82 0 -151.5 27t-120.5 76.5t-80 118.5t-29 152q0 85 29.5 154t81.5 117.5t122 74.5t151 26q75 0 147.5 -26.5t117.5 -77.5l-116 -116q-24 33 -63 49t-80 16q-45 0 -82.5 -16.5t-64.5 -45.5t-42 -68.5t-15 -86.5q0 -48 15 -88
t41.5 -68.5t63.5 -44.5t81 -16q51 0 89 20t61 52l119 -112v0z" />
    <glyph glyph-name="D" unicode="D" horiz-adv-x="774" 
d="M734 356q0 -93 -34.5 -160.5t-91 -111t-127.5 -64t-144 -20.5h-264v708h256q75 0 148 -17.5t130 -58t92 -108.5t35 -168zM556 356q0 60 -19.5 99.5t-52 63t-74 33.5t-85.5 10h-85v-414h81q46 0 88.5 10.5t75 34.5t52 64t19.5 99z" />
    <glyph glyph-name="E" unicode="E" horiz-adv-x="607" 
d="M73 0v708h476v-145h-311v-133h294v-137h-294v-147h329v-146h-494z" />
    <glyph glyph-name="F" unicode="F" horiz-adv-x="576" 
d="M242 562v-146h274v-141h-274v-275h-169v708h466v-146h-297z" />
    <glyph glyph-name="G" unicode="G" horiz-adv-x="769" 
d="M702 43q-52 -27 -121.5 -44t-151.5 -17q-85 0 -156.5 27t-123 76t-80.5 117.5t-29 152.5q0 85 29.5 154t81.5 117.5t122 74.5t151 26q84 0 156 -25.5t117 -68.5l-108 -123q-25 29 -66 47.5t-93 18.5q-45 0 -83 -16.5t-66 -46t-43.5 -70t-15.5 -88.5q0 -49 14 -90
t41.5 -70.5t68 -46t92.5 -16.5q30 0 57 4.5t50 14.5v129h-135v138h292v-375v0z" />
    <glyph glyph-name="H" unicode="H" horiz-adv-x="764" 
d="M520 0v296h-276v-296h-171v708h171v-268h276v268h171v-708h-171z" />
    <glyph glyph-name="I" unicode="I" horiz-adv-x="318" 
d="M73 0v708h172v-708h-172z" />
    <glyph glyph-name="J" unicode="J" horiz-adv-x="529" 
d="M460 242q0 -42 -9.5 -88t-35 -84.5t-71 -63.5t-117.5 -25q-90 0 -150 46.5t-80 119.5l151 51q7 -28 25.5 -45t45.5 -17q42 0 55.5 29t13.5 76v467h172v-466v0z" />
    <glyph glyph-name="K" unicode="K" horiz-adv-x="711" 
d="M506 0l-263 326h-2v-326h-168v708h168v-288h3l253 288h214l-305 -326l323 -382h-223z" />
    <glyph glyph-name="L" unicode="L" horiz-adv-x="526" 
d="M73 0v708h172v-559h274v-149h-446z" />
    <glyph glyph-name="M" unicode="M" horiz-adv-x="955" 
d="M715 0l4 501h-3l-184 -501h-120l-179 501h-3l4 -501h-161v708h243l161 -454h4l154 454h247v-708h-167z" />
    <glyph glyph-name="N" unicode="N" horiz-adv-x="790" 
d="M523 0l-285 463h-3l4 -463h-166v708h195l284 -462h3l-4 462h166v-708h-194z" />
    <glyph glyph-name="O" unicode="O" horiz-adv-x="851" 
d="M811 357q0 -84 -29 -153.5t-80.5 -119t-122.5 -76.5t-154 -27t-153.5 27t-122 76.5t-80.5 119t-29 153.5q0 85 29 153.5t80.5 116.5t122 74t153.5 26t154 -26t122.5 -74t80.5 -116.5t29 -153.5zM628 357q0 46 -15 86t-41.5 68.5t-64 45t-82.5 16.5t-82 -16.5t-64 -45
t-41.5 -68.5t-14.5 -86q0 -48 15 -88.5t41.5 -69.5t63.5 -45.5t82 -16.5t82 16.5t64 45.5t42 69.5t15 88.5z" />
    <glyph glyph-name="P" unicode="P" horiz-adv-x="640" 
d="M610 490q0 -62 -23 -104.5t-62 -68.5t-90 -38t-106 -12h-85v-267h-171v708h260q58 0 108.5 -11.5t88 -37t59 -67t21.5 -102.5zM439 489q0 25 -10 41t-27 25t-38.5 12t-44.5 3h-75v-167h72q24 0 46 4t39.5 14t27.5 26.5t10 41.5z" />
    <glyph glyph-name="Q" unicode="Q" horiz-adv-x="857" 
d="M414 0q-84 0 -154 24t-119.5 70.5t-77 114t-27.5 154.5q0 81 29 148t80.5 115t122 74.5t152.5 26.5t152 -26.5t121 -74t79.5 -114t28.5 -146.5q0 -41 -9 -76.5t-24 -64.5t-34 -51.5t-38 -37.5v-3l149 3v-136h-431zM620 361q0 46 -14.5 85t-41 67t-63.5 43.5t-81 15.5
q-43 0 -79.5 -15.5t-63.5 -43.5t-42 -67t-15 -85q0 -48 14.5 -87.5t41 -68t63 -44t80.5 -15.5q43 0 80 15.5t64 44t42 68t15 87.5z" />
    <glyph glyph-name="R" unicode="R" horiz-adv-x="663" 
d="M452 0l-153 281h-58v-281h-168v708h270q51 0 99.5 -10.5t87 -35.5t61.5 -66t23 -102q0 -72 -39 -121t-108 -70l185 -303h-200zM445 491q0 25 -10.5 40.5t-27 24t-37 11.5t-39.5 3h-91v-165h81q21 0 43 3.5t40 12.5t29.5 26t11.5 44z" />
    <glyph glyph-name="S" unicode="S" horiz-adv-x="591" 
d="M447 524q-22 28 -57.5 44.5t-68.5 16.5q-17 0 -34.5 -3t-31.5 -11.5t-23.5 -22t-9.5 -34.5q0 -18 7.5 -30t22 -21t34.5 -16.5t45 -15.5q36 -12 75 -26.5t71 -38.5t53 -59.5t21 -88.5q0 -61 -22.5 -105.5t-60.5 -73.5t-87 -43t-101 -14q-76 0 -147 26.5t-118 75.5l112 114
q26 -32 68.5 -53.5t84.5 -21.5q19 0 37 4t31.5 13t21.5 24t8 36q0 20 -10 34t-28.5 25.5t-46 21t-62.5 20.5q-34 11 -66.5 26t-58 38.5t-41 57t-15.5 81.5q0 59 24 101t63 69t88 39.5t99 12.5q60 0 122.5 -22t109.5 -65z" />
    <glyph glyph-name="T" unicode="T" horiz-adv-x="581" 
d="M376 562v-562h-171v562h-200v146h571v-146h-200z" />
    <glyph glyph-name="U" unicode="U" horiz-adv-x="738" 
d="M673 267q0 -64 -21.5 -116.5t-61.5 -90t-96.5 -58.5t-125.5 -21q-70 0 -126 21t-95 58.5t-60 90t-21 116.5v441h170v-427q0 -29 7.5 -55t23 -46.5t41 -32.5t61.5 -12t61.5 12t41.5 32.5t23 46.5t7 55v427h171v-441v0z" />
    <glyph glyph-name="V" unicode="V" horiz-adv-x="682" 
d="M424 0h-171l-268 708h192l164 -502h4l163 502h189z" />
    <glyph glyph-name="W" unicode="W" horiz-adv-x="1025" 
d="M823 0h-169l-140 479h-3l-140 -479h-170l-201 708h184l112 -471h3l126 471h178l127 -471h3l114 471h178z" />
    <glyph glyph-name="X" unicode="X" horiz-adv-x="703" 
d="M500 0l-155 250l-149 -250h-204l248 374l-228 334h206l132 -220l130 220h199l-224 -334l256 -374h-211z" />
    <glyph glyph-name="Y" unicode="Y" horiz-adv-x="669" 
d="M417 300v-300h-171v300l-266 408h207l151 -262l151 262h200z" />
    <glyph glyph-name="Z" unicode="Z" horiz-adv-x="635" 
d="M39 0v148l337 415h-329v145h543v-137l-345 -423h352v-148h-558z" />
    <glyph glyph-name="bracketleft" unicode="[" horiz-adv-x="342" 
d="M53 -156v888h216v-102h-89v-684h89v-102h-216z" />
    <glyph glyph-name="backslash" unicode="\" horiz-adv-x="415" 
d="M309 -52l-308 775l113 39l308 -777z" />
    <glyph glyph-name="bracketright" unicode="]" horiz-adv-x="342" 
d="M73 -156v102h89v684h-89v102h216v-888h-216z" />
    <glyph glyph-name="asciicircum" unicode="^" horiz-adv-x="690" 
d="M468 343l-124 213l-123 -213h-148l213 365h118l212 -365h-148z" />
    <glyph glyph-name="underscore" unicode="_" horiz-adv-x="500" 
d="M0 -164v89h500v-89h-500z" />
    <glyph glyph-name="grave" unicode="`" 
d="M107 572l-146 144h166l104 -144h-124z" />
    <glyph glyph-name="a" unicode="a" horiz-adv-x="566" 
d="M358 217h-21q-27 0 -54.5 -2.5t-49 -9.5t-35.5 -20.5t-14 -35.5q0 -14 6.5 -24t16.5 -16t23 -8.5t25 -2.5q50 0 76.5 27.5t26.5 74.5v17zM57 430q44 42 102.5 63t119.5 21q63 0 106.5 -15.5t70.5 -48t39.5 -82t12.5 -117.5v-251h-150v53h-3q-19 -31 -57.5 -48t-83.5 -17
q-30 0 -62 8t-58.5 26t-43.5 48t-17 74q0 54 29.5 87t76 51t103.5 24t111 6v8q0 37 -26 54.5t-64 17.5q-35 0 -67.5 -15t-55.5 -36z" />
    <glyph glyph-name="b" unicode="b" horiz-adv-x="659" 
d="M619 251q0 -52 -16 -100t-46.5 -84.5t-74.5 -58.5t-100 -22q-50 0 -94.5 20.5t-68.5 58.5h-2v-65h-151v756h164v-311h2q21 25 59 46t93 21q54 0 97.5 -21t74 -57t47 -83.5t16.5 -99.5zM461 251q0 24 -7.5 47t-22.5 40.5t-37 28.5t-51 11q-28 0 -50 -11t-37.5 -29t-24 -41
t-8.5 -47t8.5 -47t24 -41t37.5 -29t50 -11q29 0 51 11t37 29t22.5 41.5t7.5 47.5z" />
    <glyph glyph-name="c" unicode="c" horiz-adv-x="503" 
d="M407 337q-14 18 -38 29t-49 11q-26 0 -47 -10.5t-36 -28t-23.5 -40.5t-8.5 -49t8 -49t23.5 -40.5t37 -27.5t48.5 -10q25 0 49.5 9.5t39.5 27.5l91 -111q-31 -30 -80 -47t-104 -17q-59 0 -110 18t-88.5 52.5t-59 83.5t-21.5 111q0 61 21.5 110t59 83.5t88.5 53t109 18.5
q27 0 53.5 -5t51 -13.5t45 -21t35.5 -27.5z" />
    <glyph glyph-name="d" unicode="d" horiz-adv-x="658" 
d="M441 0v65h-2q-24 -38 -68.5 -58.5t-94.5 -20.5q-56 0 -100 22t-74.5 58.5t-46.5 84.5t-16 100t16.5 99.5t47 83.5t74 57t97.5 21q55 0 93 -21t59 -46h2v311h164v-756h-151zM435 250q0 24 -8.5 47t-24 41t-37.5 29t-50 11q-29 0 -51 -11t-37 -28.5t-22.5 -40.5t-7.5 -47
t7.5 -47.5t22.5 -41.5t37 -29t51 -11q28 0 50 11t37.5 29t24 41t8.5 47z" />
    <glyph glyph-name="e" unicode="e" horiz-adv-x="596" 
d="M407 306q0 39 -24.5 67t-73.5 28q-24 0 -44 -7.5t-35 -20.5t-24 -30.5t-10 -36.5h211zM558 243v-20t-1 -19h-361q2 -21 12.5 -38t27 -29.5t37 -19.5t42.5 -7q39 0 66 14.5t44 37.5l114 -72q-35 -51 -92.5 -78.5t-133.5 -27.5q-56 0 -106 17.5t-87.5 51t-59 82.5
t-21.5 112q0 61 21 110.5t57 84t85 53.5t106 19q55 0 101 -18.5t79 -53.5t51.5 -85t18.5 -114z" />
    <glyph glyph-name="f" unicode="f" horiz-adv-x="364" 
d="M373 635q-9 3 -21 5t-24 2q-23 0 -37 -8t-22 -21.5t-11 -30.5t-3 -34v-50h111v-123h-111v-375h-164v375h-91v123h91v48q0 46 10 87.5t34.5 73t66 50t103.5 18.5q21 0 41.5 -2.5t37.5 -7.5z" />
    <glyph glyph-name="g" unicode="g" horiz-adv-x="658" 
d="M592 47q0 -73 -21 -127t-59 -89.5t-92.5 -53t-120.5 -17.5t-135.5 20t-120.5 58l82 117q36 -32 79.5 -47.5t85.5 -15.5q72 0 106.5 38t34.5 101v30h-3q-23 -30 -62 -48t-89 -18q-57 0 -101 20.5t-74.5 55.5t-46.5 81.5t-16 98.5t16 99t46.5 83t74.5 57.5t100 21.5
q47 0 90 -19t69 -59h2v64h155v-451zM436 252q0 25 -8.5 48t-24.5 40.5t-38 27.5t-50 10t-49.5 -10t-36.5 -27t-23 -40t-8 -49q0 -25 8 -48t23 -40.5t36.5 -28t49.5 -10.5t50.5 10.5t38 27.5t24 40t8.5 49z" />
    <glyph glyph-name="h" unicode="h" horiz-adv-x="617" 
d="M392 0v270q0 21 -3 40t-11.5 33.5t-22.5 23t-36 8.5q-43 0 -66 -30.5t-23 -75.5v-269h-164v756h164v-321h2q17 30 54 53.5t89 23.5q51 0 85.5 -18t56 -46.5t31 -65.5t9.5 -74v-308h-165z" />
    <glyph glyph-name="i" unicode="i" horiz-adv-x="296" 
d="M66 0v498h164v-498h-164zM67 610q0 15 6 28.5t16.5 24t25.5 17t32 6.5q35 0 58.5 -22t23.5 -54t-23.5 -54t-58.5 -22t-57.5 23t-22.5 53z" />
    <glyph glyph-name="j" unicode="j" horiz-adv-x="299" 
d="M233 -13q0 -46 -8.5 -87.5t-30.5 -72.5t-61 -49t-99 -18q-17 0 -37 2t-34 6l11 137q9 -3 18.5 -4t16.5 -1q36 0 48 24.5t12 62.5v511h164v-511zM69 610q0 15 6 28.5t16.5 24t25.5 17t32 6.5q35 0 58.5 -22t23.5 -54t-23.5 -54t-58.5 -22t-57.5 23t-22.5 53z" />
    <glyph glyph-name="k" unicode="k" horiz-adv-x="595" 
d="M599 0h-203l-163 239h-3v-239h-165v756h165v-460h3l159 202h199l-192 -225z" />
    <glyph glyph-name="l" unicode="l" horiz-adv-x="298" 
d="M66 0v756h166v-756h-166z" />
    <glyph glyph-name="m" unicode="m" horiz-adv-x="924" 
d="M700 0v272q0 21 -3 40.5t-11 33.5t-21.5 22.5t-35.5 8.5q-21 0 -36.5 -9t-26 -24t-15.5 -34.5t-5 -40.5v-269h-164v284q0 43 -17 68t-54 25q-39 0 -60.5 -31t-21.5 -76v-270h-165v498h159v-69h2q9 16 22.5 31t32.5 26.5t42.5 18.5t51.5 7q54 0 91.5 -22t58.5 -63
q25 39 64 62t95 23q51 0 85.5 -18.5t55.5 -48t30.5 -66t9.5 -71.5v-308h-164z" />
    <glyph glyph-name="n" unicode="n" horiz-adv-x="616" 
d="M391 0v272q0 21 -3.5 40t-11.5 33.5t-22.5 23t-36.5 8.5t-38.5 -8.5t-27.5 -23.5t-16.5 -34.5t-5.5 -40.5v-270h-165v498h159v-69h2q9 16 23.5 31.5t34 26.5t42.5 18t49 7q50 0 85 -18t56.5 -46.5t31 -65.5t9.5 -74v-308h-165z" />
    <glyph glyph-name="o" unicode="o" horiz-adv-x="632" 
d="M592 251q0 -61 -22 -110.5t-60 -84t-88 -53.5t-107 -19q-56 0 -106.5 19t-88 53.5t-59.5 84t-22 110.5t22 110t59.5 83t88 52t106.5 18q57 0 107 -18t88 -52t60 -83t22 -110zM434 251q0 24 -8 47t-23 40.5t-37 28.5t-51 11t-51 -11t-36.5 -28.5t-22 -40.5t-7.5 -47
t7.5 -47t22.5 -41.5t37 -29.5t51 -11t51 11t37 29.5t22.5 41.5t7.5 47z" />
    <glyph glyph-name="p" unicode="p" horiz-adv-x="657" 
d="M618 251q0 -52 -16 -100t-46.5 -84.5t-74.5 -58.5t-100 -22q-46 0 -87 18.5t-64 50.5h-2v-295h-164v738h156v-61h3q23 30 63.5 52.5t95.5 22.5q54 0 98 -21t74.5 -57t47 -83.5t16.5 -99.5zM459 251q0 24 -7.5 47t-22 40.5t-36.5 28.5t-51 11q-28 0 -50 -11t-37.5 -29
t-24 -41t-8.5 -47t8.5 -47t24 -41t37.5 -29t50 -11q29 0 51 11t36.5 29t22 41.5t7.5 47.5z" />
    <glyph glyph-name="q" unicode="q" horiz-adv-x="657" 
d="M429 -240v295h-2q-24 -32 -64.5 -50.5t-86.5 -18.5q-57 0 -101 22t-74 58.5t-46 84.5t-16 100t16.5 99.5t47 83.5t74 57t97.5 21q56 0 96.5 -22.5t63.5 -52.5h3v61h155v-738h-163zM435 250q0 24 -8.5 47t-24 41t-37.5 29t-50 11q-29 0 -51 -11t-37 -28.5t-22.5 -40.5
t-7.5 -47t7.5 -47.5t22.5 -41.5t37 -29t51 -11q28 0 50 11t37.5 29t24 41t8.5 47z" />
    <glyph glyph-name="r" unicode="r" horiz-adv-x="396" 
d="M387 364q-11 3 -21.5 4t-20.5 1q-33 0 -55.5 -12t-36 -29t-19.5 -37t-6 -35v-256h-164v498h158v-72h2q19 38 54 62t81 24q10 0 19.5 -1t15.5 -3z" />
    <glyph glyph-name="s" unicode="s" horiz-adv-x="472" 
d="M357 351q-20 19 -47 32t-57 13q-23 0 -42.5 -9t-19.5 -31q0 -21 21.5 -30t69.5 -20q28 -6 56.5 -17t51.5 -29t37 -44t14 -62q0 -47 -19 -79.5t-49.5 -52.5t-68.5 -29t-76 -9q-61 0 -119.5 19.5t-97.5 57.5l92 97q22 -24 54 -40t68 -16q20 0 39.5 9.5t19.5 33.5
q0 23 -24 34t-75 23q-26 6 -52 16t-46.5 27t-33.5 42t-13 60q0 45 19 76.5t49 51.5t66.5 29.5t72.5 9.5q56 0 109.5 -17.5t90.5 -52.5z" />
    <glyph glyph-name="t" unicode="t" horiz-adv-x="372" 
d="M242 375v-190q0 -35 13.5 -52.5t48.5 -17.5q12 0 25.5 2t22.5 6l2 -120q-17 -6 -43 -10.5t-52 -4.5q-50 0 -84 12.5t-54.5 36t-29.5 56t-9 72.5v210h-80v123h79v131h161v-131h117v-123h-117z" />
    <glyph glyph-name="u" unicode="u" horiz-adv-x="614" 
d="M392 0v69h-2q-9 -17 -23.5 -32t-34 -26t-43 -18t-49.5 -7q-50 0 -84.5 18t-56 46.5t-31 65t-9.5 74.5v308h165v-270q0 -21 3 -40t11.5 -34t22.5 -23.5t37 -8.5q43 0 65.5 32t22.5 75v269h164v-498h-158z" />
    <glyph glyph-name="v" unicode="v" horiz-adv-x="567" 
d="M372 0h-177l-196 498h181l105 -323h3l105 323h175z" />
    <glyph glyph-name="w" unicode="w" horiz-adv-x="871" 
d="M698 0h-165l-98 310h-2l-96 -310h-165l-172 498h177l86 -315h3l89 315h165l92 -315h2l87 315h170z" />
    <glyph glyph-name="x" unicode="x" horiz-adv-x="594" 
d="M404 0l-107 153l-110 -153h-190l199 261l-180 237h191l93 -133l94 133h185l-179 -237l197 -261h-193z" />
    <glyph glyph-name="y" unicode="y" horiz-adv-x="567" 
d="M345 -75q-15 -39 -33.5 -69.5t-44 -52t-60 -32.5t-81.5 -11q-23 0 -47.5 3t-42.5 8l18 138q12 -4 26.5 -6.5t26.5 -2.5q38 0 55 17.5t29 49.5l16 41l-208 490h182l111 -320h3l99 320h174z" />
    <glyph glyph-name="z" unicode="z" horiz-adv-x="512" 
d="M34 0v128l234 244h-225v126h425v-123l-241 -248h251v-127h-444z" />
    <glyph glyph-name="braceleft" unicode="{" horiz-adv-x="342" 
d="M210 -156q-63 0 -100 40t-37 108v167q0 23 -6 37.5t-15.5 22.5t-21.5 11t-24 3v110q12 0 24 3t21.5 10.5t15.5 21.5t6 35v171q0 68 37 108t100 40h82v-105h-47q-29 0 -37.5 -19t-8.5 -41v-167q0 -29 -10 -49.5t-24.5 -33.5t-30.5 -20t-28 -8v-2q12 -1 28 -7t30.5 -19
t24.5 -34.5t10 -54.5v-163q0 -22 8.5 -41t37.5 -19h47v-105h-82z" />
    <glyph glyph-name="bar" unicode="|" horiz-adv-x="241" 
d="M56 -250l-1 1000h131v-1000h-130z" />
    <glyph glyph-name="braceright" unicode="}" horiz-adv-x="342" 
d="M336 233q-12 0 -24 -3t-21.5 -11t-15.5 -22.5t-6 -37.5v-167q0 -68 -37 -108t-100 -40h-82v105h47q29 0 37.5 19t8.5 41v163q0 33 10 54.5t24.5 34.5t30.5 19t28 7v2q-12 1 -28 8t-30.5 20t-24.5 33.5t-10 49.5v167q0 22 -8.5 41t-37.5 19h-47v105h82q63 0 100 -40
t37 -108v-171q0 -21 6 -35t15.5 -21.5t21.5 -10.5t24 -3v-110v0z" />
    <glyph glyph-name="asciitilde" unicode="~" horiz-adv-x="666" 
d="M593 285q-11 -19 -24.5 -37t-30 -32t-37.5 -22.5t-47 -8.5q-32 0 -56.5 9t-55.5 29q-30 19 -54.5 28.5t-52.5 9.5q-29 0 -49 -19.5t-35 -50.5l-66 104q23 45 56.5 72t80.5 27q32 0 61 -9.5t59 -27.5q34 -20 58 -30t41 -10q28 0 48.5 22t38.5 49l65 -101v-2z" />
    <glyph glyph-name="uni00A0" unicode="&#xa0;" horiz-adv-x="250" 
 />
    <glyph glyph-name="exclamdown" unicode="&#xa1;" horiz-adv-x="357" 
d="M276 423q0 -20 -7.5 -37t-21 -29.5t-31.5 -20t-38 -7.5t-38 7.5t-31 20.5t-20.5 30t-7.5 37t8 37t21 30t30.5 20t37.5 7t38 -7.5t31.5 -20t21 -30t7.5 -37.5zM94 -200v471h168v-471h-168z" />
    <glyph glyph-name="cent" unicode="&#xa2;" horiz-adv-x="646" 
d="M550 51q-29 -29 -72 -45t-88 -20v-65h-76v65q-53 6 -96 28t-73.5 56.5t-47 80.5t-16.5 99q0 54 16.5 98.5t47.5 78.5t73.5 55.5t95.5 29.5v64h76v-64q46 -3 88.5 -18.5t70.5 -44.5l-83 -104q-31 33 -76 39v-270q23 2 43.5 12.5t35.5 26.5zM314 382q-45 -11 -68.5 -47.5
t-23.5 -85.5q0 -48 24 -84.5t68 -48.5v266z" />
    <glyph glyph-name="sterling" unicode="&#xa3;" horiz-adv-x="646" 
d="M529 548q-16 17 -40.5 27.5t-51.5 10.5q-31 0 -51.5 -11t-32.5 -28.5t-16.5 -38.5t-4.5 -41v-51h156v-115h-156v-160h259v-141h-519v141h95v160h-95v115h95v61q0 41 14.5 85t45.5 81t80.5 60.5t119.5 23.5q65 0 114.5 -19t83.5 -50z" />
    <glyph glyph-name="currency" unicode="&#xa4;" horiz-adv-x="950" 
d="M713 459q20 -30 31 -67.5t11 -82.5q0 -90 -45 -155l93 -93l-84 -84l-97 96q-31 -19 -68 -29t-78 -10q-38 0 -74 9.5t-73 31.5l-99 -98q-21 21 -41.5 42t-42.5 42l96 96q-42 62 -42 152q0 43 10 79.5t29 67.5l-93 93l85 84l95 -94q32 20 70 30.5t80 10.5t80 -10t70 -29
l92 92l85 -84zM476 441q-28 0 -51.5 -10.5t-40 -28.5t-25.5 -42t-9 -51q0 -28 9 -52.5t25.5 -42.5t40 -28.5t51.5 -10.5t51.5 10.5t40.5 28.5t26 42.5t9 52.5q0 27 -9.5 51t-26 42t-40 28.5t-51.5 10.5z" />
    <glyph glyph-name="yen" unicode="&#xa5;" horiz-adv-x="646" 
d="M458 416h124v-103h-179v-65h179v-103h-179v-145h-158v145h-178v103h178v65h-178v103h127l-182 292h185l132 -260l129 260h179z" />
    <glyph glyph-name="brokenbar" unicode="&#xa6;" horiz-adv-x="241" 
d="M55 313v362h131v-362h-131zM55 -175v362h131v-362h-131z" />
    <glyph glyph-name="section" unicode="&#xa7;" horiz-adv-x="607" 
d="M562 279q0 -40 -20.5 -73t-54.5 -52q27 -19 38.5 -48t11.5 -62q0 -52 -22.5 -88.5t-58 -59.5t-78.5 -33.5t-85 -10.5q-36 0 -72.5 7.5t-70 23t-62 38t-48.5 52.5l122 87q23 -38 61.5 -55.5t72.5 -17.5q12 0 25 3t23.5 9.5t17.5 16t7 22.5q0 16 -7.5 28t-23.5 21.5t-41 19
t-59 21.5q-37 13 -69 27t-56 33.5t-37.5 46t-13.5 63.5q0 51 25.5 84.5t60.5 53.5q-53 39 -53 113q0 46 21.5 79.5t55 55.5t74.5 32t79 10q74 0 133.5 -26t94.5 -77l-116 -88q-18 28 -47 44t-58 16q-12 0 -25 -3t-23 -9t-16.5 -15t-6.5 -22q0 -27 29.5 -44.5t87.5 -37.5
q37 -14 70.5 -30t59 -37.5t40 -50t14.5 -67.5zM414 263q0 30 -24 46.5t-54 29.5l-86 35q-17 -7 -29 -19.5t-12 -33.5q0 -15 6.5 -26t18 -19.5t26 -14.5t29.5 -12l94 -37q15 7 23 21t8 30z" />
    <glyph glyph-name="dieresis" unicode="&#xa8;" 
d="M342 658q0 -35 -24.5 -58.5t-58.5 -23.5q-35 0 -59 24t-24 58q0 16 6.5 30.5t17.5 26t26 18t33 6.5q34 0 58.5 -23.5t24.5 -57.5zM125 658q0 -35 -24.5 -58.5t-59.5 -23.5t-59 24t-24 58q0 16 6.5 30.5t17.5 26t26.5 18t32.5 6.5q35 0 59.5 -23.5t24.5 -57.5z" />
    <glyph glyph-name="copyright" unicode="&#xa9;" horiz-adv-x="800" 
d="M780 353q0 -78 -30 -146.5t-81.5 -119.5t-120.5 -80t-147 -29q-79 0 -148.5 29t-121 80t-81.5 119.5t-30 146.5q0 79 30 147.5t81.5 119.5t121 80.5t148.5 29.5q78 0 147 -29.5t120.5 -80.5t81.5 -119.5t30 -147.5zM720 353q0 66 -25 124.5t-68.5 102t-101.5 69
t-124 25.5t-124.5 -25.5t-102 -69t-69 -102t-25.5 -124.5t25 -124t68 -101.5t101.5 -68.5t124.5 -25t124.5 25t102 68.5t69 101.5t25.5 124zM508 440q-14 18 -38.5 28.5t-51.5 10.5q-28 0 -49 -10.5t-35.5 -28.5t-22 -40.5t-7.5 -46.5t7.5 -47t22.5 -41t37.5 -29t52.5 -11
q26 0 49.5 9.5t38.5 26.5l72 -76q-29 -30 -72 -46.5t-93 -16.5q-49 0 -92 15.5t-75.5 44.5t-51 72t-18.5 98q0 53 19 95.5t51 72t75.5 45.5t91.5 16q50 0 94.5 -18.5t71.5 -52.5z" />
    <glyph glyph-name="ordfeminine" unicode="&#xaa;" horiz-adv-x="384" 
d="M236 458h-1q-11 -17 -34 -25.5t-50 -8.5q-19 0 -38 5t-34 15.5t-24.5 27.5t-9.5 40q0 33 17.5 52t44.5 29.5t60 13.5t64 3v4q0 18 -14 26.5t-36 8.5q-20 0 -38 -8t-30 -20l-54 55q25 23 60 35t71 12q41 0 68 -10.5t42.5 -28t22 -40.5t6.5 -49v-164h-93v27zM234 553h-12
q-14 0 -28 -1.5t-25.5 -5t-19 -10.5t-7.5 -18q0 -14 12 -20.5t25 -6.5q26 0 40.5 14t14.5 36v12z" />
    <glyph glyph-name="guillemotleft" unicode="&#xab;" horiz-adv-x="543" 
d="M412 22l-161 232l161 232l97 -63l-115 -169l115 -169zM186 22l-161 232l161 232l97 -63l-115 -169l116 -169z" />
    <glyph glyph-name="logicalnot" unicode="&#xac;" horiz-adv-x="666" 
d="M476 145v183h-425v123h555v-306h-130z" />
    <glyph glyph-name="uni00AD" unicode="&#xad;" horiz-adv-x="326" 
d="M36 197v130h254v-130h-254z" />
    <glyph glyph-name="registered" unicode="&#xae;" horiz-adv-x="600" 
d="M305 521q12 0 20 6.5t8 16.5q0 8 -8.5 13t-19.5 5h-26v-41h26zM339 365l-44 94h-16v-94h-88v266h114q21 0 43 -4t39 -14t28 -26.5t11 -41.5q0 -55 -48 -74l61 -106h-100zM72 492q0 47 18 88.5t49 72t73 48.5t89 18t88.5 -18t72 -48.5t48.5 -72t18 -88.5t-18 -88
t-48.5 -71.5t-72 -48t-88.5 -17.5t-89 17.5t-73 48t-49 71.5t-18 88zM108 492q0 -39 15 -74t41.5 -61.5t61.5 -41.5t75 -15t74.5 15t60.5 41.5t41 61.5t15 74q0 40 -15 75t-41 61t-60.5 41t-74.5 15t-75 -15t-61.5 -41t-41.5 -61t-15 -75z" />
    <glyph glyph-name="macron" unicode="&#xaf;" 
d="M-18 601v86h336v-86h-336z" />
    <glyph glyph-name="degree" unicode="&#xb0;" horiz-adv-x="416" 
d="M376 558q0 -35 -13 -66t-35.5 -53.5t-53.5 -35.5t-66 -13t-66 13t-53.5 35.5t-35.5 53.5t-13 66t13 65.5t35.5 53t53.5 35.5t66 13t66 -13t53.5 -35.5t35.5 -53t13 -65.5zM296 558q0 36 -25.5 62t-62.5 26t-62.5 -26t-25.5 -62q0 -37 25.5 -62.5t62.5 -25.5t62.5 25.5
t25.5 62.5z" />
    <glyph glyph-name="plusminus" unicode="&#xb1;" horiz-adv-x="666" 
d="M404 331v-132h-130v132h-213v127h213v132h130v-132h212v-127h-212zM61 31v127h555v-127h-555z" />
    <glyph glyph-name="twosuperior" unicode="&#xb2;" horiz-adv-x="420" 
d="M55 445v92l170 156q29 26 29 56q0 18 -12 29t-33 11q-23 0 -37.5 -17t-16.5 -44l-110 14q4 35 18.5 62.5t37.5 46.5t52 29t61 10q30 0 59 -8t51.5 -24.5t36 -41.5t13.5 -60q0 -24 -6.5 -43t-17 -34.5t-24 -29.5t-28.5 -27l-87 -77h163v-100h-319z" />
    <glyph glyph-name="threesuperior" unicode="&#xb3;" horiz-adv-x="420" 
d="M379 573q0 -36 -14.5 -62t-38 -42.5t-52.5 -24.5t-59 -8t-57.5 7t-51 21.5t-41 37.5t-26.5 56l105 28q7 -22 22.5 -37.5t41.5 -15.5q20 0 38 10t18 36q0 15 -6.5 24t-17.5 14t-25 7t-29 2h-33v84h36q27 0 46 10.5t19 36.5q0 17 -13 27.5t-33 10.5q-18 0 -32 -13t-19 -35
l-105 25q8 29 24.5 51t38.5 37t48 22.5t53 7.5q30 0 57.5 -7t48.5 -22t34 -38t13 -54q0 -34 -15.5 -58.5t-41.5 -37.5q32 -11 49.5 -38t17.5 -62z" />
    <glyph glyph-name="acute" unicode="&#xb4;" 
d="M193 572h-124l104 144h166z" />
    <glyph glyph-name="mu" unicode="&#xb5;" horiz-adv-x="663" 
d="M628 1q-17 -6 -38 -9.5t-47 -3.5q-53 0 -78.5 22t-32.5 59h-2q-6 -14 -17 -29t-26.5 -27t-35 -19.5t-42.5 -7.5q-26 0 -46.5 7.5t-30.5 19.5h-2v-253h-166v738h166v-268q0 -60 19.5 -84t54.5 -24q43 0 65.5 32t22.5 77v267h166v-339q0 -23 9 -33t29 -10q15 0 30 5z" />
    <glyph glyph-name="paragraph" unicode="&#xb6;" horiz-adv-x="618" 
d="M439 -129v737h-85v-737h-116v464q-49 1 -88.5 14.5t-67.5 37.5t-43 57t-15 74q0 54 19 90.5t52 58.5t77.5 31.5t95.5 9.5h287v-837h-116z" />
    <glyph glyph-name="periodcentered" unicode="&#xb7;" 
d="M251 291q0 -42 -29.5 -70t-70.5 -28q-21 0 -39.5 7.5t-32.5 20.5t-22 30.5t-8 38.5q0 20 8 38t22 31.5t32.5 21.5t39.5 8q41 0 70.5 -28t29.5 -70z" />
    <glyph glyph-name="cedilla" unicode="&#xb8;" 
d="M283 -142q0 -29 -14 -48t-36 -30t-47.5 -15.5t-49.5 -4.5q-31 0 -63.5 7t-55.5 18l27 60q19 -9 41.5 -14t42.5 -5q16 0 33 6.5t17 26.5q0 18 -16 23.5t-31 5.5q-9 0 -20 -1.5t-20 -4.5l-31 29l67 89h82l-47 -60q5 1 9 1h9q18 0 36.5 -3.5t33 -12.5t24 -25.5t9.5 -41.5z
" />
    <glyph glyph-name="onesuperior" unicode="&#xb9;" horiz-adv-x="420" 
d="M181 445v306l-74 -58l-60 81l145 107h106v-436h-117z" />
    <glyph glyph-name="ordmasculine" unicode="&#xba;" horiz-adv-x="384" 
d="M348 575q0 -34 -12 -62t-33 -47.5t-49.5 -30.5t-61.5 -11q-32 0 -60.5 11t-49.5 30.5t-33 47.5t-12 62t12 61.5t33 47t49.5 30t60.5 10.5q33 0 61.5 -10.5t49.5 -30t33 -47t12 -61.5zM253 575q0 25 -16 44t-45 19t-44 -19t-15 -44q0 -26 15 -45t44 -19t45 19t16 45z" />
    <glyph glyph-name="guillemotright" unicode="&#xbb;" horiz-adv-x="543" 
d="M357 22l-97 63l115 168l-115 170l97 63l162 -233zM132 22l-97 63l115 168l-116 170l98 63l161 -233z" />
    <glyph glyph-name="onequarter" unicode="&#xbc;" horiz-adv-x="940" 
d="M824 83v-83h-106v83h-200v93l175 260h131v-259h58v-94h-58zM718 311h-1l-88 -134h89v134zM313 -30l-87 39l384 730l91 -40zM180 272v306l-74 -58l-60 81l145 107h106v-436h-117z" />
    <glyph glyph-name="onehalf" unicode="&#xbd;" horiz-adv-x="940" 
d="M575 0v92l170 156q13 11 21 24.5t8 30.5q0 18 -12 29.5t-32 11.5q-23 0 -38 -16.5t-17 -44.5l-110 14q4 35 18.5 62.5t37.5 46.5t52 29t61 10q30 0 59 -8t51.5 -24.5t36 -42t13.5 -60.5q0 -23 -6.5 -42t-17 -35t-24 -30t-28.5 -27l-87 -76h163v-100h-319zM313 -30l-87 39
l384 730l91 -40zM180 272v306l-74 -58l-60 81l145 107h106v-436h-117z" />
    <glyph glyph-name="threequarters" unicode="&#xbe;" horiz-adv-x="940" 
d="M824 83v-83h-106v83h-200v93l175 260h131v-259h58v-94h-58zM718 311h-1l-88 -134h89v134zM313 -30l-87 39l384 730l91 -40zM379 404q0 -36 -14.5 -62t-38 -42.5t-52.5 -24.5t-59 -8t-57.5 7t-51 21.5t-41 37.5t-26.5 56l105 28q7 -22 22.5 -37.5t41.5 -15.5q20 0 38 10
t18 36q0 15 -6.5 24t-17.5 14t-25 7t-29 2h-33v84h36q27 0 46 10t19 36q0 17 -13 27.5t-33 10.5q-18 0 -32 -13t-19 -35l-105 25q8 29 24.5 51t38.5 37t48 22.5t53 7.5q30 0 57.5 -7t48.5 -22t34 -38t13 -54q0 -34 -15.5 -58t-41.5 -37q32 -11 49.5 -38t17.5 -62z" />
    <glyph glyph-name="questiondown" unicode="&#xbf;" horiz-adv-x="546" 
d="M361 424q0 -20 -7.5 -37t-21 -30t-31.5 -20.5t-38 -7.5t-37.5 7.5t-31 20t-21.5 29.5t-8 37t7.5 37.5t21 30t31.5 20t38 7.5t37.5 -7t31 -20t21.5 -30t8 -37zM507 -2q-6 -54 -28 -94.5t-56 -67.5t-77 -40.5t-91 -13.5q-44 0 -86.5 11.5t-75.5 36t-53.5 62t-20.5 89.5
q0 33 8 58.5t22.5 46.5t35.5 39.5t47 38.5q16 12 26.5 22.5t16.5 20.5t8.5 22t2.5 27v26h156v-37q0 -26 -5 -46.5t-15 -37.5t-25 -33t-34 -34l-34 -30q-17 -16 -29 -32t-12 -39q0 -32 20 -51.5t54 -19.5q41 0 62.5 28.5t22.5 65.5z" />
    <glyph glyph-name="Agrave" unicode="&#xc0;" horiz-adv-x="729" 
d="M553 0l-55 139h-274l-52 -139h-186l297 708h166l294 -708h-190zM363 519l-90 -243h178zM218 876h135l75 -130h-109z" />
    <glyph glyph-name="Aacute" unicode="&#xc1;" horiz-adv-x="729" 
d="M553 0l-55 139h-274l-52 -139h-186l297 708h166l294 -708h-190zM363 519l-90 -243h178zM421 746h-109l75 130h135z" />
    <glyph glyph-name="Acircumflex" unicode="&#xc2;" horiz-adv-x="729" 
d="M553 0l-55 139h-274l-52 -139h-186l297 708h166l294 -708h-190zM363 519l-90 -243h178zM322 746h-114l96 130h120l96 -130h-113l-43 51z" />
    <glyph glyph-name="Atilde" unicode="&#xc3;" horiz-adv-x="729" 
d="M553 0l-55 139h-274l-52 -139h-186l297 708h166l294 -708h-190zM363 519l-90 -243h178zM521 871q0 -24 -4.5 -46t-14.5 -38.5t-26.5 -26t-40.5 -9.5q-22 0 -40.5 5.5t-38.5 15.5l-16 8t-15 3q-14 0 -20.5 -8.5t-8.5 -22.5h-77q1 23 5.5 44.5t14.5 38t26 26t40 9.5
q41 0 79 -20q11 -5 18 -8.5t14 -3.5q14 0 20 8.5t9 24.5h76z" />
    <glyph glyph-name="Adieresis" unicode="&#xc4;" horiz-adv-x="729" 
d="M553 0l-55 139h-274l-52 -139h-186l297 708h166l294 -708h-190zM363 519l-90 -243h178zM558 850q0 -35 -24.5 -58.5t-58.5 -23.5q-35 0 -59 24t-24 58q0 16 6.5 30.5t17.5 26t26 18t33 6.5q34 0 58.5 -23.5t24.5 -57.5zM341 850q0 -35 -24.5 -58.5t-59.5 -23.5t-59 24
t-24 58q0 16 6.5 30.5t17.5 26t26.5 18t32.5 6.5q35 0 59.5 -23.5t24.5 -57.5z" />
    <glyph glyph-name="Aring" unicode="&#xc5;" horiz-adv-x="729" 
d="M553 0l-55 139h-274l-52 -139h-186l297 708h166l294 -708h-190zM363 519l-90 -243h178zM476 856q0 -23 -8.5 -43t-23.5 -34t-35 -22t-42 -8q-23 0 -42.5 8t-34.5 22t-23.5 33.5t-8.5 42.5q0 47 31.5 77.5t77.5 30.5q22 0 42 -8t35 -22.5t23.5 -34t8.5 -42.5zM426 856
q0 25 -17 41.5t-42 16.5q-26 0 -42.5 -17t-16.5 -42q0 -24 17 -40.5t42 -16.5t42 16.5t17 41.5z" />
    <glyph glyph-name="AE" unicode="&#xc6;" horiz-adv-x="1033" 
d="M514 0v153h-231l-88 -153h-199l414 708h565v-145h-298v-133h281v-137h-281v-147h316v-146h-479zM514 563h-10l-153 -272h163v272z" />
    <glyph glyph-name="Ccedilla" unicode="&#xc7;" horiz-adv-x="696" 
d="M531 -142q0 -29 -14 -48t-36 -30t-47.5 -15.5t-49.5 -4.5q-31 0 -63.5 7t-55.5 18l27 60q19 -9 41.5 -14t42.5 -5q16 0 33 6.5t17 26.5q0 18 -16 23.5t-31 5.5q-9 0 -20 -1.5t-20 -4.5l-31 29l55 74q-71 9 -130 39.5t-102 78.5t-67 112t-24 140q0 85 29.5 154t81.5 117.5
t122 74.5t151 26q75 0 147.5 -26.5t117.5 -77.5l-116 -116q-24 33 -63 49t-80 16q-45 0 -82.5 -16.5t-64.5 -45.5t-42 -68.5t-15 -86.5q0 -48 15 -88t41.5 -68.5t63.5 -44.5t81 -16q51 0 89 20t61 52l119 -112q-44 -51 -108 -81.5t-146 -34.5l-32 -42q5 1 9 1h9
q18 0 36.5 -3.5t33 -12.5t24 -25.5t9.5 -41.5z" />
    <glyph glyph-name="Egrave" unicode="&#xc8;" horiz-adv-x="607" 
d="M73 0v708h476v-145h-311v-133h294v-137h-294v-147h329v-146h-494zM184 876h135l75 -130h-109z" />
    <glyph glyph-name="Eacute" unicode="&#xc9;" horiz-adv-x="607" 
d="M73 0v708h476v-145h-311v-133h294v-137h-294v-147h329v-146h-494zM361 746h-109l75 130h135z" />
    <glyph glyph-name="Ecircumflex" unicode="&#xca;" horiz-adv-x="607" 
d="M73 0v708h476v-145h-311v-133h294v-137h-294v-147h329v-146h-494zM268 746h-114l96 130h120l96 -130h-113l-43 51z" />
    <glyph glyph-name="Edieresis" unicode="&#xcb;" horiz-adv-x="607" 
d="M73 0v708h476v-145h-311v-133h294v-137h-294v-147h329v-146h-494zM507 850q0 -35 -24.5 -58.5t-58.5 -23.5q-35 0 -59 24t-24 58q0 16 6.5 30.5t17.5 26t26 18t33 6.5q34 0 58.5 -23.5t24.5 -57.5zM290 850q0 -35 -24.5 -58.5t-59.5 -23.5t-59 24t-24 58q0 16 6.5 30.5
t17.5 26t26.5 18t32.5 6.5q35 0 59.5 -23.5t24.5 -57.5z" />
    <glyph glyph-name="Igrave" unicode="&#xcc;" horiz-adv-x="318" 
d="M73 0v708h172v-708h-172zM15 876h135l75 -130h-109z" />
    <glyph glyph-name="Iacute" unicode="&#xcd;" horiz-adv-x="318" 
d="M73 0v708h172v-708h-172zM204 746h-109l75 130h135z" />
    <glyph glyph-name="Icircumflex" unicode="&#xce;" horiz-adv-x="318" 
d="M73 0v708h172v-708h-172zM225 764l-68 81l-68 -81h-128l124 144h148l122 -144h-130z" />
    <glyph glyph-name="Idieresis" unicode="&#xcf;" horiz-adv-x="318" 
d="M73 0v708h172v-708h-172zM351 850q0 -35 -24.5 -58.5t-58.5 -23.5q-35 0 -59 24t-24 58q0 16 6.5 30.5t17.5 26t26 18t33 6.5q34 0 58.5 -23.5t24.5 -57.5zM134 850q0 -35 -24.5 -58.5t-59.5 -23.5t-59 24t-24 58q0 16 6.5 30.5t17.5 26t26.5 18t32.5 6.5
q35 0 59.5 -23.5t24.5 -57.5z" />
    <glyph glyph-name="Eth" unicode="&#xd0;" horiz-adv-x="774" 
d="M732 356q0 -92 -34 -159t-89 -111t-124 -65t-139 -21h-272v309h-61v107h61v292h273q75 0 145 -19.5t123 -62t85 -109.5t32 -161zM557 356q0 52 -16.5 90.5t-46.5 63.5t-71.5 37t-91.5 12h-90v-143h181v-107h-181v-159h74q52 0 96.5 11.5t76.5 36.5t50.5 64t18.5 94z" />
    <glyph glyph-name="Ntilde" unicode="&#xd1;" horiz-adv-x="790" 
d="M523 0l-285 463h-3l4 -463h-166v708h195l284 -462h3l-4 462h166v-708h-194zM584 900q-3 -26 -11 -50t-21.5 -42t-33.5 -29t-47 -11q-21 0 -41 6t-40 15q-20 11 -34.5 15.5t-28.5 4.5q-18 0 -27.5 -12t-14.5 -28h-72q3 26 11 49.5t21.5 41.5t33.5 28.5t47 10.5
q21 0 40.5 -5.5t39.5 -14.5q21 -10 36 -15t29 -5q19 0 28 11.5t14 29.5h71z" />
    <glyph glyph-name="Ograve" unicode="&#xd2;" horiz-adv-x="851" 
d="M811 357q0 -84 -29 -153.5t-80.5 -119t-122.5 -76.5t-154 -27t-153.5 27t-122 76.5t-80.5 119t-29 153.5q0 85 29 153.5t80.5 116.5t122 74t153.5 26t154 -26t122.5 -74t80.5 -116.5t29 -153.5zM628 357q0 46 -15 86t-41.5 68.5t-64 45t-82.5 16.5t-82 -16.5t-64 -45
t-41.5 -68.5t-14.5 -86q0 -48 15 -88.5t41.5 -69.5t63.5 -45.5t82 -16.5t82 16.5t64 45.5t42 69.5t15 88.5zM294 876h135l75 -130h-109z" />
    <glyph glyph-name="Oacute" unicode="&#xd3;" horiz-adv-x="851" 
d="M811 357q0 -84 -29 -153.5t-80.5 -119t-122.5 -76.5t-154 -27t-153.5 27t-122 76.5t-80.5 119t-29 153.5q0 85 29 153.5t80.5 116.5t122 74t153.5 26t154 -26t122.5 -74t80.5 -116.5t29 -153.5zM628 357q0 46 -15 86t-41.5 68.5t-64 45t-82.5 16.5t-82 -16.5t-64 -45
t-41.5 -68.5t-14.5 -86q0 -48 15 -88.5t41.5 -69.5t63.5 -45.5t82 -16.5t82 16.5t64 45.5t42 69.5t15 88.5zM474 746h-109l75 130h135z" />
    <glyph glyph-name="Ocircumflex" unicode="&#xd4;" horiz-adv-x="851" 
d="M811 357q0 -84 -29 -153.5t-80.5 -119t-122.5 -76.5t-154 -27t-153.5 27t-122 76.5t-80.5 119t-29 153.5q0 85 29 153.5t80.5 116.5t122 74t153.5 26t154 -26t122.5 -74t80.5 -116.5t29 -153.5zM628 357q0 46 -15 86t-41.5 68.5t-64 45t-82.5 16.5t-82 -16.5t-64 -45
t-41.5 -68.5t-14.5 -86q0 -48 15 -88.5t41.5 -69.5t63.5 -45.5t82 -16.5t82 16.5t64 45.5t42 69.5t15 88.5zM388 746h-114l96 130h120l96 -130h-113l-43 51z" />
    <glyph glyph-name="Otilde" unicode="&#xd5;" horiz-adv-x="851" 
d="M811 357q0 -84 -29 -153.5t-80.5 -119t-122.5 -76.5t-154 -27t-153.5 27t-122 76.5t-80.5 119t-29 153.5q0 85 29 153.5t80.5 116.5t122 74t153.5 26t154 -26t122.5 -74t80.5 -116.5t29 -153.5zM628 357q0 46 -15 86t-41.5 68.5t-64 45t-82.5 16.5t-82 -16.5t-64 -45
t-41.5 -68.5t-14.5 -86q0 -48 15 -88.5t41.5 -69.5t63.5 -45.5t82 -16.5t82 16.5t64 45.5t42 69.5t15 88.5zM579 881q0 -24 -4.5 -46t-14.5 -38.5t-26.5 -26t-40.5 -9.5q-22 0 -40.5 5.5t-38.5 15.5l-16 8t-15 3q-14 0 -20.5 -8.5t-8.5 -22.5h-77q1 23 5.5 44.5t14.5 38
t26 26t40 9.5q41 0 79 -20q11 -5 18 -8.5t14 -3.5q14 0 20 8.5t9 24.5h76z" />
    <glyph glyph-name="Odieresis" unicode="&#xd6;" horiz-adv-x="851" 
d="M811 357q0 -84 -29 -153.5t-80.5 -119t-122.5 -76.5t-154 -27t-153.5 27t-122 76.5t-80.5 119t-29 153.5q0 85 29 153.5t80.5 116.5t122 74t153.5 26t154 -26t122.5 -74t80.5 -116.5t29 -153.5zM628 357q0 46 -15 86t-41.5 68.5t-64 45t-82.5 16.5t-82 -16.5t-64 -45
t-41.5 -68.5t-14.5 -86q0 -48 15 -88.5t41.5 -69.5t63.5 -45.5t82 -16.5t82 16.5t64 45.5t42 69.5t15 88.5zM618 850q0 -35 -24.5 -58.5t-58.5 -23.5q-35 0 -59 24t-24 58q0 16 6.5 30.5t17.5 26t26 18t33 6.5q34 0 58.5 -23.5t24.5 -57.5zM401 850q0 -35 -24.5 -58.5
t-59.5 -23.5t-59 24t-24 58q0 16 6.5 30.5t17.5 26t26.5 18t32.5 6.5q35 0 59.5 -23.5t24.5 -57.5z" />
    <glyph glyph-name="multiply" unicode="&#xd7;" horiz-adv-x="666" 
d="M510 37l-177 173l-176 -173l-93 89l177 175l-178 174l94 91l177 -173l174 172l91 -87l-174 -173l179 -175z" />
    <glyph glyph-name="Oslash" unicode="&#xd8;" horiz-adv-x="851" 
d="M40 356q0 85 29 153.5t80.5 116.5t122 74t153.5 26q126 0 219 -58q21 24 43 48t44 49l67 -59q-22 -23 -43 -46.5t-43 -46.5q48 -49 73.5 -113t25.5 -144q0 -84 -29.5 -152.5t-81 -117.5t-122.5 -76.5t-154 -27.5h-5q-66 0 -123 17.5t-101 51.5l-89 -95q-17 14 -33.5 28.5
t-33.5 28.5l89 97q-43 46 -65.5 109t-22.5 137zM635 356q0 38 -9 71t-29 59l-292 -318q46 -37 119 -37q48 0 87 17.5t66.5 47.5t42.5 71t15 89zM214 355q0 -73 31 -120l290 315q-20 14 -48.5 21.5t-61.5 7.5q-50 0 -89 -17.5t-66 -48t-41.5 -71.5t-14.5 -87z" />
    <glyph glyph-name="Ugrave" unicode="&#xd9;" horiz-adv-x="738" 
d="M673 267q0 -64 -21.5 -116.5t-61.5 -90t-96.5 -58.5t-125.5 -21q-70 0 -126 21t-95 58.5t-60 90t-21 116.5v441h170v-427q0 -29 7.5 -55t23 -46.5t41 -32.5t61.5 -12t61.5 12t41.5 32.5t23 46.5t7 55v427h171v-441zM236 876h135l75 -130h-109z" />
    <glyph glyph-name="Uacute" unicode="&#xda;" horiz-adv-x="738" 
d="M673 267q0 -64 -21.5 -116.5t-61.5 -90t-96.5 -58.5t-125.5 -21q-70 0 -126 21t-95 58.5t-60 90t-21 116.5v441h170v-427q0 -29 7.5 -55t23 -46.5t41 -32.5t61.5 -12t61.5 12t41.5 32.5t23 46.5t7 55v427h171v-441zM423 746h-109l75 130h135z" />
    <glyph glyph-name="Ucircumflex" unicode="&#xdb;" horiz-adv-x="738" 
d="M673 267q0 -64 -21.5 -116.5t-61.5 -90t-96.5 -58.5t-125.5 -21q-70 0 -126 21t-95 58.5t-60 90t-21 116.5v441h170v-427q0 -29 7.5 -55t23 -46.5t41 -32.5t61.5 -12t61.5 12t41.5 32.5t23 46.5t7 55v427h171v-441zM437 764l-68 81l-68 -81h-128l124 144h148l122 -144
h-130z" />
    <glyph glyph-name="Udieresis" unicode="&#xdc;" horiz-adv-x="738" 
d="M673 267q0 -64 -21.5 -116.5t-61.5 -90t-96.5 -58.5t-125.5 -21q-70 0 -126 21t-95 58.5t-60 90t-21 116.5v441h170v-427q0 -29 7.5 -55t23 -46.5t41 -32.5t61.5 -12t61.5 12t41.5 32.5t23 46.5t7 55v427h171v-441zM562 850q0 -35 -24.5 -58.5t-58.5 -23.5q-35 0 -59 24
t-24 58q0 16 6.5 30.5t17.5 26t26 18t33 6.5q34 0 58.5 -23.5t24.5 -57.5zM345 850q0 -35 -24.5 -58.5t-59.5 -23.5t-59 24t-24 58q0 16 6.5 30.5t17.5 26t26.5 18t32.5 6.5q35 0 59.5 -23.5t24.5 -57.5z" />
    <glyph glyph-name="Yacute" unicode="&#xdd;" horiz-adv-x="669" 
d="M417 300v-300h-171v300l-266 408h207l151 -262l151 262h200zM386 746h-109l75 130h135z" />
    <glyph glyph-name="Thorn" unicode="&#xde;" horiz-adv-x="640" 
d="M610 369q0 -62 -23 -104.5t-62 -68.5t-90 -38t-106 -12h-85v-146h-171v708h171v-121h89q58 0 108.5 -11.5t88 -37t59 -67t21.5 -102.5zM439 368q0 26 -10 42t-27 25t-38.5 12t-44.5 3h-75v-168h72q24 0 46 4t39.5 14t27.5 26.5t10 41.5z" />
    <glyph glyph-name="germandbls" unicode="&#xdf;" horiz-adv-x="667" 
d="M277 140q17 -6 39 -9.5t34 -3.5q48 0 80.5 23.5t32.5 79.5q0 30 -10.5 51.5t-29 35.5t-43 20.5t-52.5 6.5h-21v129h22q10 0 24.5 2.5t28 11t23.5 24.5t10 43q0 32 -21 56.5t-63 24.5q-30 0 -50 -12t-31.5 -31.5t-16.5 -43.5t-5 -48v-500h-164v501q0 57 16 106t50 84.5
t85.5 56t122.5 20.5q50 0 94 -14t77 -39.5t52 -63t19 -83.5q0 -56 -30 -96t-74 -54v-1q69 -14 111 -65.5t42 -129.5q0 -55 -18.5 -98.5t-52 -74t-80.5 -46.5t-105 -16q-47 0 -96 12v141v0z" />
    <glyph glyph-name="agrave" unicode="&#xe0;" horiz-adv-x="566" 
d="M358 217h-21q-27 0 -54.5 -2.5t-49 -9.5t-35.5 -20.5t-14 -35.5q0 -14 6.5 -24t16.5 -16t23 -8.5t25 -2.5q50 0 76.5 27.5t26.5 74.5v17zM57 430q44 42 102.5 63t119.5 21q63 0 106.5 -15.5t70.5 -48t39.5 -82t12.5 -117.5v-251h-150v53h-3q-19 -31 -57.5 -48t-83.5 -17
q-30 0 -62 8t-58.5 26t-43.5 48t-17 74q0 54 29.5 87t76 51t103.5 24t111 6v8q0 37 -26 54.5t-64 17.5q-35 0 -67.5 -15t-55.5 -36zM161 668h135l75 -130h-109z" />
    <glyph glyph-name="aacute" unicode="&#xe1;" horiz-adv-x="566" 
d="M358 217h-21q-27 0 -54.5 -2.5t-49 -9.5t-35.5 -20.5t-14 -35.5q0 -14 6.5 -24t16.5 -16t23 -8.5t25 -2.5q50 0 76.5 27.5t26.5 74.5v17zM57 430q44 42 102.5 63t119.5 21q63 0 106.5 -15.5t70.5 -48t39.5 -82t12.5 -117.5v-251h-150v53h-3q-19 -31 -57.5 -48t-83.5 -17
q-30 0 -62 8t-58.5 26t-43.5 48t-17 74q0 54 29.5 87t76 51t103.5 24t111 6v8q0 37 -26 54.5t-64 17.5q-35 0 -67.5 -15t-55.5 -36zM343 538h-109l75 130h135z" />
    <glyph glyph-name="acircumflex" unicode="&#xe2;" horiz-adv-x="566" 
d="M358 217h-21q-27 0 -54.5 -2.5t-49 -9.5t-35.5 -20.5t-14 -35.5q0 -14 6.5 -24t16.5 -16t23 -8.5t25 -2.5q50 0 76.5 27.5t26.5 74.5v17zM57 430q44 42 102.5 63t119.5 21q63 0 106.5 -15.5t70.5 -48t39.5 -82t12.5 -117.5v-251h-150v53h-3q-19 -31 -57.5 -48t-83.5 -17
q-30 0 -62 8t-58.5 26t-43.5 48t-17 74q0 54 29.5 87t76 51t103.5 24t111 6v8q0 37 -26 54.5t-64 17.5q-35 0 -67.5 -15t-55.5 -36zM246 538h-114l96 130h120l96 -130h-113l-43 51z" />
    <glyph glyph-name="atilde" unicode="&#xe3;" horiz-adv-x="566" 
d="M358 217h-21q-27 0 -54.5 -2.5t-49 -9.5t-35.5 -20.5t-14 -35.5q0 -14 6.5 -24t16.5 -16t23 -8.5t25 -2.5q50 0 76.5 27.5t26.5 74.5v17zM57 430q44 42 102.5 63t119.5 21q63 0 106.5 -15.5t70.5 -48t39.5 -82t12.5 -117.5v-251h-150v53h-3q-19 -31 -57.5 -48t-83.5 -17
q-30 0 -62 8t-58.5 26t-43.5 48t-17 74q0 54 29.5 87t76 51t103.5 24t111 6v8q0 37 -26 54.5t-64 17.5q-35 0 -67.5 -15t-55.5 -36zM437 667q0 -24 -4.5 -46t-14.5 -38.5t-26.5 -26t-40.5 -9.5q-22 0 -40.5 5.5t-38.5 15.5l-16 8t-15 3q-14 0 -20.5 -8.5t-8.5 -22.5h-77
q1 23 5.5 44.5t14.5 38t26 26t40 9.5q41 0 79 -20q11 -5 18 -8.5t14 -3.5q14 0 20 8.5t9 24.5h76z" />
    <glyph glyph-name="adieresis" unicode="&#xe4;" horiz-adv-x="566" 
d="M358 217h-21q-27 0 -54.5 -2.5t-49 -9.5t-35.5 -20.5t-14 -35.5q0 -14 6.5 -24t16.5 -16t23 -8.5t25 -2.5q50 0 76.5 27.5t26.5 74.5v17zM57 430q44 42 102.5 63t119.5 21q63 0 106.5 -15.5t70.5 -48t39.5 -82t12.5 -117.5v-251h-150v53h-3q-19 -31 -57.5 -48t-83.5 -17
q-30 0 -62 8t-58.5 26t-43.5 48t-17 74q0 54 29.5 87t76 51t103.5 24t111 6v8q0 37 -26 54.5t-64 17.5q-35 0 -67.5 -15t-55.5 -36zM477 658q0 -35 -24.5 -58.5t-58.5 -23.5q-35 0 -59 24t-24 58q0 16 6.5 30.5t17.5 26t26 18t33 6.5q34 0 58.5 -23.5t24.5 -57.5zM260 658
q0 -35 -24.5 -58.5t-59.5 -23.5t-59 24t-24 58q0 16 6.5 30.5t17.5 26t26.5 18t32.5 6.5q35 0 59.5 -23.5t24.5 -57.5z" />
    <glyph glyph-name="aring" unicode="&#xe5;" horiz-adv-x="566" 
d="M358 217h-21q-27 0 -54.5 -2.5t-49 -9.5t-35.5 -20.5t-14 -35.5q0 -14 6.5 -24t16.5 -16t23 -8.5t25 -2.5q50 0 76.5 27.5t26.5 74.5v17zM57 430q44 42 102.5 63t119.5 21q63 0 106.5 -15.5t70.5 -48t39.5 -82t12.5 -117.5v-251h-150v53h-3q-19 -31 -57.5 -48t-83.5 -17
q-30 0 -62 8t-58.5 26t-43.5 48t-17 74q0 54 29.5 87t76 51t103.5 24t111 6v8q0 37 -26 54.5t-64 17.5q-35 0 -67.5 -15t-55.5 -36zM396 664q0 -23 -8.5 -43t-23.5 -34t-35 -22t-42 -8q-23 0 -42.5 8t-34.5 22t-23.5 33.5t-8.5 42.5q0 47 31.5 77.5t77.5 30.5q22 0 42 -8
t35 -22.5t23.5 -34t8.5 -42.5zM346 664q0 25 -17 41.5t-42 16.5q-26 0 -42.5 -17t-16.5 -42q0 -24 17 -40.5t42 -16.5t42 16.5t17 41.5z" />
    <glyph glyph-name="ae" unicode="&#xe6;" horiz-adv-x="899" 
d="M358 207h-21q-71 0 -112 -11t-41 -47q0 -14 6.5 -24t16.5 -16t23 -8.5t25 -2.5q50 0 76.5 25t26.5 68v16zM709 306q0 39 -24.5 67t-73.5 28q-24 0 -44 -7.5t-35 -20.5t-24 -30.5t-10 -36.5h211zM840 90q-35 -51 -92 -78.5t-134 -27.5q-59 0 -108.5 23.5t-78.5 66.5
q-23 -38 -70.5 -62t-131.5 -24q-32 0 -66 8.5t-62 27t-46 48t-18 72.5q0 52 27 83.5t72 49t102.5 23t118.5 5.5v7q0 42 -24 61t-65 19q-35 0 -68 -15t-56 -36l-82 89q43 42 101.5 63t119.5 21q62 0 101.5 -22t59.5 -51q27 32 70.5 52.5t100.5 20.5q55 0 101 -18.5t79 -53.5
t51.5 -85t18.5 -114q0 -10 -0.5 -20t-1.5 -19h-360q5 -42 39 -68t79 -26q40 0 67 14.5t43 37.5z" />
    <glyph glyph-name="ccedilla" unicode="&#xe7;" horiz-adv-x="503" 
d="M430 -142q0 -29 -14 -48t-36 -30t-47.5 -15.5t-49.5 -4.5q-31 0 -63.5 7t-55.5 18l27 60q19 -9 41.5 -14t42.5 -5q16 0 33 6.5t17 26.5q0 18 -16 23.5t-31 5.5q-9 0 -20 -1.5t-20 -4.5l-31 29l58 77q-49 7 -90.5 28.5t-71.5 55t-47 78t-17 99.5q0 61 21.5 110t59 83.5
t88.5 53t109 18.5q27 0 53.5 -5t51 -13.5t45 -21t35.5 -27.5l-95 -110q-14 18 -38 29t-49 11q-26 0 -47 -10.5t-36 -28t-23.5 -40.5t-8.5 -49t8 -49t23.5 -40.5t37 -27.5t48.5 -10q25 0 49.5 9.5t39.5 27.5l91 -111q-27 -26 -68.5 -42.5t-89.5 -20.5l-35 -45q5 1 9 1h9
q18 0 36.5 -3.5t33 -12.5t24 -25.5t9.5 -41.5z" />
    <glyph glyph-name="egrave" unicode="&#xe8;" horiz-adv-x="596" 
d="M407 306q0 39 -24.5 67t-73.5 28q-24 0 -44 -7.5t-35 -20.5t-24 -30.5t-10 -36.5h211zM558 243v-20t-1 -19h-361q2 -21 12.5 -38t27 -29.5t37 -19.5t42.5 -7q39 0 66 14.5t44 37.5l114 -72q-35 -51 -92.5 -78.5t-133.5 -27.5q-56 0 -106 17.5t-87.5 51t-59 82.5
t-21.5 112q0 61 21 110.5t57 84t85 53.5t106 19q55 0 101 -18.5t79 -53.5t51.5 -85t18.5 -114zM182 668h135l75 -130h-109z" />
    <glyph glyph-name="eacute" unicode="&#xe9;" horiz-adv-x="596" 
d="M407 306q0 39 -24.5 67t-73.5 28q-24 0 -44 -7.5t-35 -20.5t-24 -30.5t-10 -36.5h211zM558 243v-20t-1 -19h-361q2 -21 12.5 -38t27 -29.5t37 -19.5t42.5 -7q39 0 66 14.5t44 37.5l114 -72q-35 -51 -92.5 -78.5t-133.5 -27.5q-56 0 -106 17.5t-87.5 51t-59 82.5
t-21.5 112q0 61 21 110.5t57 84t85 53.5t106 19q55 0 101 -18.5t79 -53.5t51.5 -85t18.5 -114zM356 538h-109l75 130h135z" />
    <glyph glyph-name="ecircumflex" unicode="&#xea;" horiz-adv-x="596" 
d="M407 306q0 39 -24.5 67t-73.5 28q-24 0 -44 -7.5t-35 -20.5t-24 -30.5t-10 -36.5h211zM558 243v-20t-1 -19h-361q2 -21 12.5 -38t27 -29.5t37 -19.5t42.5 -7q39 0 66 14.5t44 37.5l114 -72q-35 -51 -92.5 -78.5t-133.5 -27.5q-56 0 -106 17.5t-87.5 51t-59 82.5
t-21.5 112q0 61 21 110.5t57 84t85 53.5t106 19q55 0 101 -18.5t79 -53.5t51.5 -85t18.5 -114zM273 538h-114l96 130h120l96 -130h-113l-43 51z" />
    <glyph glyph-name="edieresis" unicode="&#xeb;" horiz-adv-x="596" 
d="M407 306q0 39 -24.5 67t-73.5 28q-24 0 -44 -7.5t-35 -20.5t-24 -30.5t-10 -36.5h211zM558 243v-20t-1 -19h-361q2 -21 12.5 -38t27 -29.5t37 -19.5t42.5 -7q39 0 66 14.5t44 37.5l114 -72q-35 -51 -92.5 -78.5t-133.5 -27.5q-56 0 -106 17.5t-87.5 51t-59 82.5
t-21.5 112q0 61 21 110.5t57 84t85 53.5t106 19q55 0 101 -18.5t79 -53.5t51.5 -85t18.5 -114zM505 658q0 -35 -24.5 -58.5t-58.5 -23.5q-35 0 -59 24t-24 58q0 16 6.5 30.5t17.5 26t26 18t33 6.5q34 0 58.5 -23.5t24.5 -57.5zM288 658q0 -35 -24.5 -58.5t-59.5 -23.5
t-59 24t-24 58q0 16 6.5 30.5t17.5 26t26.5 18t32.5 6.5q35 0 59.5 -23.5t24.5 -57.5z" />
    <glyph glyph-name="igrave" unicode="&#xec;" horiz-adv-x="296" 
d="M66 0v498h164v-498h-164zM4 668h135l75 -130h-109z" />
    <glyph glyph-name="iacute" unicode="&#xed;" horiz-adv-x="296" 
d="M66 0v498h164v-498h-164zM191 538h-109l75 130h135z" />
    <glyph glyph-name="icircumflex" unicode="&#xee;" horiz-adv-x="296" 
d="M66 0v498h164v-498h-164zM218 572l-68 81l-68 -81h-128l124 144h148l122 -144h-130z" />
    <glyph glyph-name="idieresis" unicode="&#xef;" horiz-adv-x="296" 
d="M66 0v498h164v-498h-164zM342 658q0 -35 -24.5 -58.5t-58.5 -23.5q-35 0 -59 24t-24 58q0 16 6.5 30.5t17.5 26t26 18t33 6.5q34 0 58.5 -23.5t24.5 -57.5zM125 658q0 -35 -24.5 -58.5t-59.5 -23.5t-59 24t-24 58q0 16 6.5 30.5t17.5 26t26.5 18t32.5 6.5
q35 0 59.5 -23.5t24.5 -57.5z" />
    <glyph glyph-name="eth" unicode="&#xf0;" horiz-adv-x="632" 
d="M593 282q0 -69 -20 -124t-56.5 -94t-87.5 -59.5t-114 -20.5q-57 0 -107.5 18.5t-88 53t-59 84t-21.5 110.5q0 60 20.5 108t56.5 81.5t84 52t103 18.5q23 0 43.5 -5.5t38.5 -19.5l2 1q-21 31 -45.5 61t-52.5 53l-108 -48l-80 70l109 47q-12 12 -33 28.5t-42 30.5l127 71
q28 -21 50 -40.5t36 -31.5l113 50l87 -71l-121 -52q36 -39 66 -81t52.5 -88t35 -97t12.5 -106zM435 250q0 24 -8 46.5t-23 40.5t-37.5 29t-51.5 11t-51 -11t-37 -29t-22.5 -40.5t-7.5 -46.5t8 -47t23 -41t37 -29t51 -11t51 11t37 29t23 41t8 47z" />
    <glyph glyph-name="ntilde" unicode="&#xf1;" horiz-adv-x="616" 
d="M391 0v272q0 21 -3.5 40t-11.5 33.5t-22.5 23t-36.5 8.5t-38.5 -8.5t-27.5 -23.5t-16.5 -34.5t-5.5 -40.5v-270h-165v498h159v-69h2q9 16 23.5 31.5t34 26.5t42.5 18t49 7q50 0 85 -18t56.5 -46.5t31 -65.5t9.5 -74v-308h-165zM497 708q-3 -26 -11 -50t-21.5 -42
t-33.5 -29t-47 -11q-21 0 -41 6t-40 15q-20 11 -34.5 15.5t-28.5 4.5q-18 0 -27.5 -12t-14.5 -28h-72q3 26 11 49.5t21.5 41.5t33.5 28.5t47 10.5q21 0 40.5 -5.5t39.5 -14.5q21 -10 36 -15t29 -5q19 0 28 11.5t14 29.5h71z" />
    <glyph glyph-name="ograve" unicode="&#xf2;" horiz-adv-x="632" 
d="M592 251q0 -61 -22 -110.5t-60 -84t-88 -53.5t-107 -19q-56 0 -106.5 19t-88 53.5t-59.5 84t-22 110.5t22 110t59.5 83t88 52t106.5 18q57 0 107 -18t88 -52t60 -83t22 -110zM434 251q0 24 -8 47t-23 40.5t-37 28.5t-51 11t-51 -11t-36.5 -28.5t-22 -40.5t-7.5 -47
t7.5 -47t22.5 -41.5t37 -29.5t51 -11t51 11t37 29.5t22.5 41.5t7.5 47zM189 668h135l75 -130h-109z" />
    <glyph glyph-name="oacute" unicode="&#xf3;" horiz-adv-x="632" 
d="M592 251q0 -61 -22 -110.5t-60 -84t-88 -53.5t-107 -19q-56 0 -106.5 19t-88 53.5t-59.5 84t-22 110.5t22 110t59.5 83t88 52t106.5 18q57 0 107 -18t88 -52t60 -83t22 -110zM434 251q0 24 -8 47t-23 40.5t-37 28.5t-51 11t-51 -11t-36.5 -28.5t-22 -40.5t-7.5 -47
t7.5 -47t22.5 -41.5t37 -29.5t51 -11t51 11t37 29.5t22.5 41.5t7.5 47zM367 538h-109l75 130h135z" />
    <glyph glyph-name="ocircumflex" unicode="&#xf4;" horiz-adv-x="632" 
d="M592 251q0 -61 -22 -110.5t-60 -84t-88 -53.5t-107 -19q-56 0 -106.5 19t-88 53.5t-59.5 84t-22 110.5t22 110t59.5 83t88 52t106.5 18q57 0 107 -18t88 -52t60 -83t22 -110zM434 251q0 24 -8 47t-23 40.5t-37 28.5t-51 11t-51 -11t-36.5 -28.5t-22 -40.5t-7.5 -47
t7.5 -47t22.5 -41.5t37 -29.5t51 -11t51 11t37 29.5t22.5 41.5t7.5 47zM279 538h-114l96 130h120l96 -130h-113l-43 51z" />
    <glyph glyph-name="otilde" unicode="&#xf5;" horiz-adv-x="632" 
d="M592 251q0 -61 -22 -110.5t-60 -84t-88 -53.5t-107 -19q-56 0 -106.5 19t-88 53.5t-59.5 84t-22 110.5t22 110t59.5 83t88 52t106.5 18q57 0 107 -18t88 -52t60 -83t22 -110zM434 251q0 24 -8 47t-23 40.5t-37 28.5t-51 11t-51 -11t-36.5 -28.5t-22 -40.5t-7.5 -47
t7.5 -47t22.5 -41.5t37 -29.5t51 -11t51 11t37 29.5t22.5 41.5t7.5 47zM472 667q0 -24 -4.5 -46t-14.5 -38.5t-26.5 -26t-40.5 -9.5q-22 0 -40.5 5.5t-38.5 15.5l-16 8t-15 3q-14 0 -20.5 -8.5t-8.5 -22.5h-77q1 23 5.5 44.5t14.5 38t26 26t40 9.5q41 0 79 -20
q11 -5 18 -8.5t14 -3.5q14 0 20 8.5t9 24.5h76z" />
    <glyph glyph-name="odieresis" unicode="&#xf6;" horiz-adv-x="632" 
d="M592 251q0 -61 -22 -110.5t-60 -84t-88 -53.5t-107 -19q-56 0 -106.5 19t-88 53.5t-59.5 84t-22 110.5t22 110t59.5 83t88 52t106.5 18q57 0 107 -18t88 -52t60 -83t22 -110zM434 251q0 24 -8 47t-23 40.5t-37 28.5t-51 11t-51 -11t-36.5 -28.5t-22 -40.5t-7.5 -47
t7.5 -47t22.5 -41.5t37 -29.5t51 -11t51 11t37 29.5t22.5 41.5t7.5 47zM507 658q0 -35 -24.5 -58.5t-58.5 -23.5q-35 0 -59 24t-24 58q0 16 6.5 30.5t17.5 26t26 18t33 6.5q34 0 58.5 -23.5t24.5 -57.5zM290 658q0 -35 -24.5 -58.5t-59.5 -23.5t-59 24t-24 58q0 16 6.5 30.5
t17.5 26t26.5 18t32.5 6.5q35 0 59.5 -23.5t24.5 -57.5z" />
    <glyph glyph-name="divide" unicode="&#xf7;" horiz-adv-x="666" 
d="M246 489q0 17 7 32.5t19 27t27.5 18t33.5 6.5t33.5 -6.5t27 -18t18.5 -27t7 -32.5q0 -18 -7 -33.5t-18.5 -27t-27 -18t-33.5 -6.5t-33.5 6.5t-27.5 18t-19 27t-7 33.5zM246 117q0 17 7 32.5t19 27t27.5 18t33.5 6.5t33.5 -6.5t27 -18t18.5 -27t7 -32.5t-7 -32.5
t-18.5 -27t-27 -18.5t-33.5 -7t-33.5 7t-27.5 18.5t-19 27t-7 32.5zM79 240v127h507v-127h-507z" />
    <glyph glyph-name="oslash" unicode="&#xf8;" horiz-adv-x="632" 
d="M537 411q55 -64 55 -161q0 -60 -22 -109t-59.5 -84t-88 -54t-107.5 -19q-45 0 -85 12t-72 35l-75 -74l-59 58l72 71q-26 30 -41.5 72t-15.5 92q0 60 21.5 109t59 83.5t88 53.5t107.5 19q94 0 160 -49l72 72l60 -58zM372 365q-11 8 -26.5 13.5t-32.5 5.5q-29 0 -51.5 -11
t-38 -29t-23.5 -41.5t-8 -48.5q0 -15 3.5 -31t10.5 -26zM436 248q0 16 -3 31.5t-10 26.5l-167 -168q11 -10 27.5 -15t33.5 -5q29 0 51.5 11t37.5 29t22.5 41.5t7.5 48.5z" />
    <glyph glyph-name="ugrave" unicode="&#xf9;" horiz-adv-x="614" 
d="M392 0v69h-2q-9 -17 -23.5 -32t-34 -26t-43 -18t-49.5 -7q-50 0 -84.5 18t-56 46.5t-31 65t-9.5 74.5v308h165v-270q0 -21 3 -40t11.5 -34t22.5 -23.5t37 -8.5q43 0 65.5 32t22.5 75v269h164v-498h-158zM166 668h135l75 -130h-109z" />
    <glyph glyph-name="uacute" unicode="&#xfa;" horiz-adv-x="614" 
d="M392 0v69h-2q-9 -17 -23.5 -32t-34 -26t-43 -18t-49.5 -7q-50 0 -84.5 18t-56 46.5t-31 65t-9.5 74.5v308h165v-270q0 -21 3 -40t11.5 -34t22.5 -23.5t37 -8.5q43 0 65.5 32t22.5 75v269h164v-498h-158zM354 538h-109l75 130h135z" />
    <glyph glyph-name="ucircumflex" unicode="&#xfb;" horiz-adv-x="614" 
d="M392 0v69h-2q-9 -17 -23.5 -32t-34 -26t-43 -18t-49.5 -7q-50 0 -84.5 18t-56 46.5t-31 65t-9.5 74.5v308h165v-270q0 -21 3 -40t11.5 -34t22.5 -23.5t37 -8.5q43 0 65.5 32t22.5 75v269h164v-498h-158zM375 572l-68 81l-68 -81h-128l124 144h148l122 -144h-130z" />
    <glyph glyph-name="udieresis" unicode="&#xfc;" horiz-adv-x="614" 
d="M392 0v69h-2q-9 -17 -23.5 -32t-34 -26t-43 -18t-49.5 -7q-50 0 -84.5 18t-56 46.5t-31 65t-9.5 74.5v308h165v-270q0 -21 3 -40t11.5 -34t22.5 -23.5t37 -8.5q43 0 65.5 32t22.5 75v269h164v-498h-158zM499 658q0 -35 -24.5 -58.5t-58.5 -23.5q-35 0 -59 24t-24 58
q0 16 6.5 30.5t17.5 26t26 18t33 6.5q34 0 58.5 -23.5t24.5 -57.5zM282 658q0 -35 -24.5 -58.5t-59.5 -23.5t-59 24t-24 58q0 16 6.5 30.5t17.5 26t26.5 18t32.5 6.5q35 0 59.5 -23.5t24.5 -57.5z" />
    <glyph glyph-name="yacute" unicode="&#xfd;" horiz-adv-x="567" 
d="M345 -75q-15 -39 -33.5 -69.5t-44 -52t-60 -32.5t-81.5 -11q-23 0 -47.5 3t-42.5 8l18 138q12 -4 26.5 -6.5t26.5 -2.5q38 0 55 17.5t29 49.5l16 41l-208 490h182l111 -320h3l99 320h174zM337 538h-109l75 130h135z" />
    <glyph glyph-name="thorn" unicode="&#xfe;" horiz-adv-x="659" 
d="M619 251q0 -52 -16 -100t-46 -84.5t-74 -58.5t-101 -22q-46 0 -87.5 19t-63.5 51h-2v-296h-163v996h163v-311h3q21 25 58.5 46t93.5 21q54 0 97.5 -21t74 -57t47 -83.5t16.5 -99.5zM461 251q0 24 -7.5 47t-22.5 40.5t-37 28.5t-51 11q-28 0 -50 -11t-37.5 -29t-24 -41
t-8.5 -47t8.5 -47t24 -41t37.5 -29t50 -11q29 0 51 11t37 29t22.5 41.5t7.5 47.5z" />
    <glyph glyph-name="ydieresis" unicode="&#xff;" horiz-adv-x="567" 
d="M345 -75q-15 -39 -33.5 -69.5t-44 -52t-60 -32.5t-81.5 -11q-23 0 -47.5 3t-42.5 8l18 138q12 -4 26.5 -6.5t26.5 -2.5q38 0 55 17.5t29 49.5l16 41l-208 490h182l111 -320h3l99 320h174zM485 658q0 -35 -24.5 -58.5t-58.5 -23.5q-35 0 -59 24t-24 58q0 16 6.5 30.5
t17.5 26t26 18t33 6.5q34 0 58.5 -23.5t24.5 -57.5zM268 658q0 -35 -24.5 -58.5t-59.5 -23.5t-59 24t-24 58q0 16 6.5 30.5t17.5 26t26.5 18t32.5 6.5q35 0 59.5 -23.5t24.5 -57.5z" />
    <glyph glyph-name="Amacron" unicode="&#x100;" horiz-adv-x="729" 
d="M553 0l-55 139h-274l-52 -139h-186l297 708h166l294 -708h-190zM363 519l-90 -243h178zM196 793v86h336v-86h-336z" />
    <glyph glyph-name="amacron" unicode="&#x101;" horiz-adv-x="566" 
d="M358 217h-21q-27 0 -54.5 -2.5t-49 -9.5t-35.5 -20.5t-14 -35.5q0 -14 6.5 -24t16.5 -16t23 -8.5t25 -2.5q50 0 76.5 27.5t26.5 74.5v17zM57 430q44 42 102.5 63t119.5 21q63 0 106.5 -15.5t70.5 -48t39.5 -82t12.5 -117.5v-251h-150v53h-3q-19 -31 -57.5 -48t-83.5 -17
q-30 0 -62 8t-58.5 26t-43.5 48t-17 74q0 54 29.5 87t76 51t103.5 24t111 6v8q0 37 -26 54.5t-64 17.5q-35 0 -67.5 -15t-55.5 -36zM118 601v86h336v-86h-336z" />
    <glyph glyph-name="Abreve" unicode="&#x102;" horiz-adv-x="729" 
d="M553 0l-55 139h-274l-52 -139h-186l297 708h166l294 -708h-190zM363 519l-90 -243h178zM512 865q-1 -57 -34.5 -88.5t-113.5 -31.5q-79 0 -112.5 31.5t-34.5 88.5h105q2 -20 9.5 -29t32.5 -9q26 0 33 9t9 29h106z" />
    <glyph glyph-name="abreve" unicode="&#x103;" horiz-adv-x="566" 
d="M358 217h-21q-27 0 -54.5 -2.5t-49 -9.5t-35.5 -20.5t-14 -35.5q0 -14 6.5 -24t16.5 -16t23 -8.5t25 -2.5q50 0 76.5 27.5t26.5 74.5v17zM57 430q44 42 102.5 63t119.5 21q63 0 106.5 -15.5t70.5 -48t39.5 -82t12.5 -117.5v-251h-150v53h-3q-19 -31 -57.5 -48t-83.5 -17
q-30 0 -62 8t-58.5 26t-43.5 48t-17 74q0 54 29.5 87t76 51t103.5 24t111 6v8q0 37 -26 54.5t-64 17.5q-35 0 -67.5 -15t-55.5 -36zM448 655q-1 -57 -34.5 -88.5t-113.5 -31.5q-79 0 -112.5 31.5t-34.5 88.5h105q2 -20 9.5 -29t32.5 -9q26 0 33 9t9 29h106z" />
    <glyph glyph-name="Aogonek" unicode="&#x104;" horiz-adv-x="729" 
d="M680 -196q-23 -17 -53 -28.5t-62 -11.5q-20 0 -40.5 5t-36.5 16t-26 28.5t-10 41.5q0 21 9.5 41.5t24 39.5t32.5 35t36 29h-1l-55 139h-274l-52 -139h-186l297 708h166l294 -708h-97q-38 -30 -64 -61t-26 -57q0 -16 10.5 -26t26.5 -10q14 0 28 5.5t27 14.5zM363 519
l-90 -243h178z" />
    <glyph glyph-name="aogonek" unicode="&#x105;" horiz-adv-x="566" 
d="M480 -196q-23 -17 -53 -28.5t-62 -11.5q-20 0 -40.5 5t-36.5 16t-26 28.5t-10 41.5q0 22 10 43t25 40t34 35.5t37 28.5v51h-3q-19 -31 -57.5 -48t-83.5 -17q-30 0 -62 8t-58.5 26t-43.5 48t-17 74q0 54 29.5 87t76 51t103.5 24t111 6v8q0 37 -26 54.5t-64 17.5
q-35 0 -67.5 -15t-55.5 -36l-83 89q44 42 102.5 63t119.5 21q63 0 106.5 -15.5t70.5 -48t39.5 -82t12.5 -117.5v-251h-62q-38 -30 -64 -61t-26 -57q0 -16 10.5 -26t26.5 -10q14 0 28 5.5t27 14.5zM358 217h-21q-27 0 -54.5 -2.5t-49 -9.5t-35.5 -20.5t-14 -35.5
q0 -14 6.5 -24t16.5 -16t23 -8.5t25 -2.5q50 0 76.5 27.5t26.5 74.5v17z" />
    <glyph glyph-name="Cacute" unicode="&#x106;" horiz-adv-x="696" 
d="M696 98q-47 -54 -116 -85.5t-159 -31.5q-82 0 -151.5 27t-120.5 76.5t-80 118.5t-29 152q0 85 29.5 154t81.5 117.5t122 74.5t151 26q75 0 147.5 -26.5t117.5 -77.5l-116 -116q-24 33 -63 49t-80 16q-45 0 -82.5 -16.5t-64.5 -45.5t-42 -68.5t-15 -86.5q0 -48 15 -88
t41.5 -68.5t63.5 -44.5t81 -16q51 0 89 20t61 52zM453 764h-124l104 144h166z" />
    <glyph glyph-name="cacute" unicode="&#x107;" horiz-adv-x="503" 
d="M407 337q-14 18 -38 29t-49 11q-26 0 -47 -10.5t-36 -28t-23.5 -40.5t-8.5 -49t8 -49t23.5 -40.5t37 -27.5t48.5 -10q25 0 49.5 9.5t39.5 27.5l91 -111q-31 -30 -80 -47t-104 -17q-59 0 -110 18t-88.5 52.5t-59 83.5t-21.5 111q0 61 21.5 110t59 83.5t88.5 53t109 18.5
q27 0 53.5 -5t51 -13.5t45 -21t35.5 -27.5zM357 572h-124l104 144h166z" />
    <glyph glyph-name="Ccircumflex" unicode="&#x108;" horiz-adv-x="696" 
d="M696 98q-47 -54 -116 -85.5t-159 -31.5q-82 0 -151.5 27t-120.5 76.5t-80 118.5t-29 152q0 85 29.5 154t81.5 117.5t122 74.5t151 26q75 0 147.5 -26.5t117.5 -77.5l-116 -116q-24 33 -63 49t-80 16q-45 0 -82.5 -16.5t-64.5 -45.5t-42 -68.5t-15 -86.5q0 -48 15 -88
t41.5 -68.5t63.5 -44.5t81 -16q51 0 89 20t61 52zM495 764l-68 81l-68 -81h-128l124 144h148l122 -144h-130z" />
    <glyph glyph-name="ccircumflex" unicode="&#x109;" horiz-adv-x="503" 
d="M407 337q-14 18 -38 29t-49 11q-26 0 -47 -10.5t-36 -28t-23.5 -40.5t-8.5 -49t8 -49t23.5 -40.5t37 -27.5t48.5 -10q25 0 49.5 9.5t39.5 27.5l91 -111q-31 -30 -80 -47t-104 -17q-59 0 -110 18t-88.5 52.5t-59 83.5t-21.5 111q0 61 21.5 110t59 83.5t88.5 53t109 18.5
q27 0 53.5 -5t51 -13.5t45 -21t35.5 -27.5zM386 572l-68 81l-68 -81h-128l124 144h148l122 -144h-130z" />
    <glyph glyph-name="Cdotaccent" unicode="&#x10a;" horiz-adv-x="696" 
d="M696 98q-47 -54 -116 -85.5t-159 -31.5q-82 0 -151.5 27t-120.5 76.5t-80 118.5t-29 152q0 85 29.5 154t81.5 117.5t122 74.5t151 26q75 0 147.5 -26.5t117.5 -77.5l-116 -116q-24 33 -63 49t-80 16q-45 0 -82.5 -16.5t-64.5 -45.5t-42 -68.5t-15 -86.5q0 -48 15 -88
t41.5 -68.5t63.5 -44.5t81 -16q51 0 89 20t61 52zM515 849q0 -36 -26 -60.5t-64 -24.5t-63.5 25t-25.5 60t25.5 60.5t63.5 25.5t64 -25t26 -61z" />
    <glyph glyph-name="cdotaccent" unicode="&#x10b;" horiz-adv-x="503" 
d="M407 337q-14 18 -38 29t-49 11q-26 0 -47 -10.5t-36 -28t-23.5 -40.5t-8.5 -49t8 -49t23.5 -40.5t37 -27.5t48.5 -10q25 0 49.5 9.5t39.5 27.5l91 -111q-31 -30 -80 -47t-104 -17q-59 0 -110 18t-88.5 52.5t-59 83.5t-21.5 111q0 61 21.5 110t59 83.5t88.5 53t109 18.5
q27 0 53.5 -5t51 -13.5t45 -21t35.5 -27.5zM410 657q0 -36 -26 -60.5t-64 -24.5t-63.5 25t-25.5 60t25.5 60.5t63.5 25.5t64 -25t26 -61z" />
    <glyph glyph-name="Ccaron" unicode="&#x10c;" horiz-adv-x="696" 
d="M696 98q-47 -54 -116 -85.5t-159 -31.5q-82 0 -151.5 27t-120.5 76.5t-80 118.5t-29 152q0 85 29.5 154t81.5 117.5t122 74.5t151 26q75 0 147.5 -26.5t117.5 -77.5l-116 -116q-24 33 -63 49t-80 16q-45 0 -82.5 -16.5t-64.5 -45.5t-42 -68.5t-15 -86.5q0 -48 15 -88
t41.5 -68.5t63.5 -44.5t81 -16q51 0 89 20t61 52zM501 764h-147l-124 144h130l68 -81l68 81h128z" />
    <glyph glyph-name="ccaron" unicode="&#x10d;" horiz-adv-x="503" 
d="M407 337q-14 18 -38 29t-49 11q-26 0 -47 -10.5t-36 -28t-23.5 -40.5t-8.5 -49t8 -49t23.5 -40.5t37 -27.5t48.5 -10q25 0 49.5 9.5t39.5 27.5l91 -111q-31 -30 -80 -47t-104 -17q-59 0 -110 18t-88.5 52.5t-59 83.5t-21.5 111q0 61 21.5 110t59 83.5t88.5 53t109 18.5
q27 0 53.5 -5t51 -13.5t45 -21t35.5 -27.5zM391 572h-147l-124 144h130l68 -81l68 81h128z" />
    <glyph glyph-name="Dcaron" unicode="&#x10e;" horiz-adv-x="774" 
d="M734 356q0 -93 -34.5 -160.5t-91 -111t-127.5 -64t-144 -20.5h-264v708h256q75 0 148 -17.5t130 -58t92 -108.5t35 -168zM556 356q0 60 -19.5 99.5t-52 63t-74 33.5t-85.5 10h-85v-414h81q46 0 88.5 10.5t75 34.5t52 64t19.5 99zM431 764h-147l-124 144h130l68 -81l68 81
h128z" />
    <glyph glyph-name="dcaron" unicode="&#x10f;" horiz-adv-x="791" 
d="M441 0v65h-2q-24 -38 -68.5 -58.5t-94.5 -20.5q-56 0 -100 22t-74.5 58.5t-46.5 84.5t-16 100t16.5 99.5t47 83.5t74 57t97.5 21q55 0 93 -21t59 -46h2v311h164v-756h-151zM435 250q0 24 -8.5 47t-24 41t-37.5 29t-50 11q-29 0 -51 -11t-37 -28.5t-22.5 -40.5t-7.5 -47
t7.5 -47.5t22.5 -41.5t37 -29t51 -11q28 0 50 11t37.5 29t24 41t8.5 47zM746 513h-126l67 195h145z" />
    <glyph glyph-name="Dcroat" unicode="&#x110;" horiz-adv-x="774" 
d="M732 356q0 -92 -34 -159t-89 -111t-124 -65t-139 -21h-272v290h-53v124h53v294h273q75 0 145 -19.5t123 -62t85 -109.5t32 -161zM557 356q0 52 -16.5 90.5t-46.5 63.5t-71.5 37t-91.5 12h-90v-145h144v-124h-144v-140h74q52 0 96.5 11.5t76.5 36.5t50.5 64t18.5 94z" />
    <glyph glyph-name="dcroat" unicode="&#x111;" horiz-adv-x="658" 
d="M441 0v65h-2q-24 -38 -68.5 -58.5t-94.5 -20.5q-56 0 -100 22t-74.5 58.5t-46.5 84.5t-16 100t16.5 99.5t47 83.5t74 57t97.5 21q55 0 93 -21t59 -46h2v99h-149v106h149v106h164v-106h46v-106h-46v-544h-151zM435 250q0 24 -8.5 47t-24 41t-37.5 29t-50 11q-29 0 -51 -11
t-37 -28.5t-22.5 -40.5t-7.5 -47t7.5 -47.5t22.5 -41.5t37 -29t51 -11q28 0 50 11t37.5 29t24 41t8.5 47z" />
    <glyph glyph-name="Emacron" unicode="&#x112;" horiz-adv-x="607" 
d="M73 0v708h476v-145h-311v-133h294v-137h-294v-147h329v-146h-494zM142 793v86h336v-86h-336z" />
    <glyph glyph-name="emacron" unicode="&#x113;" horiz-adv-x="596" 
d="M407 306q0 39 -24.5 67t-73.5 28q-24 0 -44 -7.5t-35 -20.5t-24 -30.5t-10 -36.5h211zM558 243v-20t-1 -19h-361q2 -21 12.5 -38t27 -29.5t37 -19.5t42.5 -7q39 0 66 14.5t44 37.5l114 -72q-35 -51 -92.5 -78.5t-133.5 -27.5q-56 0 -106 17.5t-87.5 51t-59 82.5
t-21.5 112q0 61 21 110.5t57 84t85 53.5t106 19q55 0 101 -18.5t79 -53.5t51.5 -85t18.5 -114zM144 601v86h336v-86h-336z" />
    <glyph glyph-name="Ebreve" unicode="&#x114;" horiz-adv-x="607" 
d="M73 0v708h476v-145h-311v-133h294v-137h-294v-147h329v-146h-494zM484 908q-3 -39 -18 -66.5t-38 -44.5t-53.5 -25t-65.5 -8q-34 0 -64.5 7.5t-53.5 25t-37.5 45t-17.5 66.5h84q3 -16 11.5 -26.5t21 -17t27.5 -9t30 -2.5q34 0 58.5 10t31.5 45h84z" />
    <glyph glyph-name="ebreve" unicode="&#x115;" horiz-adv-x="596" 
d="M407 306q0 39 -24.5 67t-73.5 28q-24 0 -44 -7.5t-35 -20.5t-24 -30.5t-10 -36.5h211zM558 243v-20t-1 -19h-361q2 -21 12.5 -38t27 -29.5t37 -19.5t42.5 -7q39 0 66 14.5t44 37.5l114 -72q-35 -51 -92.5 -78.5t-133.5 -27.5q-56 0 -106 17.5t-87.5 51t-59 82.5
t-21.5 112q0 61 21 110.5t57 84t85 53.5t106 19q55 0 101 -18.5t79 -53.5t51.5 -85t18.5 -114zM486 716q-3 -39 -18 -66.5t-38 -44.5t-53.5 -25t-65.5 -8q-34 0 -64.5 7.5t-53.5 25t-37.5 45t-17.5 66.5h84q6 -29 32 -44q13 -6 28 -8.5t30 -2.5q34 0 58.5 10t31.5 45h84z
" />
    <glyph glyph-name="Edotaccent" unicode="&#x116;" horiz-adv-x="607" 
d="M73 0v708h476v-145h-311v-133h294v-137h-294v-147h329v-146h-494zM400 849q0 -36 -26 -60.5t-64 -24.5t-63.5 25t-25.5 60t25.5 60.5t63.5 25.5t64 -25t26 -61z" />
    <glyph glyph-name="edotaccent" unicode="&#x117;" horiz-adv-x="596" 
d="M407 306q0 39 -24.5 67t-73.5 28q-24 0 -44 -7.5t-35 -20.5t-24 -30.5t-10 -36.5h211zM558 243v-20t-1 -19h-361q2 -21 12.5 -38t27 -29.5t37 -19.5t42.5 -7q39 0 66 14.5t44 37.5l114 -72q-35 -51 -92.5 -78.5t-133.5 -27.5q-56 0 -106 17.5t-87.5 51t-59 82.5
t-21.5 112q0 61 21 110.5t57 84t85 53.5t106 19q55 0 101 -18.5t79 -53.5t51.5 -85t18.5 -114zM401 657q0 -36 -26 -60.5t-64 -24.5t-63.5 25t-25.5 60t25.5 60.5t63.5 25.5t64 -25t26 -61z" />
    <glyph glyph-name="Eogonek" unicode="&#x118;" horiz-adv-x="607" 
d="M584 -196q-23 -17 -53 -28.5t-62 -11.5q-20 0 -40.5 5t-36.5 16t-26 28.5t-10 41.5q0 21 9.5 41.5t24 39.5t32.5 35t36 29h-385v708h476v-145h-311v-133h294v-137h-294v-147h329v-146h-17q-38 -30 -64 -61t-26 -57q0 -16 10.5 -26t26.5 -10q14 0 28 5.5t27 14.5l32 -62v0
z" />
    <glyph glyph-name="eogonek" unicode="&#x119;" horiz-adv-x="596" 
d="M434 -196q-23 -17 -53 -28.5t-62 -11.5q-20 0 -40.5 5t-36.5 16t-26 28.5t-10 41.5q0 37 25.5 70.5t56.5 59.5q-52 3 -97.5 22t-79 52.5t-53 80.5t-19.5 107q0 61 21 110.5t57 84t85 53.5t106 19q55 0 101 -18.5t79 -53.5t51.5 -85t18.5 -114v-20t-1 -19h-361
q2 -21 12.5 -38t27 -29.5t37 -19.5t42.5 -7q39 0 66 14.5t44 37.5l114 -72q-51 -76 -149 -97q-34 -29 -57 -57.5t-23 -53.5q0 -16 10.5 -26t26.5 -10q14 0 28 5.5t27 14.5zM407 306q0 39 -24.5 67t-73.5 28q-24 0 -44 -7.5t-35 -20.5t-24 -30.5t-10 -36.5h211z" />
    <glyph glyph-name="Ecaron" unicode="&#x11a;" horiz-adv-x="607" 
d="M73 0v708h476v-145h-311v-133h294v-137h-294v-147h329v-146h-494zM385 764h-147l-124 144h130l68 -81l68 81h128z" />
    <glyph glyph-name="ecaron" unicode="&#x11b;" horiz-adv-x="596" 
d="M407 306q0 39 -24.5 67t-73.5 28q-24 0 -44 -7.5t-35 -20.5t-24 -30.5t-10 -36.5h211zM558 243v-20t-1 -19h-361q2 -21 12.5 -38t27 -29.5t37 -19.5t42.5 -7q39 0 66 14.5t44 37.5l114 -72q-35 -51 -92.5 -78.5t-133.5 -27.5q-56 0 -106 17.5t-87.5 51t-59 82.5
t-21.5 112q0 61 21 110.5t57 84t85 53.5t106 19q55 0 101 -18.5t79 -53.5t51.5 -85t18.5 -114zM386 572h-147l-124 144h130l68 -81l68 81h128z" />
    <glyph glyph-name="Gcircumflex" unicode="&#x11c;" horiz-adv-x="769" 
d="M702 43q-52 -27 -121.5 -44t-151.5 -17q-85 0 -156.5 27t-123 76t-80.5 117.5t-29 152.5q0 85 29.5 154t81.5 117.5t122 74.5t151 26q84 0 156 -25.5t117 -68.5l-108 -123q-25 29 -66 47.5t-93 18.5q-45 0 -83 -16.5t-66 -46t-43.5 -70t-15.5 -88.5q0 -49 14 -90
t41.5 -70.5t68 -46t92.5 -16.5q30 0 57 4.5t50 14.5v129h-135v138h292v-375zM499 764l-68 81l-68 -81h-128l124 144h148l122 -144h-130z" />
    <glyph glyph-name="gcircumflex" unicode="&#x11d;" horiz-adv-x="658" 
d="M592 47q0 -73 -21 -127t-59 -89.5t-92.5 -53t-120.5 -17.5t-135.5 20t-120.5 58l82 117q36 -32 79.5 -47.5t85.5 -15.5q72 0 106.5 38t34.5 101v30h-3q-23 -30 -62 -48t-89 -18q-57 0 -101 20.5t-74.5 55.5t-46.5 81.5t-16 98.5t16 99t46.5 83t74.5 57.5t100 21.5
q47 0 90 -19t69 -59h2v64h155v-451zM436 252q0 25 -8.5 48t-24.5 40.5t-38 27.5t-50 10t-49.5 -10t-36.5 -27t-23 -40t-8 -49q0 -25 8 -48t23 -40.5t36.5 -28t49.5 -10.5t50.5 10.5t38 27.5t24 40t8.5 49zM387 572l-68 81l-68 -81h-128l124 144h148l122 -144h-130z" />
    <glyph glyph-name="Gbreve" unicode="&#x11e;" horiz-adv-x="769" 
d="M702 43q-52 -27 -121.5 -44t-151.5 -17q-85 0 -156.5 27t-123 76t-80.5 117.5t-29 152.5q0 85 29.5 154t81.5 117.5t122 74.5t151 26q84 0 156 -25.5t117 -68.5l-108 -123q-25 29 -66 47.5t-93 18.5q-45 0 -83 -16.5t-66 -46t-43.5 -70t-15.5 -88.5q0 -49 14 -90
t41.5 -70.5t68 -46t92.5 -16.5q30 0 57 4.5t50 14.5v129h-135v138h292v-375zM610 908q-3 -39 -18 -66.5t-38 -44.5t-53.5 -25t-65.5 -8q-34 0 -64.5 7.5t-53.5 25t-37.5 45t-17.5 66.5h84q3 -16 11.5 -26.5t21 -17t27.5 -9t30 -2.5q34 0 58.5 10t31.5 45h84z" />
    <glyph glyph-name="gbreve" unicode="&#x11f;" horiz-adv-x="658" 
d="M592 47q0 -73 -21 -127t-59 -89.5t-92.5 -53t-120.5 -17.5t-135.5 20t-120.5 58l82 117q36 -32 79.5 -47.5t85.5 -15.5q72 0 106.5 38t34.5 101v30h-3q-23 -30 -62 -48t-89 -18q-57 0 -101 20.5t-74.5 55.5t-46.5 81.5t-16 98.5t16 99t46.5 83t74.5 57.5t100 21.5
q47 0 90 -19t69 -59h2v64h155v-451zM436 252q0 25 -8.5 48t-24.5 40.5t-38 27.5t-50 10t-49.5 -10t-36.5 -27t-23 -40t-8 -49q0 -25 8 -48t23 -40.5t36.5 -28t49.5 -10.5t50.5 10.5t38 27.5t24 40t8.5 49zM499 716q-3 -39 -18 -66.5t-38 -44.5t-53.5 -25t-65.5 -8
q-34 0 -64.5 7.5t-53.5 25t-37.5 45t-17.5 66.5h84q6 -29 32 -44q13 -6 28 -8.5t30 -2.5q34 0 58.5 10t31.5 45h84z" />
    <glyph glyph-name="Gdotaccent" unicode="&#x120;" horiz-adv-x="769" 
d="M702 43q-52 -27 -121.5 -44t-151.5 -17q-85 0 -156.5 27t-123 76t-80.5 117.5t-29 152.5q0 85 29.5 154t81.5 117.5t122 74.5t151 26q84 0 156 -25.5t117 -68.5l-108 -123q-25 29 -66 47.5t-93 18.5q-45 0 -83 -16.5t-66 -46t-43.5 -70t-15.5 -88.5q0 -49 14 -90
t41.5 -70.5t68 -46t92.5 -16.5q30 0 57 4.5t50 14.5v129h-135v138h292v-375zM521 849q0 -36 -26 -60.5t-64 -24.5t-63.5 25t-25.5 60t25.5 60.5t63.5 25.5t64 -25t26 -61z" />
    <glyph glyph-name="gdotaccent" unicode="&#x121;" horiz-adv-x="658" 
d="M592 47q0 -73 -21 -127t-59 -89.5t-92.5 -53t-120.5 -17.5t-135.5 20t-120.5 58l82 117q36 -32 79.5 -47.5t85.5 -15.5q72 0 106.5 38t34.5 101v30h-3q-23 -30 -62 -48t-89 -18q-57 0 -101 20.5t-74.5 55.5t-46.5 81.5t-16 98.5t16 99t46.5 83t74.5 57.5t100 21.5
q47 0 90 -19t69 -59h2v64h155v-451zM436 252q0 25 -8.5 48t-24.5 40.5t-38 27.5t-50 10t-49.5 -10t-36.5 -27t-23 -40t-8 -49q0 -25 8 -48t23 -40.5t36.5 -28t49.5 -10.5t50.5 10.5t38 27.5t24 40t8.5 49zM411 657q0 -36 -26 -60.5t-64 -24.5t-63.5 25t-25.5 60t25.5 60.5
t63.5 25.5t64 -25t26 -61z" />
    <glyph glyph-name="Gcommaaccent" unicode="&#x122;" horiz-adv-x="769" 
d="M702 43q-52 -27 -121.5 -44t-151.5 -17q-85 0 -156.5 27t-123 76t-80.5 117.5t-29 152.5q0 85 29.5 154t81.5 117.5t122 74.5t151 26q84 0 156 -25.5t117 -68.5l-108 -123q-25 29 -66 47.5t-93 18.5q-45 0 -83 -16.5t-66 -46t-43.5 -70t-15.5 -88.5q0 -49 14 -90
t41.5 -70.5t68 -46t92.5 -16.5q30 0 57 4.5t50 14.5v129h-135v138h292v-375zM420 -240h-126l67 195h145z" />
    <glyph glyph-name="gcommaaccent" unicode="&#x123;" horiz-adv-x="658" 
d="M592 47q0 -73 -21 -127t-59 -89.5t-92.5 -53t-120.5 -17.5t-135.5 20t-120.5 58l82 117q36 -32 79.5 -47.5t85.5 -15.5q72 0 106.5 38t34.5 101v30h-3q-23 -30 -62 -48t-89 -18q-57 0 -101 20.5t-74.5 55.5t-46.5 81.5t-16 98.5t16 99t46.5 83t74.5 57.5t100 21.5
q47 0 90 -19t69 -59h2v64h155v-451zM436 252q0 25 -8.5 48t-24.5 40.5t-38 27.5t-50 10t-49.5 -10t-36.5 -27t-23 -40t-8 -49q0 -25 8 -48t23 -40.5t36.5 -28t49.5 -10.5t50.5 10.5t38 27.5t24 40t8.5 49zM333 767h126l-67 -195h-145z" />
    <glyph glyph-name="Hcircumflex" unicode="&#x124;" horiz-adv-x="764" 
d="M520 0v296h-276v-296h-171v708h171v-268h276v268h171v-708h-171zM452 764l-68 81l-68 -81h-128l124 144h148l122 -144h-130z" />
    <glyph glyph-name="hcircumflex" unicode="&#x125;" horiz-adv-x="617" 
d="M392 0v270q0 21 -3 40t-11.5 33.5t-22.5 23t-36 8.5q-43 0 -66 -30.5t-23 -75.5v-269h-164v756h164v-321h2q17 30 54 53.5t89 23.5q51 0 85.5 -18t56 -46.5t31 -65.5t9.5 -74v-308h-165zM382 796l-68 81l-68 -81h-128l124 144h148l122 -144h-130z" />
    <glyph glyph-name="Hbar" unicode="&#x126;" horiz-adv-x="764" 
d="M520 0v296h-276v-296h-171v708h171v-119h276v119h171v-708h-171zM520 440v60h-276v-60h276z" />
    <glyph glyph-name="hbar" unicode="&#x127;" horiz-adv-x="617" 
d="M392 0v270q0 21 -3 40t-11.5 33.5t-22.5 23t-36 8.5q-43 0 -66 -30.5t-23 -75.5v-269h-164v570h-46v89h46v97h164v-97h149v-89h-149v-135h2q17 30 54 53.5t89 23.5q51 0 85.5 -18t56 -46.5t31 -65.5t9.5 -74v-308h-165z" />
    <glyph glyph-name="Itilde" unicode="&#x128;" horiz-adv-x="318" 
d="M73 0v708h172v-708h-172zM311 871q0 -24 -4.5 -46t-14.5 -38.5t-26.5 -26t-40.5 -9.5q-22 0 -40.5 5.5t-38.5 15.5l-16 8t-15 3q-14 0 -20.5 -8.5t-8.5 -22.5h-77q1 23 5.5 44.5t14.5 38t26 26t40 9.5q41 0 79 -20q11 -5 18 -8.5t14 -3.5q14 0 20 8.5t9 24.5h76z" />
    <glyph glyph-name="itilde" unicode="&#x129;" horiz-adv-x="296" 
d="M66 0v498h164v-498h-164zM297 667q0 -24 -4.5 -46t-14.5 -38.5t-26.5 -26t-40.5 -9.5q-22 0 -40.5 5.5t-38.5 15.5l-16 8t-15 3q-14 0 -20.5 -8.5t-8.5 -22.5h-77q1 23 5.5 44.5t14.5 38t26 26t40 9.5q41 0 79 -20q11 -5 18 -8.5t14 -3.5q14 0 20 8.5t9 24.5h76z" />
    <glyph glyph-name="Imacron" unicode="&#x12a;" horiz-adv-x="318" 
d="M73 0v708h172v-708h-172zM-10 793v86h336v-86h-336z" />
    <glyph glyph-name="imacron" unicode="&#x12b;" horiz-adv-x="296" 
d="M66 0v498h164v-498h-164zM-18 601v86h336v-86h-336z" />
    <glyph glyph-name="Ibreve" unicode="&#x12c;" horiz-adv-x="318" 
d="M73 0v708h172v-708h-172zM333 908q-3 -39 -18 -66.5t-38 -44.5t-53.5 -25t-65.5 -8q-34 0 -64.5 7.5t-53.5 25t-37.5 45t-17.5 66.5h84q3 -16 11.5 -26.5t21 -17t27.5 -9t30 -2.5q34 0 58.5 10t31.5 45h84z" />
    <glyph glyph-name="ibreve" unicode="&#x12d;" horiz-adv-x="296" 
d="M66 0v498h164v-498h-164zM322 716q-3 -39 -18 -66.5t-38 -44.5t-53.5 -25t-65.5 -8q-34 0 -64.5 7.5t-53.5 25t-37.5 45t-17.5 66.5h84q6 -29 32 -44q13 -6 28 -8.5t30 -2.5q34 0 58.5 10t31.5 45h84z" />
    <glyph glyph-name="Iogonek" unicode="&#x12e;" horiz-adv-x="318" 
d="M268 -196q-23 -17 -53 -28.5t-62 -11.5q-20 0 -40.5 5t-36.5 16t-26 28.5t-10 41.5q0 21 9.5 41.5t24 39.5t32.5 35t36 29h-69v708h172v-708h-11q-38 -30 -64 -61t-26 -57q0 -16 10.5 -26t26.5 -10q14 0 28 5.5t27 14.5l32 -62v0z" />
    <glyph glyph-name="iogonek" unicode="&#x12f;" horiz-adv-x="296" 
d="M249 -196q-23 -17 -53 -28.5t-62 -11.5q-20 0 -40.5 5t-36.5 16t-26 28.5t-10 41.5q0 21 9.5 41.5t24 39.5t32.5 35t36 29h-57v498h164v-498h-15q-38 -30 -64 -61t-26 -57q0 -16 10.5 -26t26.5 -10q14 0 28 5.5t27 14.5zM242 657q0 -19 -7.5 -35.5t-20 -28.5t-30 -19
t-36.5 -7q-40 0 -67 26.5t-27 63.5q0 18 7 34.5t20 28.5t30 19.5t37 7.5q19 0 36.5 -7t30 -19t20 -28.5t7.5 -35.5z" />
    <glyph glyph-name="Idotaccent" unicode="&#x130;" horiz-adv-x="318" 
d="M73 0v708h172v-708h-172zM249 849q0 -36 -26 -60.5t-64 -24.5t-63.5 25t-25.5 60t25.5 60.5t63.5 25.5t64 -25t26 -61z" />
    <glyph glyph-name="dotlessi" unicode="&#x131;" horiz-adv-x="296" 
d="M66 0v498h164v-498h-164z" />
    <glyph glyph-name="IJ" unicode="&#x132;" horiz-adv-x="837" 
d="M73 0v708h172v-708h-172zM768 242q0 -42 -9.5 -88t-35 -84.5t-71 -63.5t-117.5 -25q-90 0 -150 46.5t-80 119.5l151 51q7 -28 25.5 -45t45.5 -17q42 0 55.5 29t13.5 76v467h172v-466z" />
    <glyph glyph-name="ij" unicode="&#x133;" horiz-adv-x="589" 
d="M242 657q0 -19 -7.5 -35.5t-20 -28.5t-30 -19t-36.5 -7q-40 0 -67 26.5t-27 63.5q0 18 7 34.5t20 28.5t30 19.5t37 7.5q19 0 36.5 -7t30 -19t20 -28.5t7.5 -35.5zM66 0v498h164v-498h-164zM535 657q0 -19 -7.5 -35.5t-20 -28.5t-30 -19t-36.5 -7q-40 0 -67 26.5t-27 63.5
q0 18 7 34.5t20 28.5t30 19.5t37 7.5q19 0 36.5 -7t30 -19t20 -28.5t7.5 -35.5zM523 -13q0 -46 -8.5 -87.5t-30.5 -72.5t-61 -49t-99 -18q-17 0 -37 2t-34 6l11 137q9 -3 18.5 -4t16.5 -1q36 0 48 24.5t12 62.5v511h164v-511z" />
    <glyph glyph-name="Jcircumflex" unicode="&#x134;" horiz-adv-x="529" 
d="M460 242q0 -42 -9.5 -88t-35 -84.5t-71 -63.5t-117.5 -25q-90 0 -150 46.5t-80 119.5l151 51q7 -28 25.5 -45t45.5 -17q42 0 55.5 29t13.5 76v467h172v-466zM440 764l-68 81l-68 -81h-128l124 144h148l122 -144h-130z" />
    <glyph glyph-name="jcircumflex" unicode="&#x135;" horiz-adv-x="299" 
d="M233 -13q0 -46 -8.5 -87.5t-30.5 -72.5t-61 -49t-99 -18q-17 0 -37 2t-34 6l11 137q9 -3 18.5 -4t16.5 -1q36 0 48 24.5t12 62.5v511h164v-511zM216 572l-68 81l-68 -81h-128l124 144h148l122 -144h-130z" />
    <glyph glyph-name="Kcommaaccent" unicode="&#x136;" horiz-adv-x="711" 
d="M506 0l-263 326h-2v-326h-168v708h168v-288h3l253 288h214l-305 -326l323 -382h-223zM357 -240h-126l67 195h145z" />
    <glyph glyph-name="kcommaaccent" unicode="&#x137;" horiz-adv-x="595" 
d="M599 0h-203l-163 239h-3v-239h-165v756h165v-460h3l159 202h199l-192 -225zM299 -240h-126l67 195h145z" />
    <glyph glyph-name="kgreenlandic" unicode="&#x138;" horiz-adv-x="595" 
d="M599 0h-203l-163 239h-3v-239h-165v498h165v-202h3l159 202h199l-192 -225z" />
    <glyph glyph-name="Lacute" unicode="&#x139;" horiz-adv-x="526" 
d="M73 0v708h172v-559h274v-149h-446zM219 764h-124l104 144h166z" />
    <glyph glyph-name="lacute" unicode="&#x13a;" horiz-adv-x="298" 
d="M66 0v756h166v-756h-166zM190 792h-124l104 144h166z" />
    <glyph glyph-name="Lcommaaccent" unicode="&#x13b;" horiz-adv-x="526" 
d="M73 0v708h172v-559h274v-149h-446zM280 -240h-126l67 195h145z" />
    <glyph glyph-name="lcommaaccent" unicode="&#x13c;" horiz-adv-x="298" 
d="M66 0v756h166v-756h-166zM137 -240h-126l67 195h145z" />
    <glyph glyph-name="Lcaron" unicode="&#x13d;" horiz-adv-x="526" 
d="M73 0v708h172v-559h274v-149h-446zM400 513h-126l67 195h145z" />
    <glyph glyph-name="lcaron" unicode="&#x13e;" horiz-adv-x="432" 
d="M66 0v756h166v-756h-166zM387 513h-126l67 195h145z" />
    <glyph glyph-name="Ldot" unicode="&#x13f;" horiz-adv-x="526" 
d="M73 0v708h172v-559h274v-149h-446zM478 437q0 -36 -26 -60.5t-64 -24.5t-63.5 25t-25.5 60t25.5 60.5t63.5 25.5t64 -25t26 -61z" />
    <glyph glyph-name="ldot" unicode="&#x140;" horiz-adv-x="448" 
d="M66 0v756h166v-756h-166zM448 467q0 -36 -26 -60.5t-64 -24.5t-63.5 25t-25.5 60t25.5 60.5t63.5 25.5t64 -25t26 -61z" />
    <glyph glyph-name="Lslash" unicode="&#x141;" horiz-adv-x="526" 
d="M73 0v177l-64 -56v142l64 56v389h172v-262l191 167v-141l-191 -167v-156h274v-149h-446z" />
    <glyph glyph-name="lslash" unicode="&#x142;" horiz-adv-x="298" 
d="M232 398v-398h-166v267l-58 -56v143l58 57v345h166v-217l58 57v-142z" />
    <glyph glyph-name="Nacute" unicode="&#x143;" horiz-adv-x="790" 
d="M523 0l-285 463h-3l4 -463h-166v708h195l284 -462h3l-4 462h166v-708h-194zM442 764h-124l104 144h166z" />
    <glyph glyph-name="nacute" unicode="&#x144;" horiz-adv-x="616" 
d="M391 0v272q0 21 -3.5 40t-11.5 33.5t-22.5 23t-36.5 8.5t-38.5 -8.5t-27.5 -23.5t-16.5 -34.5t-5.5 -40.5v-270h-165v498h159v-69h2q9 16 23.5 31.5t34 26.5t42.5 18t49 7q50 0 85 -18t56.5 -46.5t31 -65.5t9.5 -74v-308h-165zM338 572h-124l104 144h166z" />
    <glyph glyph-name="Ncommaaccent" unicode="&#x145;" horiz-adv-x="790" 
d="M523 0l-285 463h-3l4 -463h-166v708h195l284 -462h3l-4 462h166v-708h-194zM379 -240h-126l67 195h145z" />
    <glyph glyph-name="ncommaaccent" unicode="&#x146;" horiz-adv-x="616" 
d="M391 0v272q0 21 -3.5 40t-11.5 33.5t-22.5 23t-36.5 8.5t-38.5 -8.5t-27.5 -23.5t-16.5 -34.5t-5.5 -40.5v-270h-165v498h159v-69h2q9 16 23.5 31.5t34 26.5t42.5 18t49 7q50 0 85 -18t56.5 -46.5t31 -65.5t9.5 -74v-308h-165zM293 -240h-126l67 195h145z" />
    <glyph glyph-name="Ncaron" unicode="&#x147;" horiz-adv-x="790" 
d="M523 0l-285 463h-3l4 -463h-166v708h195l284 -462h3l-4 462h166v-708h-194zM472 764h-147l-124 144h130l68 -81l68 81h128z" />
    <glyph glyph-name="ncaron" unicode="&#x148;" horiz-adv-x="616" 
d="M391 0v272q0 21 -3.5 40t-11.5 33.5t-22.5 23t-36.5 8.5t-38.5 -8.5t-27.5 -23.5t-16.5 -34.5t-5.5 -40.5v-270h-165v498h159v-69h2q9 16 23.5 31.5t34 26.5t42.5 18t49 7q50 0 85 -18t56.5 -46.5t31 -65.5t9.5 -74v-308h-165zM384 572h-147l-124 144h130l68 -81l68 81
h128z" />
    <glyph glyph-name="Eng" unicode="&#x14a;" horiz-adv-x="790" 
d="M717 -13q0 -46 -8.5 -87.5t-30.5 -72.5t-61 -49t-99 -18q-17 0 -37 2t-34 6l11 137q9 -3 18.5 -4t16.5 -1q36 0 48 24.5t12 62.5v5l-315 471h-3l4 -463h-166v708h195l284 -433h3l-4 433h166v-721v0z" />
    <glyph glyph-name="eng" unicode="&#x14b;" horiz-adv-x="616" 
d="M556 -13q0 -46 -8.5 -87.5t-30.5 -72.5t-61 -49t-99 -18q-17 0 -37 2t-34 6l11 137q9 -3 18.5 -4t16.5 -1q36 0 47.5 24.5t11.5 62.5v285q0 21 -3.5 40t-11.5 33.5t-22.5 23t-36.5 8.5t-38.5 -8.5t-27.5 -23.5t-16.5 -34.5t-5.5 -40.5v-270h-165v498h159v-69h2
q9 16 23.5 31.5t34 26.5t42.5 18t49 7q50 0 85 -18t56.5 -46.5t31 -65.5t9.5 -74v-321v0z" />
    <glyph glyph-name="Omacron" unicode="&#x14c;" horiz-adv-x="851" 
d="M811 357q0 -84 -29 -153.5t-80.5 -119t-122.5 -76.5t-154 -27t-153.5 27t-122 76.5t-80.5 119t-29 153.5q0 85 29 153.5t80.5 116.5t122 74t153.5 26t154 -26t122.5 -74t80.5 -116.5t29 -153.5zM628 357q0 46 -15 86t-41.5 68.5t-64 45t-82.5 16.5t-82 -16.5t-64 -45
t-41.5 -68.5t-14.5 -86q0 -48 15 -88.5t41.5 -69.5t63.5 -45.5t82 -16.5t82 16.5t64 45.5t42 69.5t15 88.5zM255 793v86h336v-86h-336z" />
    <glyph glyph-name="omacron" unicode="&#x14d;" horiz-adv-x="632" 
d="M592 251q0 -61 -22 -110.5t-60 -84t-88 -53.5t-107 -19q-56 0 -106.5 19t-88 53.5t-59.5 84t-22 110.5t22 110t59.5 83t88 52t106.5 18q57 0 107 -18t88 -52t60 -83t22 -110zM434 251q0 24 -8 47t-23 40.5t-37 28.5t-51 11t-51 -11t-36.5 -28.5t-22 -40.5t-7.5 -47
t7.5 -47t22.5 -41.5t37 -29.5t51 -11t51 11t37 29.5t22.5 41.5t7.5 47zM147 601v86h336v-86h-336z" />
    <glyph glyph-name="Obreve" unicode="&#x14e;" horiz-adv-x="851" 
d="M811 357q0 -84 -29 -153.5t-80.5 -119t-122.5 -76.5t-154 -27t-153.5 27t-122 76.5t-80.5 119t-29 153.5q0 85 29 153.5t80.5 116.5t122 74t153.5 26t154 -26t122.5 -74t80.5 -116.5t29 -153.5zM628 357q0 46 -15 86t-41.5 68.5t-64 45t-82.5 16.5t-82 -16.5t-64 -45
t-41.5 -68.5t-14.5 -86q0 -48 15 -88.5t41.5 -69.5t63.5 -45.5t82 -16.5t82 16.5t64 45.5t42 69.5t15 88.5zM598 908q-3 -39 -18 -66.5t-38 -44.5t-53.5 -25t-65.5 -8q-34 0 -64.5 7.5t-53.5 25t-37.5 45t-17.5 66.5h84q3 -16 11.5 -26.5t21 -17t27.5 -9t30 -2.5
q34 0 58.5 10t31.5 45h84z" />
    <glyph glyph-name="obreve" unicode="&#x14f;" horiz-adv-x="632" 
d="M592 251q0 -61 -22 -110.5t-60 -84t-88 -53.5t-107 -19q-56 0 -106.5 19t-88 53.5t-59.5 84t-22 110.5t22 110t59.5 83t88 52t106.5 18q57 0 107 -18t88 -52t60 -83t22 -110zM434 251q0 24 -8 47t-23 40.5t-37 28.5t-51 11t-51 -11t-36.5 -28.5t-22 -40.5t-7.5 -47
t7.5 -47t22.5 -41.5t37 -29.5t51 -11t51 11t37 29.5t22.5 41.5t7.5 47zM488 716q-3 -39 -18 -66.5t-38 -44.5t-53.5 -25t-65.5 -8q-34 0 -64.5 7.5t-53.5 25t-37.5 45t-17.5 66.5h84q6 -29 32 -44q13 -6 28 -8.5t30 -2.5q34 0 58.5 10t31.5 45h84z" />
    <glyph glyph-name="Ohungarumlaut" unicode="&#x150;" horiz-adv-x="851" 
d="M811 357q0 -84 -29 -153.5t-80.5 -119t-122.5 -76.5t-154 -27t-153.5 27t-122 76.5t-80.5 119t-29 153.5q0 85 29 153.5t80.5 116.5t122 74t153.5 26t154 -26t122.5 -74t80.5 -116.5t29 -153.5zM628 357q0 46 -15 86t-41.5 68.5t-64 45t-82.5 16.5t-82 -16.5t-64 -45
t-41.5 -68.5t-14.5 -86q0 -48 15 -88.5t41.5 -69.5t63.5 -45.5t82 -16.5t82 16.5t64 45.5t42 69.5t15 88.5zM589 764h-124l104 144h166zM369 764h-124l104 144h166z" />
    <glyph glyph-name="ohungarumlaut" unicode="&#x151;" horiz-adv-x="632" 
d="M592 251q0 -61 -22 -110.5t-60 -84t-88 -53.5t-107 -19q-56 0 -106.5 19t-88 53.5t-59.5 84t-22 110.5t22 110t59.5 83t88 52t106.5 18q57 0 107 -18t88 -52t60 -83t22 -110zM434 251q0 24 -8 47t-23 40.5t-37 28.5t-51 11t-51 -11t-36.5 -28.5t-22 -40.5t-7.5 -47
t7.5 -47t22.5 -41.5t37 -29.5t51 -11t51 11t37 29.5t22.5 41.5t7.5 47zM487 572h-124l104 144h166zM267 572h-124l104 144h166z" />
    <glyph glyph-name="OE" unicode="&#x152;" horiz-adv-x="1019" 
d="M442 0q-75 0 -147 19.5t-129 62t-91.5 110t-34.5 163.5q0 97 34.5 164.5t91.5 109.5t129 60.5t147 18.5h520v-145h-298v-133h281v-137h-281v-147h315v-146h-537zM501 563h-46q-45 0 -87 -10t-74.5 -34t-52 -64.5t-19.5 -102.5q0 -57 19.5 -96t52 -63.5t73.5 -35.5t84 -11
h50v417z" />
    <glyph glyph-name="oe" unicode="&#x153;" horiz-adv-x="973" 
d="M198 251q0 -24 7.5 -47.5t22 -41.5t36.5 -29t51 -11t51 11t37 29t22.5 41.5t7.5 47.5t-7.5 46.5t-22.5 40.5t-37 29t-51 11t-51 -11t-36.5 -29t-22 -40.5t-7.5 -46.5zM784 306q0 39 -24.5 67t-73.5 28q-24 0 -44 -7.5t-35 -20.5t-24 -30.5t-10 -36.5h211zM915 90
q-35 -51 -92 -78.5t-133 -27.5q-63 0 -113 23t-78 60q-29 -38 -76.5 -60.5t-109.5 -22.5q-57 0 -106.5 18.5t-87 53.5t-59 84t-21.5 111q0 61 21.5 109.5t59 82.5t87 52.5t106.5 18.5q61 0 110 -24.5t77 -62.5q31 37 78.5 62t108.5 25q54 0 99.5 -18.5t78.5 -53.5t51.5 -85
t18.5 -114v-20t-1 -19h-361q3 -21 13.5 -38.5t26.5 -29.5t36.5 -19t42.5 -7q39 0 66 14.5t44 37.5z" />
    <glyph glyph-name="Racute" unicode="&#x154;" horiz-adv-x="663" 
d="M452 0l-153 281h-58v-281h-168v708h270q51 0 99.5 -10.5t87 -35.5t61.5 -66t23 -102q0 -72 -39 -121t-108 -70l185 -303h-200zM445 491q0 25 -10.5 40.5t-27 24t-37 11.5t-39.5 3h-91v-165h81q21 0 43 3.5t40 12.5t29.5 26t11.5 44zM350 764h-124l104 144h166z" />
    <glyph glyph-name="racute" unicode="&#x155;" horiz-adv-x="396" 
d="M387 364q-11 3 -21.5 4t-20.5 1q-33 0 -55.5 -12t-36 -29t-19.5 -37t-6 -35v-256h-164v498h158v-72h2q19 38 54 62t81 24q10 0 19.5 -1t15.5 -3zM231 572h-124l104 144h166z" />
    <glyph glyph-name="Rcommaaccent" unicode="&#x156;" horiz-adv-x="663" 
d="M452 0l-153 281h-58v-281h-168v708h270q51 0 99.5 -10.5t87 -35.5t61.5 -66t23 -102q0 -72 -39 -121t-108 -70l185 -303h-200zM445 491q0 25 -10.5 40.5t-27 24t-37 11.5t-39.5 3h-91v-165h81q21 0 43 3.5t40 12.5t29.5 26t11.5 44zM327 -240h-126l67 195h145z" />
    <glyph glyph-name="rcommaaccent" unicode="&#x157;" horiz-adv-x="396" 
d="M387 364q-11 3 -21.5 4t-20.5 1q-33 0 -55.5 -12t-36 -29t-19.5 -37t-6 -35v-256h-164v498h158v-72h2q19 38 54 62t81 24q10 0 19.5 -1t15.5 -3zM138 -241h-126l67 195h145z" />
    <glyph glyph-name="Rcaron" unicode="&#x158;" horiz-adv-x="663" 
d="M452 0l-153 281h-58v-281h-168v708h270q51 0 99.5 -10.5t87 -35.5t61.5 -66t23 -102q0 -72 -39 -121t-108 -70l185 -303h-200zM445 491q0 25 -10.5 40.5t-27 24t-37 11.5t-39.5 3h-91v-165h81q21 0 43 3.5t40 12.5t29.5 26t11.5 44zM394 764h-147l-124 144h130l68 -81
l68 81h128z" />
    <glyph glyph-name="rcaron" unicode="&#x159;" horiz-adv-x="396" 
d="M387 364q-11 3 -21.5 4t-20.5 1q-33 0 -55.5 -12t-36 -29t-19.5 -37t-6 -35v-256h-164v498h158v-72h2q19 38 54 62t81 24q10 0 19.5 -1t15.5 -3zM302 572h-147l-124 144h130l68 -81l68 81h128z" />
    <glyph glyph-name="Sacute" unicode="&#x15a;" horiz-adv-x="591" 
d="M447 524q-22 28 -57.5 44.5t-68.5 16.5q-17 0 -34.5 -3t-31.5 -11.5t-23.5 -22t-9.5 -34.5q0 -18 7.5 -30t22 -21t34.5 -16.5t45 -15.5q36 -12 75 -26.5t71 -38.5t53 -59.5t21 -88.5q0 -61 -22.5 -105.5t-60.5 -73.5t-87 -43t-101 -14q-76 0 -147 26.5t-118 75.5l112 114
q26 -32 68.5 -53.5t84.5 -21.5q19 0 37 4t31.5 13t21.5 24t8 36q0 20 -10 34t-28.5 25.5t-46 21t-62.5 20.5q-34 11 -66.5 26t-58 38.5t-41 57t-15.5 81.5q0 59 24 101t63 69t88 39.5t99 12.5q60 0 122.5 -22t109.5 -65zM341 764h-124l104 144h166z" />
    <glyph glyph-name="sacute" unicode="&#x15b;" horiz-adv-x="472" 
d="M357 351q-20 19 -47 32t-57 13q-23 0 -42.5 -9t-19.5 -31q0 -21 21.5 -30t69.5 -20q28 -6 56.5 -17t51.5 -29t37 -44t14 -62q0 -47 -19 -79.5t-49.5 -52.5t-68.5 -29t-76 -9q-61 0 -119.5 19.5t-97.5 57.5l92 97q22 -24 54 -40t68 -16q20 0 39.5 9.5t19.5 33.5
q0 23 -24 34t-75 23q-26 6 -52 16t-46.5 27t-33.5 42t-13 60q0 45 19 76.5t49 51.5t66.5 29.5t72.5 9.5q56 0 109.5 -17.5t90.5 -52.5zM278 572h-124l104 144h166z" />
    <glyph glyph-name="Scircumflex" unicode="&#x15c;" horiz-adv-x="591" 
d="M447 524q-22 28 -57.5 44.5t-68.5 16.5q-17 0 -34.5 -3t-31.5 -11.5t-23.5 -22t-9.5 -34.5q0 -18 7.5 -30t22 -21t34.5 -16.5t45 -15.5q36 -12 75 -26.5t71 -38.5t53 -59.5t21 -88.5q0 -61 -22.5 -105.5t-60.5 -73.5t-87 -43t-101 -14q-76 0 -147 26.5t-118 75.5l112 114
q26 -32 68.5 -53.5t84.5 -21.5q19 0 37 4t31.5 13t21.5 24t8 36q0 20 -10 34t-28.5 25.5t-46 21t-62.5 20.5q-34 11 -66.5 26t-58 38.5t-41 57t-15.5 81.5q0 59 24 101t63 69t88 39.5t99 12.5q60 0 122.5 -22t109.5 -65zM388 764l-68 81l-68 -81h-128l124 144h148l122 -144
h-130z" />
    <glyph glyph-name="scircumflex" unicode="&#x15d;" horiz-adv-x="472" 
d="M357 351q-20 19 -47 32t-57 13q-23 0 -42.5 -9t-19.5 -31q0 -21 21.5 -30t69.5 -20q28 -6 56.5 -17t51.5 -29t37 -44t14 -62q0 -47 -19 -79.5t-49.5 -52.5t-68.5 -29t-76 -9q-61 0 -119.5 19.5t-97.5 57.5l92 97q22 -24 54 -40t68 -16q20 0 39.5 9.5t19.5 33.5
q0 23 -24 34t-75 23q-26 6 -52 16t-46.5 27t-33.5 42t-13 60q0 45 19 76.5t49 51.5t66.5 29.5t72.5 9.5q56 0 109.5 -17.5t90.5 -52.5zM315 572l-68 81l-68 -81h-128l124 144h148l122 -144h-130z" />
    <glyph glyph-name="Scedilla" unicode="&#x15e;" horiz-adv-x="591" 
d="M417 -142q0 -29 -14 -48t-36 -30t-47.5 -15.5t-49.5 -4.5q-31 0 -63.5 7t-55.5 18l27 60q19 -9 41.5 -14t42.5 -5q16 0 33 6.5t17 26.5q0 18 -16 23.5t-31 5.5q-9 0 -20 -1.5t-20 -4.5l-31 29l54 72q-68 5 -129.5 30.5t-103.5 70.5l112 114q26 -32 68.5 -53.5t84.5 -21.5
q19 0 37 4t31.5 13t21.5 24t8 36q0 20 -10 34t-28.5 25.5t-46 21t-62.5 20.5q-34 11 -66.5 26t-58 38.5t-41 57t-15.5 81.5q0 59 24 101t63 69t88 39.5t99 12.5q60 0 122.5 -22t109.5 -65l-109 -115q-22 28 -57.5 44.5t-68.5 16.5q-17 0 -34.5 -3t-31.5 -11.5t-23.5 -22
t-9.5 -34.5q0 -18 7.5 -30t22 -21t34.5 -16.5t45 -15.5q36 -12 75 -26.5t71 -38.5t53 -59.5t21 -88.5q0 -54 -17.5 -94.5t-47.5 -69.5t-70 -45.5t-85 -22.5l-35 -46q5 1 9 1h9q18 0 36.5 -3.5t33 -12.5t24 -25.5t9.5 -41.5z" />
    <glyph glyph-name="scedilla" unicode="&#x15f;" horiz-adv-x="472" 
d="M363 -142q0 -29 -14 -48t-36 -30t-47.5 -15.5t-49.5 -4.5q-31 0 -63.5 7t-55.5 18l27 60q19 -9 41.5 -14t42.5 -5q16 0 33 6.5t17 26.5q0 18 -16 23.5t-31 5.5q-9 0 -20 -1.5t-20 -4.5l-31 29l56 75q-54 5 -102.5 23.5t-82.5 51.5l92 97q22 -24 54 -40t68 -16
q20 0 39.5 9.5t19.5 33.5q0 23 -24 34t-75 23q-26 6 -52 16t-46.5 27t-33.5 42t-13 60q0 45 19 76.5t49 52t66.5 30t72.5 9.5q56 0 109.5 -18t90.5 -53l-90 -93q-20 19 -47 32t-57 13q-23 0 -42.5 -9t-19.5 -31q0 -21 21.5 -30t69.5 -20q28 -6 56.5 -17t51.5 -29t37 -44
t14 -62q0 -39 -13.5 -68.5t-36 -49.5t-51.5 -32t-61 -16l-37 -48q5 1 9 1h9q18 0 36.5 -3.5t33 -12.5t24 -25.5t9.5 -41.5z" />
    <glyph glyph-name="Scaron" unicode="&#x160;" horiz-adv-x="591" 
d="M447 524q-22 28 -57.5 44.5t-68.5 16.5q-17 0 -34.5 -3t-31.5 -11.5t-23.5 -22t-9.5 -34.5q0 -18 7.5 -30t22 -21t34.5 -16.5t45 -15.5q36 -12 75 -26.5t71 -38.5t53 -59.5t21 -88.5q0 -61 -22.5 -105.5t-60.5 -73.5t-87 -43t-101 -14q-76 0 -147 26.5t-118 75.5l112 114
q26 -32 68.5 -53.5t84.5 -21.5q19 0 37 4t31.5 13t21.5 24t8 36q0 20 -10 34t-28.5 25.5t-46 21t-62.5 20.5q-34 11 -66.5 26t-58 38.5t-41 57t-15.5 81.5q0 59 24 101t63 69t88 39.5t99 12.5q60 0 122.5 -22t109.5 -65zM397 764h-147l-124 144h130l68 -81l68 81h128z" />
    <glyph glyph-name="scaron" unicode="&#x161;" horiz-adv-x="472" 
d="M357 351q-20 19 -47 32t-57 13q-23 0 -42.5 -9t-19.5 -31q0 -21 21.5 -30t69.5 -20q28 -6 56.5 -17t51.5 -29t37 -44t14 -62q0 -47 -19 -79.5t-49.5 -52.5t-68.5 -29t-76 -9q-61 0 -119.5 19.5t-97.5 57.5l92 97q22 -24 54 -40t68 -16q20 0 39.5 9.5t19.5 33.5
q0 23 -24 34t-75 23q-26 6 -52 16t-46.5 27t-33.5 42t-13 60q0 45 19 76.5t49 51.5t66.5 29.5t72.5 9.5q56 0 109.5 -17.5t90.5 -52.5zM321 572h-147l-124 144h130l68 -81l68 81h128z" />
    <glyph glyph-name="uni0162" unicode="&#x162;" horiz-adv-x="581" 
d="M376 562v-562h-171v562h-200v146h571v-146h-200zM279 -240h-126l67 195h145z" />
    <glyph glyph-name="uni0163" unicode="&#x163;" horiz-adv-x="372" 
d="M242 375v-190q0 -35 13.5 -52.5t48.5 -17.5q12 0 25.5 2t22.5 6l2 -120q-17 -6 -43 -10.5t-52 -4.5q-50 0 -84 12.5t-54.5 36t-29.5 56t-9 72.5v210h-80v123h79v131h161v-131h117v-123h-117zM202 -240h-126l67 195h145z" />
    <glyph glyph-name="Tcaron" unicode="&#x164;" horiz-adv-x="581" 
d="M376 562v-562h-171v562h-200v146h571v-146h-200zM365 764h-147l-124 144h130l68 -81l68 81h128z" />
    <glyph glyph-name="tcaron" unicode="&#x165;" horiz-adv-x="432" 
d="M242 375v-190q0 -35 13.5 -52.5t48.5 -17.5q12 0 25.5 2t22.5 6l2 -120q-17 -6 -43 -10.5t-52 -4.5q-50 0 -84 12.5t-54.5 36t-29.5 56t-9 72.5v210h-80v123h79v131h161v-131h117v-123h-117zM396 536h-126l67 195h145z" />
    <glyph glyph-name="Tbar" unicode="&#x166;" horiz-adv-x="581" 
d="M376 562v-85h136v-89h-136v-388h-171v388h-131v89h131v85h-200v146h571v-146h-200z" />
    <glyph glyph-name="tbar" unicode="&#x167;" horiz-adv-x="372" 
d="M242 215v-30q0 -35 13.5 -52.5t48.5 -17.5q12 0 25.5 2t22.5 6l2 -120q-17 -6 -43 -10.5t-52 -4.5q-50 0 -84 12.5t-54.5 36t-29.5 56t-9 72.5v50h-71v89h71v71h-80v123h79v131h161v-131h117v-123h-117v-71h97v-89h-97z" />
    <glyph glyph-name="Utilde" unicode="&#x168;" horiz-adv-x="738" 
d="M673 267q0 -64 -21.5 -116.5t-61.5 -90t-96.5 -58.5t-125.5 -21q-70 0 -126 21t-95 58.5t-60 90t-21 116.5v441h170v-427q0 -29 7.5 -55t23 -46.5t41 -32.5t61.5 -12t61.5 12t41.5 32.5t23 46.5t7 55v427h171v-441zM521 871q0 -24 -4.5 -46t-14.5 -38.5t-26.5 -26
t-40.5 -9.5q-22 0 -40.5 5.5t-38.5 15.5l-16 8t-15 3q-14 0 -20.5 -8.5t-8.5 -22.5h-77q1 23 5.5 44.5t14.5 38t26 26t40 9.5q41 0 79 -20q11 -5 18 -8.5t14 -3.5q14 0 20 8.5t9 24.5h76z" />
    <glyph glyph-name="utilde" unicode="&#x169;" horiz-adv-x="614" 
d="M392 0v69h-2q-9 -17 -23.5 -32t-34 -26t-43 -18t-49.5 -7q-50 0 -84.5 18t-56 46.5t-31 65t-9.5 74.5v308h165v-270q0 -21 3 -40t11.5 -34t22.5 -23.5t37 -8.5q43 0 65.5 32t22.5 75v269h164v-498h-158zM451 667q0 -24 -4.5 -46t-14.5 -38.5t-26.5 -26t-40.5 -9.5
q-22 0 -40.5 5.5t-38.5 15.5l-16 8t-15 3q-14 0 -20.5 -8.5t-8.5 -22.5h-77q1 23 5.5 44.5t14.5 38t26 26t40 9.5q41 0 79 -20q11 -5 18 -8.5t14 -3.5q14 0 20 8.5t9 24.5h76z" />
    <glyph glyph-name="Umacron" unicode="&#x16a;" horiz-adv-x="738" 
d="M673 267q0 -64 -21.5 -116.5t-61.5 -90t-96.5 -58.5t-125.5 -21q-70 0 -126 21t-95 58.5t-60 90t-21 116.5v441h170v-427q0 -29 7.5 -55t23 -46.5t41 -32.5t61.5 -12t61.5 12t41.5 32.5t23 46.5t7 55v427h171v-441zM206 793v86h336v-86h-336z" />
    <glyph glyph-name="umacron" unicode="&#x16b;" horiz-adv-x="614" 
d="M392 0v69h-2q-9 -17 -23.5 -32t-34 -26t-43 -18t-49.5 -7q-50 0 -84.5 18t-56 46.5t-31 65t-9.5 74.5v308h165v-270q0 -21 3 -40t11.5 -34t22.5 -23.5t37 -8.5q43 0 65.5 32t22.5 75v269h164v-498h-158zM136 601v86h336v-86h-336z" />
    <glyph glyph-name="Ubreve" unicode="&#x16c;" horiz-adv-x="738" 
d="M673 267q0 -64 -21.5 -116.5t-61.5 -90t-96.5 -58.5t-125.5 -21q-70 0 -126 21t-95 58.5t-60 90t-21 116.5v441h170v-427q0 -29 7.5 -55t23 -46.5t41 -32.5t61.5 -12t61.5 12t41.5 32.5t23 46.5t7 55v427h171v-441zM544 908q-3 -39 -18 -66.5t-38 -44.5t-53.5 -25
t-65.5 -8q-34 0 -64.5 7.5t-53.5 25t-37.5 45t-17.5 66.5h84q3 -16 11.5 -26.5t21 -17t27.5 -9t30 -2.5q34 0 58.5 10t31.5 45h84z" />
    <glyph glyph-name="ubreve" unicode="&#x16d;" horiz-adv-x="614" 
d="M392 0v69h-2q-9 -17 -23.5 -32t-34 -26t-43 -18t-49.5 -7q-50 0 -84.5 18t-56 46.5t-31 65t-9.5 74.5v308h165v-270q0 -21 3 -40t11.5 -34t22.5 -23.5t37 -8.5q43 0 65.5 32t22.5 75v269h164v-498h-158zM479 716q-3 -39 -18 -66.5t-38 -44.5t-53.5 -25t-65.5 -8
q-34 0 -64.5 7.5t-53.5 25t-37.5 45t-17.5 66.5h84q6 -29 32 -44q13 -6 28 -8.5t30 -2.5q34 0 58.5 10t31.5 45h84z" />
    <glyph glyph-name="Uring" unicode="&#x16e;" horiz-adv-x="738" 
d="M673 267q0 -64 -21.5 -116.5t-61.5 -90t-96.5 -58.5t-125.5 -21q-70 0 -126 21t-95 58.5t-60 90t-21 116.5v441h170v-427q0 -29 7.5 -55t23 -46.5t41 -32.5t61.5 -12t61.5 12t41.5 32.5t23 46.5t7 55v427h171v-441zM483 856q0 -23 -8.5 -43t-23.5 -34t-35 -22t-42 -8
q-23 0 -42.5 8t-34.5 22t-23.5 33.5t-8.5 42.5q0 47 31.5 77.5t77.5 30.5q22 0 42 -8t35 -22.5t23.5 -34t8.5 -42.5zM433 856q0 25 -17 41.5t-42 16.5q-26 0 -42.5 -17t-16.5 -42q0 -24 17 -40.5t42 -16.5t42 16.5t17 41.5z" />
    <glyph glyph-name="uring" unicode="&#x16f;" horiz-adv-x="614" 
d="M392 0v69h-2q-9 -17 -23.5 -32t-34 -26t-43 -18t-49.5 -7q-50 0 -84.5 18t-56 46.5t-31 65t-9.5 74.5v308h165v-270q0 -21 3 -40t11.5 -34t22.5 -23.5t37 -8.5q43 0 65.5 32t22.5 75v269h164v-498h-158zM414 664q0 -23 -8.5 -43t-23.5 -34t-35 -22t-42 -8q-23 0 -42.5 8
t-34.5 22t-23.5 33.5t-8.5 42.5q0 47 31.5 77.5t77.5 30.5q22 0 42 -8t35 -22.5t23.5 -34t8.5 -42.5zM364 664q0 25 -17 41.5t-42 16.5q-26 0 -42.5 -17t-16.5 -42q0 -24 17 -40.5t42 -16.5t42 16.5t17 41.5z" />
    <glyph glyph-name="Uhungarumlaut" unicode="&#x170;" horiz-adv-x="738" 
d="M673 267q0 -64 -21.5 -116.5t-61.5 -90t-96.5 -58.5t-125.5 -21q-70 0 -126 21t-95 58.5t-60 90t-21 116.5v441h170v-427q0 -29 7.5 -55t23 -46.5t41 -32.5t61.5 -12t61.5 12t41.5 32.5t23 46.5t7 55v427h171v-441zM540 764h-124l104 144h166zM320 764h-124l104 144h166z
" />
    <glyph glyph-name="uhungarumlaut" unicode="&#x171;" horiz-adv-x="614" 
d="M392 0v69h-2q-9 -17 -23.5 -32t-34 -26t-43 -18t-49.5 -7q-50 0 -84.5 18t-56 46.5t-31 65t-9.5 74.5v308h165v-270q0 -21 3 -40t11.5 -34t22.5 -23.5t37 -8.5q43 0 65.5 32t22.5 75v269h164v-498h-158zM476 572h-124l104 144h166zM256 572h-124l104 144h166z" />
    <glyph glyph-name="Uogonek" unicode="&#x172;" horiz-adv-x="738" 
d="M483 -196q-23 -17 -53 -28.5t-62 -11.5q-20 0 -40.5 5t-36.5 16t-26 28.5t-10 41.5q0 36 24.5 69t55.5 59q-63 5 -112.5 27.5t-84.5 59.5t-53.5 87t-18.5 110v441h170v-427q0 -29 7.5 -55t23 -46.5t41 -32.5t61.5 -12t61.5 12t41.5 32.5t23 46.5t7 55v427h171v-441
q0 -56 -17 -103.5t-48 -84t-76 -60.5t-100 -33q-31 -27 -52 -54t-21 -50q0 -16 10.5 -26t26.5 -10q14 0 28 5.5t27 14.5l32 -62v0z" />
    <glyph glyph-name="uogonek" unicode="&#x173;" horiz-adv-x="614" 
d="M518 -196q-23 -17 -53 -28.5t-62 -11.5q-20 0 -40.5 5t-36.5 16t-26 28.5t-10 41.5q0 21 9.5 41.5t24 39.5t32.5 35t36 29v69h-2q-9 -17 -23.5 -32t-34 -26t-43 -18t-49.5 -7q-50 0 -84.5 18t-56 46.5t-31 65t-9.5 74.5v308h165v-270q0 -21 3 -40t11.5 -34t22.5 -23.5
t37 -8.5q43 0 65.5 32t22.5 75v269h164v-498h-66q-38 -30 -64 -61t-26 -57q0 -16 10.5 -26t26.5 -10q14 0 28 5.5t27 14.5l32 -62v0z" />
    <glyph glyph-name="Wcircumflex" unicode="&#x174;" horiz-adv-x="1025" 
d="M823 0h-169l-140 479h-3l-140 -479h-170l-201 708h184l112 -471h3l126 471h178l127 -471h3l114 471h178zM582 764l-68 81l-68 -81h-128l124 144h148l122 -144h-130z" />
    <glyph glyph-name="wcircumflex" unicode="&#x175;" horiz-adv-x="871" 
d="M698 0h-165l-98 310h-2l-96 -310h-165l-172 498h177l86 -315h3l89 315h165l92 -315h2l87 315h170zM505 572l-68 81l-68 -81h-128l124 144h148l122 -144h-130z" />
    <glyph glyph-name="Ycircumflex" unicode="&#x176;" horiz-adv-x="669" 
d="M417 300v-300h-171v300l-266 408h207l151 -262l151 262h200zM405 764l-68 81l-68 -81h-128l124 144h148l122 -144h-130z" />
    <glyph glyph-name="ycircumflex" unicode="&#x177;" horiz-adv-x="567" 
d="M345 -75q-15 -39 -33.5 -69.5t-44 -52t-60 -32.5t-81.5 -11q-23 0 -47.5 3t-42.5 8l18 138q12 -4 26.5 -6.5t26.5 -2.5q38 0 55 17.5t29 49.5l16 41l-208 490h182l111 -320h3l99 320h174zM359 572l-68 81l-68 -81h-128l124 144h148l122 -144h-130z" />
    <glyph glyph-name="Ydieresis" unicode="&#x178;" horiz-adv-x="669" 
d="M417 300v-300h-171v300l-266 408h207l151 -262l151 262h200zM530 850q0 -35 -24.5 -58.5t-58.5 -23.5q-35 0 -59 24t-24 58q0 16 6.5 30.5t17.5 26t26 18t33 6.5q34 0 58.5 -23.5t24.5 -57.5zM313 850q0 -35 -24.5 -58.5t-59.5 -23.5t-59 24t-24 58q0 16 6.5 30.5
t17.5 26t26.5 18t32.5 6.5q35 0 59.5 -23.5t24.5 -57.5z" />
    <glyph glyph-name="Zacute" unicode="&#x179;" horiz-adv-x="635" 
d="M39 0v148l337 415h-329v145h543v-137l-345 -423h352v-148h-558zM371 764h-124l104 144h166z" />
    <glyph glyph-name="zacute" unicode="&#x17a;" horiz-adv-x="512" 
d="M34 0v128l234 244h-225v126h425v-123l-241 -248h251v-127h-444zM297 572h-124l104 144h166z" />
    <glyph glyph-name="Zdotaccent" unicode="&#x17b;" horiz-adv-x="635" 
d="M39 0v148l337 415h-329v145h543v-137l-345 -423h352v-148h-558zM418 849q0 -36 -26 -60.5t-64 -24.5t-63.5 25t-25.5 60t25.5 60.5t63.5 25.5t64 -25t26 -61z" />
    <glyph glyph-name="zdotaccent" unicode="&#x17c;" horiz-adv-x="512" 
d="M34 0v128l234 244h-225v126h425v-123l-241 -248h251v-127h-444zM349 657q0 -36 -26 -60.5t-64 -24.5t-63.5 25t-25.5 60t25.5 60.5t63.5 25.5t64 -25t26 -61z" />
    <glyph glyph-name="Zcaron" unicode="&#x17d;" horiz-adv-x="635" 
d="M39 0v148l337 415h-329v145h543v-137l-345 -423h352v-148h-558zM393 764h-147l-124 144h130l68 -81l68 81h128z" />
    <glyph glyph-name="zcaron" unicode="&#x17e;" horiz-adv-x="512" 
d="M34 0v128l234 244h-225v126h425v-123l-241 -248h251v-127h-444zM336 572h-147l-124 144h130l68 -81l68 81h128z" />
    <glyph glyph-name="florin" unicode="&#x192;" horiz-adv-x="646" 
d="M528 323h-148l-55 -274q-18 -91 -66.5 -139.5t-138.5 -48.5q-32 0 -64 7t-58 21l58 120q12 -8 25.5 -12t24.5 -4q33 0 47.5 24.5t22.5 64.5l49 241h-114v113h134l16 78q8 39 21 77t36.5 67t59.5 47t91 18q42 0 76 -9t61 -25l-60 -121q-30 18 -57 18q-35 0 -50.5 -24.5
t-22.5 -60.5l-14 -65h126v-113z" />
    <glyph glyph-name="Ohorn" unicode="&#x1a0;" horiz-adv-x="851" 
d="M811 357q0 -84 -29 -153.5t-80.5 -119t-122.5 -76.5t-154 -27t-153.5 27t-122 76.5t-80.5 119t-29 153.5q0 85 29 153.5t80.5 116.5t122 74t153.5 26q75 0 140 -21q11 -1 24 -0.5t25 1.5q21 2 26.5 19.5t5.5 44.5h117q0 -17 -1 -37t-8 -38.5t-21.5 -34.5t-41.5 -25
q57 -49 88.5 -119t31.5 -160zM628 357q0 46 -15 86t-41.5 68.5t-64 45t-82.5 16.5t-82 -16.5t-64 -45t-41.5 -68.5t-14.5 -86q0 -48 15 -88.5t41.5 -69.5t63.5 -45.5t82 -16.5t82 16.5t64 45.5t42 69.5t15 88.5z" />
    <glyph glyph-name="ohorn" unicode="&#x1a1;" horiz-adv-x="632" 
d="M592 251q0 -61 -22 -110.5t-60 -84t-88 -53.5t-107 -19q-56 0 -106.5 19t-88 53.5t-59.5 84t-22 110.5t22 110t59.5 83t88 52t106.5 18q26 0 51.5 -4t48.5 -12q11 -2 20 -1.5t13 0.5q21 0 26.5 18.5t5.5 45.5h117q0 -17 -1 -36.5t-7.5 -38.5t-21 -34.5t-40.5 -25.5
q30 -33 47.5 -77t17.5 -98zM434 251q0 24 -8 47t-23 40.5t-37 28.5t-51 11t-51 -11t-36.5 -28.5t-22 -40.5t-7.5 -47t7.5 -47t22.5 -41.5t37 -29.5t51 -11t51 11t37 29.5t22.5 41.5t7.5 47z" />
    <glyph glyph-name="Uhorn" unicode="&#x1af;" horiz-adv-x="738" 
d="M673 267q0 -64 -21.5 -116.5t-61.5 -90t-96.5 -58.5t-125.5 -21q-70 0 -126 21t-95 58.5t-60 90t-21 116.5v441h170v-427q0 -29 7.5 -55t23 -46.5t41 -32.5t61.5 -12t61.5 12t41.5 32.5t23 46.5t7 55v427h124q16 4 20 21t4 42h117q0 -19 -1.5 -40.5t-10.5 -41.5t-28 -36
t-54 -23v-363v0z" />
    <glyph glyph-name="uhorn" unicode="&#x1b0;" horiz-adv-x="614" 
d="M392 0v69h-2q-9 -17 -23.5 -32t-34 -26t-43 -18t-49.5 -7q-50 0 -84.5 18t-56 46.5t-31 65t-9.5 74.5v308h165v-270q0 -21 3 -40t11.5 -34t22.5 -23.5t37 -8.5q43 0 65.5 32t22.5 75v269h119q17 3 21 20.5t4 42.5h117q0 -19 -1.5 -41t-10.5 -42.5t-29 -36t-56 -22.5v-419
h-158z" />
    <glyph glyph-name="Scommaaccent" unicode="&#x218;" horiz-adv-x="591" 
d="M447 524q-22 28 -57.5 44.5t-68.5 16.5q-17 0 -34.5 -3t-31.5 -11.5t-23.5 -22t-9.5 -34.5q0 -18 7.5 -30t22 -21t34.5 -16.5t45 -15.5q36 -12 75 -26.5t71 -38.5t53 -59.5t21 -88.5q0 -61 -22.5 -105.5t-60.5 -73.5t-87 -43t-101 -14q-76 0 -147 26.5t-118 75.5l112 114
q26 -32 68.5 -53.5t84.5 -21.5q19 0 37 4t31.5 13t21.5 24t8 36q0 20 -10 34t-28.5 25.5t-46 21t-62.5 20.5q-34 11 -66.5 26t-58 38.5t-41 57t-15.5 81.5q0 59 24 101t63 69t88 39.5t99 12.5q60 0 122.5 -22t109.5 -65zM278 -240h-126l67 195h145z" />
    <glyph glyph-name="scommaaccent" unicode="&#x219;" horiz-adv-x="472" 
d="M357 351q-20 19 -47 32t-57 13q-23 0 -42.5 -9t-19.5 -31q0 -21 21.5 -30t69.5 -20q28 -6 56.5 -17t51.5 -29t37 -44t14 -62q0 -47 -19 -79.5t-49.5 -52.5t-68.5 -29t-76 -9q-61 0 -119.5 19.5t-97.5 57.5l92 97q22 -24 54 -40t68 -16q20 0 39.5 9.5t19.5 33.5
q0 23 -24 34t-75 23q-26 6 -52 16t-46.5 27t-33.5 42t-13 60q0 45 19 76.5t49 51.5t66.5 29.5t72.5 9.5q56 0 109.5 -17.5t90.5 -52.5zM218 -240h-126l67 195h145z" />
    <glyph glyph-name="uni021A" unicode="&#x21a;" horiz-adv-x="581" 
d="M376 562v-562h-171v562h-200v146h571v-146h-200zM279 -240h-126l67 195h145z" />
    <glyph glyph-name="uni021B" unicode="&#x21b;" horiz-adv-x="372" 
d="M242 375v-190q0 -35 13.5 -52.5t48.5 -17.5q12 0 25.5 2t22.5 6l2 -120q-17 -6 -43 -10.5t-52 -4.5q-50 0 -84 12.5t-54.5 36t-29.5 56t-9 72.5v210h-80v123h79v131h161v-131h117v-123h-117zM202 -240h-126l67 195h145z" />
    <glyph glyph-name="dotlessj" unicode="&#x237;" horiz-adv-x="299" 
d="M233 -13q0 -46 -8.5 -87.5t-30.5 -72.5t-61 -49t-99 -18q-17 0 -37 2t-34 6l11 137q9 -3 18.5 -4t16.5 -1q36 0 48 24.5t12 62.5v511h164v-511v0z" />
    <glyph glyph-name="circumflex" unicode="&#x2c6;" 
d="M217 572l-68 81l-68 -81h-128l124 144h148l122 -144h-130z" />
    <glyph glyph-name="caron" unicode="&#x2c7;" 
d="M224 572h-147l-124 144h130l68 -81l68 81h128z" />
    <glyph glyph-name="uni02C9" unicode="&#x2c9;" 
d="M-18 793v86h336v-86h-336z" />
    <glyph glyph-name="breve" unicode="&#x2d8;" 
d="M324 716q-3 -39 -18 -66.5t-38 -44.5t-53.5 -25t-65.5 -8q-34 0 -64.5 7.5t-53.5 25t-37.5 45t-17.5 66.5h84q6 -29 32 -44q13 -6 28 -8.5t30 -2.5q34 0 58.5 10t31.5 45h84v0z" />
    <glyph glyph-name="dotaccent" unicode="&#x2d9;" 
d="M240 657q0 -36 -26 -60.5t-64 -24.5t-63.5 25t-25.5 60t25.5 60.5t63.5 25.5t64 -25t26 -61z" />
    <glyph glyph-name="ring" unicode="&#x2da;" 
d="M259 664q0 -23 -8.5 -43t-23.5 -34t-35 -22t-42 -8q-23 0 -42.5 8t-34.5 22t-23.5 33.5t-8.5 42.5q0 47 31.5 77.5t77.5 30.5q22 0 42 -8t35 -22.5t23.5 -34t8.5 -42.5zM209 664q0 25 -17 41.5t-42 16.5q-26 0 -42.5 -17t-16.5 -42q0 -24 17 -40.5t42 -16.5t42 16.5
t17 41.5z" />
    <glyph glyph-name="ogonek" unicode="&#x2db;" 
d="M240 -196q-23 -17 -53 -28.5t-62 -11.5q-20 0 -40.5 5t-36.5 16t-26 28.5t-10 41.5q0 22 10 43.5t26 40.5t35 35.5t37 29.5h91q-39 -31 -67 -63t-28 -59q0 -16 10.5 -26t26.5 -10q14 0 28 5.5t27 14.5l32 -62v0z" />
    <glyph glyph-name="tilde" unicode="&#x2dc;" 
d="M335 708q-3 -26 -11 -50t-21.5 -42t-33.5 -29t-47 -11q-21 0 -41 6t-40 15q-20 11 -34.5 15.5t-28.5 4.5q-18 0 -27.5 -12t-14.5 -28h-72q3 26 11 49.5t21.5 41.5t33.5 28.5t47 10.5q21 0 40.5 -5.5t39.5 -14.5q21 -10 36 -15t29 -5q19 0 28 11.5t14 29.5h71v0z" />
    <glyph glyph-name="hungarumlaut" unicode="&#x2dd;" 
d="M310 572h-124l104 144h166zM90 572h-124l104 144h166z" />
    <glyph glyph-name="uni0394" unicode="&#x394;" horiz-adv-x="735" 
d="M27 0v102l258 606h166l256 -602v-106h-680zM365 519l-142 -371h281z" />
    <glyph glyph-name="uni03A9" unicode="&#x3a9;" horiz-adv-x="760" 
d="M419 0v219q59 17 91 66.5t32 113.5q0 42 -12.5 74t-34.5 54.5t-51.5 34t-63.5 11.5q-35 0 -64.5 -12t-51.5 -34.5t-34 -54.5t-12 -73q0 -39 10.5 -69.5t28 -53t39.5 -37t45 -20.5v-219h-287v144h157v11q-75 28 -120.5 96t-45.5 165q0 75 26.5 133t72.5 97.5t106 60
t128 20.5q70 0 131.5 -21t107.5 -60.5t72 -97.5t26 -132q0 -91 -42.5 -160.5t-123.5 -100.5v-11h157v-144h-287z" />
    <glyph glyph-name="uni03BC" unicode="&#x3bc;" horiz-adv-x="663" 
d="M628 1q-17 -6 -38 -9.5t-47 -3.5q-53 0 -78.5 22t-32.5 59h-2q-6 -14 -17 -29t-26.5 -27t-35 -19.5t-42.5 -7.5q-26 0 -46.5 7.5t-30.5 19.5h-2v-253h-166v738h166v-268q0 -60 19.5 -84t54.5 -24q43 0 65.5 32t22.5 77v267h166v-339q0 -23 9 -33t29 -10q15 0 30 5z" />
    <glyph glyph-name="pi" unicode="&#x3c0;" horiz-adv-x="711" 
d="M644 1q-37 -13 -97 -13q-68 0 -101.5 33.5t-33.5 111.5v236h-125l-45 -369h-157l52 369h-107v129h646v-129h-113v-214q0 -40 41 -40q12 0 20.5 2t17.5 4l2 -120v0z" />
    <glyph glyph-name="uni0400" unicode="&#x400;" horiz-adv-x="607" 
d="M73 708h476v-145h-311v-133h294v-137h-294v-147h329v-146h-494v708zM276 764l-146 144h166l104 -144h-124z" />
    <glyph glyph-name="uni0401" unicode="&#x401;" horiz-adv-x="607" 
d="M73 708h476v-145h-311v-133h294v-137h-294v-147h329v-146h-494v708zM499 850q0 -35 -24.5 -58.5t-58.5 -23.5q-35 0 -59 24t-24 58q0 16 6.5 30.5t17.5 26t26 18t33 6.5q34 0 58.5 -23.5t24.5 -57.5zM282 850q0 -35 -24.5 -58.5t-59.5 -23.5t-59 24t-24 58q0 16 6.5 30.5
t17.5 26t26.5 18t32.5 6.5q35 0 59.5 -23.5t24.5 -57.5z" />
    <glyph glyph-name="uni0402" unicode="&#x402;" horiz-adv-x="820" 
d="M544 -10q-29 0 -60 3.5t-46 6.5l15 129q10 -3 25.5 -5t26.5 -2q52 0 81.5 19t29.5 64q0 43 -32 66t-98 23q-29 0 -60.5 -5.5t-49.5 -13.5v-275h-171v563h-200v145h570v-145h-199v-161q27 8 70 15t90 7q122 0 187.5 -57.5t65.5 -165.5q0 -56 -20 -96t-53.5 -65.5
t-78 -37.5t-93.5 -12z" />
    <glyph glyph-name="uni0403" unicode="&#x403;" horiz-adv-x="523" 
d="M317 764h-124l104 144h166zM73 708h445v-146h-274v-562h-171v708z" />
    <glyph glyph-name="uni0404" unicode="&#x404;" horiz-adv-x="696" 
d="M419 -19q-80 0 -149.5 27.5t-120.5 76.5t-80 117.5t-29 151.5t29.5 152t80.5 118t120 76t149 27q81 0 151.5 -28t115.5 -76l-108 -121q-22 31 -62.5 51t-98.5 20q-36 0 -66.5 -11.5t-54.5 -31t-40.5 -45.5t-23.5 -56h261v-136h-263q5 -33 21 -62t40.5 -50.5t56 -33.5
t68.5 -12q59 0 102 20.5t69 55.5l104 -115q-42 -50 -111 -82.5t-161 -32.5z" />
    <glyph glyph-name="uni0405" unicode="&#x405;" horiz-adv-x="591" 
d="M280 -18q-76 0 -147 26.5t-118 75.5l112 114q26 -32 68.5 -53.5t84.5 -21.5q19 0 37 4t31.5 13t21.5 24t8 36q0 20 -10 34t-28.5 25.5t-46 21t-62.5 20.5q-34 11 -66.5 26t-58 38.5t-41 57t-15.5 81.5q0 59 24 101t63 69t88 39.5t99 12.5q60 0 122.5 -22t109.5 -65
l-109 -115q-22 28 -57.5 44.5t-68.5 16.5q-17 0 -34.5 -3t-31.5 -11.5t-23.5 -22t-9.5 -34.5q0 -18 7.5 -30t22 -21t34.5 -16.5t45 -15.5q36 -12 75 -26.5t71 -38.5t53 -59.5t21 -88.5q0 -61 -22.5 -105.5t-60.5 -73.5t-87 -43t-101 -14z" />
    <glyph glyph-name="uni0406" unicode="&#x406;" horiz-adv-x="318" 
d="M73 708h172v-708h-172v708z" />
    <glyph glyph-name="uni0407" unicode="&#x407;" horiz-adv-x="318" 
d="M73 708h172v-708h-172v708zM351 850q0 -35 -24.5 -58.5t-58.5 -23.5q-35 0 -59 24t-24 58q0 16 6.5 30.5t17.5 26t26 18t33 6.5q34 0 58.5 -23.5t24.5 -57.5zM134 850q0 -35 -24.5 -58.5t-59.5 -23.5t-59 24t-24 58q0 16 6.5 30.5t17.5 26t26.5 18t32.5 6.5
q35 0 59.5 -23.5t24.5 -57.5z" />
    <glyph glyph-name="uni0408" unicode="&#x408;" horiz-adv-x="529" 
d="M227 -19q-90 0 -150 46.5t-80 119.5l151 51q7 -28 25.5 -45t45.5 -17q42 0 55.5 29t13.5 76v467h172v-466q0 -42 -9.5 -88t-35 -84.5t-71 -63.5t-117.5 -25z" />
    <glyph glyph-name="uni0409" unicode="&#x409;" horiz-adv-x="1122" 
d="M105 -7q-25 0 -54 3t-44 8l14 142q20 -7 42 -7q28 0 51 13.5t39 49.5t24.5 98t8.5 158v250h540v-260h90q56 0 106 -12t88 -38t60 -69t22 -104q0 -59 -22 -101.5t-60 -70t-88 -40.5t-105 -13h-262v563h-205v-98q0 -129 -14.5 -219t-44.5 -146.5t-76 -81.5t-110 -25z
M804 136q52 0 85.5 21t33.5 69q0 47 -32.5 68t-86.5 21h-78v-179h78z" />
    <glyph glyph-name="uni040A" unicode="&#x40a;" horiz-adv-x="1091" 
d="M73 708h171v-267h276v267h171v-267h103q54 0 102.5 -11.5t85 -37.5t58 -68t21.5 -102q0 -59 -21.5 -101t-58 -69t-84.5 -39.5t-102 -12.5h-275v302h-276v-302h-171v708zM775 137q51 0 83 20.5t32 66.5q0 45 -31 65.5t-84 20.5h-84v-173h84z" />
    <glyph glyph-name="uni040B" unicode="&#x40b;" horiz-adv-x="833" 
d="M205 563h-200v145h570v-145h-199v-161q27 8 69.5 15t89.5 7q121 0 178 -49t57 -158v-217h-171v174q0 61 -25.5 85.5t-85.5 24.5q-29 0 -61.5 -5t-50.5 -13v-266h-171v563z" />
    <glyph glyph-name="uni040C" unicode="&#x40c;" horiz-adv-x="711" 
d="M404 764h-124l104 144h166zM73 708h168v-288h3l253 288h214l-305 -326l323 -382h-223l-263 326h-2v-326h-168v708z" />
    <glyph glyph-name="uni040D" unicode="&#x40d;" horiz-adv-x="771" 
d="M73 708h169v-466h4l272 466h180v-708h-169v455h-3l-270 -455h-183v708zM322 764l-146 144h166l104 -144h-124z" />
    <glyph glyph-name="uni040E" unicode="&#x40e;" horiz-adv-x="681" 
d="M167 -12q-42 0 -69 3.5t-44 8.5l21 141q12 -4 31 -7.5t33 -3.5q24 0 40.5 6.5t29 18.5t22.5 29.5t21 39.5l3 6l-270 478h197l166 -323l156 323h192l-265 -504q-24 -47 -48 -86.5t-53.5 -68t-68.5 -45t-94 -16.5zM347 764q-68 0 -116 33.5t-59 106.5l85 17
q5 -32 28.5 -49.5t61.5 -17.5q37 0 60.5 17.5t28.5 49.5l86 -17q-12 -73 -59 -106.5t-116 -33.5z" />
    <glyph glyph-name="uni040F" unicode="&#x40f;" horiz-adv-x="760" 
d="M305 0h-232v708h171v-562h272v562h171v-708h-232v-151h-150v151z" />
    <glyph glyph-name="uni0410" unicode="&#x410;" horiz-adv-x="729" 
d="M283 708h166l294 -708h-190l-55 139h-274l-52 -139h-186zM451 276l-88 243l-90 -243h178z" />
    <glyph glyph-name="uni0411" unicode="&#x411;" horiz-adv-x="662" 
d="M73 708h498v-139h-327v-134h110q54 0 103 -11.5t85.5 -37.5t58 -67t21.5 -101q0 -57 -21.5 -98.5t-58 -68t-85 -39t-102.5 -12.5h-282v708zM336 136q51 0 82.5 19t31.5 64q0 44 -30.5 63.5t-83.5 19.5h-92v-166h92z" />
    <glyph glyph-name="uni0412" unicode="&#x412;" horiz-adv-x="665" 
d="M73 708h282q41 0 84 -8.5t78 -29t57 -55.5t22 -89q0 -59 -32 -97.5t-84 -55.5v-2q30 -5 56.5 -18.5t46 -34.5t31 -49t11.5 -63q0 -58 -23 -97.5t-61 -63.5t-86.5 -34.5t-99.5 -10.5h-282v708zM334 138q20 0 41.5 3.5t39 12.5t28.5 25.5t11 42.5q0 44 -33 61t-88 17h-95
v-162h96zM330 426q48 0 74.5 19.5t26.5 57.5q0 36 -27.5 52.5t-81.5 16.5h-84v-146h92z" />
    <glyph glyph-name="uni0413" unicode="&#x413;" horiz-adv-x="523" 
d="M73 708h445v-146h-274v-562h-171v708z" />
    <glyph glyph-name="uni0414" unicode="&#x414;" horiz-adv-x="804" 
d="M12 146h62q24 29 42 65.5t30 83t18 104.5t6 129v180h536v-562h78v-297h-150v151h-472v-151h-150v297zM535 146v417h-200v-57q0 -71 -6.5 -127t-17 -100.5t-24 -77t-28.5 -55.5h276z" />
    <glyph glyph-name="uni0415" unicode="&#x415;" horiz-adv-x="607" 
d="M73 708h476v-145h-311v-133h294v-137h-294v-147h329v-146h-494v708z" />
    <glyph glyph-name="uni0416" unicode="&#x416;" horiz-adv-x="1050" 
d="M270 385l-272 323h205l235 -296h1v296h170v-296h2l235 296h206l-274 -323l290 -385h-215l-241 332h-2v-332h-171v332h-1l-243 -332h-213z" />
    <glyph glyph-name="uni0417" unicode="&#x417;" horiz-adv-x="611" 
d="M302 -19q-100 0 -169.5 28t-118.5 78l102 111q24 -31 62 -53t98 -22q23 0 44.5 6t38 18t26.5 29t10 39q0 26 -11.5 43t-30.5 27.5t-45 14.5t-54 4h-57v123h61q26 0 48.5 4t38.5 14t25 26t9 39q0 19 -9 33t-23.5 23.5t-32.5 14.5t-36 5q-89 0 -143 -62l-99 105
q43 43 105 70.5t152 27.5q58 0 105.5 -13t81 -37.5t52 -60t18.5 -80.5q0 -64 -34 -106t-83 -56v-3q29 -8 54.5 -22.5t44 -36t29 -49.5t10.5 -64q0 -55 -24 -96t-62 -68t-86.5 -40.5t-96.5 -13.5z" />
    <glyph glyph-name="uni0418" unicode="&#x418;" horiz-adv-x="771" 
d="M73 708h169v-466h4l272 466h180v-708h-169v455h-3l-270 -455h-183v708z" />
    <glyph glyph-name="uni0419" unicode="&#x419;" horiz-adv-x="771" 
d="M73 708h169v-466h4l272 466h180v-708h-169v455h-3l-270 -455h-183v708zM379 764q-68 0 -116 33.5t-59 106.5l85 17q5 -32 28.5 -49.5t61.5 -17.5q37 0 60.5 17.5t28.5 49.5l86 -17q-12 -73 -59 -106.5t-116 -33.5z" />
    <glyph glyph-name="uni041A" unicode="&#x41a;" horiz-adv-x="711" 
d="M73 708h168v-288h3l253 288h214l-305 -326l323 -382h-223l-263 326h-2v-326h-168v708z" />
    <glyph glyph-name="uni041B" unicode="&#x41b;" horiz-adv-x="799" 
d="M105 -7q-25 0 -54 3t-44 8l14 142q20 -7 42 -7q28 0 51 13.5t39 49.5t24.5 98t8.5 158v250h540v-708h-171v563h-205v-98q0 -129 -14.5 -219t-44.5 -146.5t-76 -81.5t-110 -25z" />
    <glyph glyph-name="uni041C" unicode="&#x41c;" horiz-adv-x="955" 
d="M73 708h243l161 -454h4l154 454h247v-708h-167l4 501h-3l-184 -501h-120l-179 501h-3l4 -501h-161v708z" />
    <glyph glyph-name="uni041D" unicode="&#x41d;" horiz-adv-x="764" 
d="M73 708h171v-268h276v268h171v-708h-171v296h-276v-296h-171v708z" />
    <glyph glyph-name="uni041E" unicode="&#x41e;" horiz-adv-x="851" 
d="M425 -19q-83 0 -153.5 27t-122 76.5t-80.5 119t-29 153.5q0 85 29 153.5t80.5 116.5t122 74t153.5 26t154 -26t122.5 -74t80.5 -116.5t29 -153.5q0 -84 -29 -153.5t-80.5 -119t-122.5 -76.5t-154 -27zM425 137q45 0 82 16.5t64 45.5t42 69.5t15 88.5q0 46 -15 86
t-41.5 68.5t-64 45t-82.5 16.5t-82 -16.5t-64 -45t-41.5 -68.5t-14.5 -86q0 -48 15 -88.5t41.5 -69.5t63.5 -45.5t82 -16.5z" />
    <glyph glyph-name="uni041F" unicode="&#x41f;" horiz-adv-x="760" 
d="M73 708h614v-708h-171v563h-272v-563h-171v708z" />
    <glyph glyph-name="uni0420" unicode="&#x420;" horiz-adv-x="640" 
d="M73 708h260q58 0 108.5 -11.5t88 -37t59 -67t21.5 -102.5q0 -62 -23 -104.5t-62 -68.5t-90 -38t-106 -12h-85v-267h-171v708zM316 403q24 0 46 4t39.5 14t27.5 26.5t10 41.5t-10 41t-27 25t-38.5 12t-44.5 3h-75v-167h72z" />
    <glyph glyph-name="uni0421" unicode="&#x421;" horiz-adv-x="696" 
d="M421 -19q-82 0 -151.5 27t-120.5 76.5t-80 118.5t-29 152q0 85 29.5 154t81.5 117.5t122 74.5t151 26q75 0 147.5 -26.5t117.5 -77.5l-116 -116q-24 33 -63 49t-80 16q-45 0 -82.5 -16.5t-64.5 -45.5t-42 -68.5t-15 -86.5q0 -48 15 -88t41.5 -68.5t63.5 -44.5t81 -16
q51 0 89 20t61 52l119 -112q-47 -54 -116 -85.5t-159 -31.5z" />
    <glyph glyph-name="uni0422" unicode="&#x422;" horiz-adv-x="581" 
d="M205 562h-200v146h571v-146h-200v-562h-171v562z" />
    <glyph glyph-name="uni0423" unicode="&#x423;" horiz-adv-x="681" 
d="M167 -12q-42 0 -69 3.5t-44 8.5l21 141q12 -4 31 -7.5t33 -3.5q24 0 40.5 6.5t29 18.5t22.5 29.5t21 39.5l3 6l-270 478h197l166 -323l156 323h192l-265 -504q-24 -47 -48 -86.5t-53.5 -68t-68.5 -45t-94 -16.5z" />
    <glyph glyph-name="uni0424" unicode="&#x424;" horiz-adv-x="906" 
d="M367 67q-73 1 -134 22.5t-105 60.5t-68.5 94t-24.5 121q0 70 23 124.5t66 92t104.5 58t138.5 23.5v64h171v-64q76 -3 138 -23t105 -57.5t66.5 -92t23.5 -125.5q0 -66 -24.5 -120.5t-69 -93.5t-105.5 -61t-134 -23v-86h-171v86zM367 518q-84 -8 -120.5 -50t-36.5 -104
q0 -65 36.5 -104t120.5 -48v306zM538 212q84 9 120.5 48t36.5 104q0 62 -36.5 104t-120.5 50v-306z" />
    <glyph glyph-name="uni0425" unicode="&#x425;" horiz-adv-x="703" 
d="M240 374l-228 334h206l132 -220l130 220h199l-224 -334l256 -374h-211l-155 250l-149 -250h-204z" />
    <glyph glyph-name="uni0426" unicode="&#x426;" horiz-adv-x="784" 
d="M614 0h-541v708h171v-562h272v562h171v-562h77v-297h-150v151z" />
    <glyph glyph-name="uni0427" unicode="&#x427;" horiz-adv-x="702" 
d="M458 262q-27 -8 -69 -15t-89 -7q-121 0 -178.5 49t-57.5 158v261h169v-218q0 -61 27 -85.5t87 -24.5q14 0 30 1.5t31 3.5t28 5.5t22 7.5v310h171v-708h-171v262z" />
    <glyph glyph-name="uni0428" unicode="&#x428;" horiz-adv-x="1105" 
d="M73 708h171v-562h223v562h171v-562h223v562h171v-708h-959v708z" />
    <glyph glyph-name="uni0429" unicode="&#x429;" horiz-adv-x="1129" 
d="M959 0h-886v708h171v-562h223v562h171v-562h223v562h171v-562h77v-297h-150v151z" />
    <glyph glyph-name="uni042A" unicode="&#x42a;" horiz-adv-x="722" 
d="M152 563h-147v145h318v-260h90q56 0 106 -12t88 -38t60 -69t22 -104q0 -59 -22 -101.5t-60 -70t-88 -40.5t-105 -13h-262v563zM401 136q52 0 85.5 21t33.5 69q0 47 -32.5 68t-86.5 21h-78v-179h78z" />
    <glyph glyph-name="uni042B" unicode="&#x42b;" horiz-adv-x="936" 
d="M73 708h171v-260h90q56 0 106 -12t88 -38.5t60 -69t22 -103.5q0 -60 -22.5 -102.5t-60 -69.5t-87.5 -40t-105 -13h-262v708zM321 136q52 0 85.5 21t33.5 69q0 47 -32.5 68t-86.5 21h-77v-179h77zM693 708h170v-708h-170v708z" />
    <glyph glyph-name="uni042C" unicode="&#x42c;" horiz-adv-x="640" 
d="M73 708h171v-260h90q56 0 106 -12t88 -38.5t60 -69t22 -103.5q0 -60 -22.5 -102.5t-60 -69.5t-87.5 -40t-105 -13h-262v708zM321 136q52 0 85.5 21t33.5 69q0 47 -32.5 68t-86.5 21h-77v-179h77z" />
    <glyph glyph-name="uni042D" unicode="&#x42d;" horiz-adv-x="696" 
d="M277 -19q-92 0 -161 32.5t-111 82.5l104 115q26 -35 69 -55.5t102 -20.5q37 0 68.5 12t56 33.5t40.5 50.5t21 62h-263v136h261q-7 30 -23.5 56t-40.5 45.5t-54.5 31t-66.5 11.5q-58 0 -98.5 -20t-62.5 -51l-108 121q45 48 115.5 76t151.5 28q80 0 149 -27t120 -76
t80.5 -118t29.5 -152t-29 -151.5t-80 -117.5t-120.5 -76.5t-149.5 -27.5z" />
    <glyph glyph-name="uni042E" unicode="&#x42e;" horiz-adv-x="1114" 
d="M711 -19q-75 0 -137 24t-108.5 66t-75.5 100t-38 127h-108v-298h-171v708h171v-270h112q12 63 42 116.5t76 91.5t105.5 59.5t131.5 21.5q82 0 149.5 -28.5t114.5 -78t73 -117.5t26 -147t-26 -147.5t-73 -119t-114.5 -79.5t-149.5 -29zM711 137q43 0 76.5 17.5t56.5 47
t35 69.5t12 85t-12 84.5t-35 69t-56.5 46.5t-76.5 17t-76.5 -17t-57 -46.5t-35.5 -69t-12 -84.5t12 -85t35.5 -69.5t57 -47t76.5 -17.5z" />
    <glyph glyph-name="uni042F" unicode="&#x42f;" horiz-adv-x="668" 
d="M196 289q-66 23 -103 74.5t-37 126.5q0 61 22.5 102.5t60.5 67t88.5 37t107.5 11.5h260v-708h-171v263h-60l-149 -263h-197zM424 393v179h-80q-25 0 -46.5 -4t-38 -14.5t-26 -27.5t-9.5 -42t10 -42.5t27 -28t40 -15.5t49 -5h74z" />
    <glyph glyph-name="uni0430" unicode="&#x430;" horiz-adv-x="566" 
d="M214 -12q-30 0 -62 8t-58.5 26t-43.5 48t-17 74q0 54 29.5 87t76 51t103.5 24t111 6v8q0 37 -26 54.5t-64 17.5q-35 0 -67.5 -15t-55.5 -36l-83 89q44 42 102.5 63t119.5 21q63 0 106.5 -15.5t70.5 -48t39.5 -82t12.5 -117.5v-251h-150v53h-3q-19 -31 -57.5 -48
t-83.5 -17zM255 98q50 0 76.5 27.5t26.5 74.5v17h-21q-27 0 -54.5 -2.5t-49 -9.5t-35.5 -20.5t-14 -35.5q0 -14 6.5 -24t16.5 -16t23 -8.5t25 -2.5z" />
    <glyph glyph-name="uni0431" unicode="&#x431;" horiz-adv-x="644" 
d="M327 -16q-60 0 -108.5 19t-85.5 53q-23 21 -39.5 45.5t-26.5 54.5t-14.5 67t-4.5 84q0 85 7.5 155.5t32.5 123t71.5 85t124.5 42.5l108 14q23 3 39 6.5t26 9t16 13t9 19.5l116 -33q-8 -37 -20.5 -62.5t-31 -43t-43 -27t-56.5 -13.5l-127 -17q-32 -5 -60 -12.5t-49 -26.5
t-34.5 -52.5t-16.5 -88.5h2q28 48 76.5 75t119.5 27q48 0 92.5 -17t78.5 -50t54.5 -80.5t20.5 -107.5q0 -61 -21.5 -109.5t-59 -82.5t-88 -52t-108.5 -18zM328 122q29 0 51 11t37 29.5t22.5 41.5t7.5 47t-8 47t-23 40.5t-37 28.5t-51 11t-51 -11t-36.5 -28.5t-22 -40.5
t-7.5 -47t7.5 -47t22.5 -41.5t37 -29.5t51 -11z" />
    <glyph glyph-name="uni0432" unicode="&#x432;" horiz-adv-x="585" 
d="M64 498h276q30 0 62.5 -5t59 -19.5t44 -40t17.5 -66.5q0 -39 -22 -66.5t-57 -38.5v-2q41 -8 71 -37.5t30 -79.5q0 -37 -15 -64t-41.5 -44.5t-61.5 -26t-74 -8.5h-289v498zM305 101q32 0 54 13.5t22 42.5q0 31 -23.5 43t-54.5 12h-79v-111h81zM304 297q24 0 43.5 12
t19.5 40q0 26 -20 37.5t-50 11.5h-73v-101h80z" />
    <glyph glyph-name="uni0433" unicode="&#x433;" horiz-adv-x="449" 
d="M64 498h365v-126h-200v-372h-165v498z" />
    <glyph glyph-name="uni0434" unicode="&#x434;" horiz-adv-x="655" 
d="M10 127h47q13 16 24 37.5t19.5 51t13 67.5t4.5 88v127h453v-371h69v-252h-134v125h-362v-125h-134v252zM406 127v245h-134v-42q0 -76 -13 -123.5t-33 -79.5h180z" />
    <glyph glyph-name="uni0435" unicode="&#x435;" horiz-adv-x="596" 
d="M313 -16q-56 0 -106 17.5t-87.5 51t-59 82.5t-21.5 112q0 61 21 110.5t57 84t85 53.5t106 19q55 0 101 -18.5t79 -53.5t51.5 -85t18.5 -114v-20t-1 -19h-361q2 -21 12.5 -38t27 -29.5t37 -19.5t42.5 -7q39 0 66 14.5t44 37.5l114 -72q-35 -51 -92.5 -78.5t-133.5 -27.5z
M407 306q0 39 -24.5 67t-73.5 28q-24 0 -44 -7.5t-35 -20.5t-24 -30.5t-10 -36.5h211z" />
    <glyph glyph-name="uni0436" unicode="&#x436;" horiz-adv-x="857" 
d="M178 263l-170 235h190l145 -221h3v221h165v-221h3l145 221h190l-170 -235l182 -263h-191l-156 233h-3v-233h-165v233h-3l-156 -233h-191z" />
    <glyph glyph-name="uni0437" unicode="&#x437;" horiz-adv-x="502" 
d="M249 -19q-75 0 -137.5 22t-101.5 63l82 90q20 -23 51.5 -40t76.5 -17q34 0 58.5 12t24.5 40q0 16 -8 26.5t-21.5 16.5t-31.5 8t-39 2h-43v102h45q38 0 62 10t24 39q0 12 -6.5 20.5t-16.5 13t-22.5 6.5t-24.5 2q-32 0 -62 -11t-51 -34l-78 83q35 38 87.5 58.5t124.5 20.5
q45 0 83 -9t65 -26.5t42 -43t15 -58.5q0 -45 -26 -75.5t-64 -39.5v-3q45 -11 75 -41t30 -81q0 -39 -19 -68.5t-49.5 -49t-68.5 -29t-76 -9.5z" />
    <glyph glyph-name="uni0438" unicode="&#x438;" horiz-adv-x="639" 
d="M64 498h162v-290h2l173 290h174v-498h-160v283h-3l-170 -283h-178v498z" />
    <glyph glyph-name="uni0439" unicode="&#x439;" horiz-adv-x="639" 
d="M319 572q-65 0 -109.5 31.5t-55.5 99.5l80 16q5 -31 27.5 -45t57.5 -14t57.5 14t26.5 45l80 -16q-11 -69 -55.5 -100t-108.5 -31zM64 498h162v-290h2l173 290h174v-498h-160v283h-3l-170 -283h-178v498z" />
    <glyph glyph-name="uni043A" unicode="&#x43a;" horiz-adv-x="599" 
d="M64 498h165v-211h3l163 211h199l-195 -233l204 -265h-201l-170 225h-3v-225h-165v498z" />
    <glyph glyph-name="uni043B" unicode="&#x43b;" horiz-adv-x="640" 
d="M95 -6q-9 0 -22.5 0.5t-27 2t-24.5 2.5t-16 3l10 125q7 -2 15 -3t16 -1q18 0 33.5 7.5t26.5 28.5t17.5 58t6.5 96v185h446v-498h-165v372h-123v-89q0 -81 -12.5 -136.5t-37 -89.5t-60.5 -48.5t-83 -14.5z" />
    <glyph glyph-name="uni043C" unicode="&#x43c;" horiz-adv-x="801" 
d="M64 498h217l121 -297h2l114 297h219v-498h-158v327h-3l-128 -327h-100l-127 328h-3v-328h-154v498z" />
    <glyph glyph-name="uni043D" unicode="&#x43d;" horiz-adv-x="620" 
d="M64 498h165v-176h162v176h165v-498h-165v196h-162v-196h-165v498z" />
    <glyph glyph-name="uni043E" unicode="&#x43e;" horiz-adv-x="632" 
d="M315 -16q-56 0 -106.5 19t-88 53.5t-59.5 84t-22 110.5t22 110t59.5 83t88 52t106.5 18q57 0 107 -18t88 -52t60 -83t22 -110t-22 -110.5t-60 -84t-88 -53.5t-107 -19zM316 122q29 0 51 11t37 29.5t22.5 41.5t7.5 47t-8 47t-23 40.5t-37 28.5t-51 11t-51 -11t-36.5 -28.5
t-22 -40.5t-7.5 -47t7.5 -47t22.5 -41.5t37 -29.5t51 -11z" />
    <glyph glyph-name="uni043F" unicode="&#x43f;" horiz-adv-x="620" 
d="M64 498h492v-498h-165v372h-162v-372h-165v498z" />
    <glyph glyph-name="uni0440" unicode="&#x440;" horiz-adv-x="657" 
d="M64 498h156v-61h3q23 30 63.5 52.5t95.5 22.5q54 0 98 -21t74.5 -57t47 -83.5t16.5 -99.5t-16 -100t-46.5 -84.5t-74.5 -58.5t-100 -22q-46 0 -87 18.5t-64 50.5h-2v-295h-164v738zM342 122q29 0 51 11t36.5 29t22 41.5t7.5 47.5t-7.5 47t-22 40.5t-36.5 28.5t-51 11
q-28 0 -50 -11t-37.5 -29t-24 -41t-8.5 -47t8.5 -47t24 -41t37.5 -29t50 -11z" />
    <glyph glyph-name="uni0441" unicode="&#x441;" horiz-adv-x="503" 
d="M318 -16q-59 0 -110 18t-88.5 52.5t-59 83.5t-21.5 111q0 61 21.5 110t59 83.5t88.5 53t109 18.5q27 0 53.5 -5t51 -13.5t45 -21t35.5 -27.5l-95 -110q-14 18 -38 29t-49 11q-26 0 -47 -10.5t-36 -28t-23.5 -40.5t-8.5 -49t8 -49t23.5 -40.5t37 -27.5t48.5 -10
q25 0 49.5 9.5t39.5 27.5l91 -111q-31 -30 -80 -47t-104 -17z" />
    <glyph glyph-name="uni0442" unicode="&#x442;" horiz-adv-x="503" 
d="M169 372h-149v126h463v-126h-149v-372h-165v372z" />
    <glyph glyph-name="uni0443" unicode="&#x443;" horiz-adv-x="567" 
d="M126 -240q-23 0 -47.5 3t-42.5 8l18 138q12 -4 26.5 -6.5t26.5 -2.5q38 0 55 17.5t29 49.5l16 41l-208 490h182l111 -320h3l99 320h174l-223 -573q-15 -39 -33.5 -69.5t-44 -52t-60 -32.5t-81.5 -11z" />
    <glyph glyph-name="uni0444" unicode="&#x444;" horiz-adv-x="833" 
d="M334 -17q-69 1 -123.5 20t-93 53.5t-58.5 83t-20 108.5t20.5 108.5t58.5 82.5t92.5 52.5t123.5 20.5v244h165v-244q69 -2 123.5 -20.5t92.5 -52.5t58.5 -82.5t20.5 -108.5t-20 -108.5t-58.5 -83t-93 -53.5t-123.5 -20v-223h-165v223zM334 378q-66 -2 -97.5 -37t-31.5 -92
q0 -54 30.5 -91t98.5 -39v259zM499 119q68 2 98.5 39t30.5 91q0 57 -31.5 92t-97.5 37v-259z" />
    <glyph glyph-name="uni0445" unicode="&#x445;" horiz-adv-x="594" 
d="M196 261l-180 237h191l93 -133l94 133h185l-179 -237l197 -261h-193l-107 153l-110 -153h-190z" />
    <glyph glyph-name="uni0446" unicode="&#x446;" horiz-adv-x="642" 
d="M493 0h-429v498h165v-371h164v371h165v-371h69v-252h-134v125z" />
    <glyph glyph-name="uni0447" unicode="&#x447;" horiz-adv-x="589" 
d="M360 171q-20 -5 -51.5 -9t-74.5 -4q-182 0 -182 155v185h161v-135q0 -51 20.5 -66.5t59.5 -15.5q19 0 37.5 3.5t29.5 5.5v208h165v-498h-165v171z" />
    <glyph glyph-name="uni0448" unicode="&#x448;" horiz-adv-x="905" 
d="M64 498h165v-371h141v371h165v-371h141v371h165v-498h-777v498z" />
    <glyph glyph-name="uni0449" unicode="&#x449;" horiz-adv-x="925" 
d="M776 -125v125h-712v498h165v-371h141v371h165v-371h141v371h165v-371h69v-252h-134z" />
    <glyph glyph-name="uni044A" unicode="&#x44a;" horiz-adv-x="638" 
d="M138 372h-118v126h283v-163h101q42 0 79.5 -9t65.5 -28.5t44.5 -51.5t16.5 -77q0 -44 -16.5 -76t-44.5 -52.5t-65.5 -30.5t-79.5 -10h-266v372zM373 108q35 0 55 15t20 47q0 31 -19.5 45t-55.5 14h-70v-121h70z" />
    <glyph glyph-name="uni044B" unicode="&#x44b;" horiz-adv-x="833" 
d="M64 498h165v-163h101q42 0 79.5 -9t65.5 -28.5t44.5 -51.5t16.5 -77q0 -44 -16.5 -76t-44.5 -52.5t-65.5 -30.5t-79.5 -10h-266v498zM299 108q35 0 55 15t20 47q0 31 -19.5 45t-55.5 14h-70v-121h70zM604 498h165v-498h-165v498z" />
    <glyph glyph-name="uni044C" unicode="&#x44c;" horiz-adv-x="564" 
d="M64 498h165v-163h101q42 0 79.5 -9t65.5 -28.5t44.5 -51.5t16.5 -77q0 -44 -16.5 -76t-44.5 -52.5t-65.5 -30.5t-79.5 -10h-266v498zM299 108q35 0 55 15t20 47q0 31 -19.5 45t-55.5 14h-70v-121h70z" />
    <glyph glyph-name="uni044D" unicode="&#x44d;" horiz-adv-x="518" 
d="M197 -18q-61 0 -112 19t-84 49l82 105q17 -20 43.5 -32t63.5 -12q47 0 81.5 24t43.5 69h-172v104h168q-10 38 -41.5 60t-76.5 22q-36 0 -65 -13.5t-46 -32.5l-78 106q31 28 83.5 46t108.5 18q64 0 116.5 -19t89.5 -54t57 -84t20 -109t-19.5 -109t-56 -84t-89 -54
t-117.5 -19z" />
    <glyph glyph-name="uni044E" unicode="&#x44e;" horiz-adv-x="874" 
d="M563 -17q-49 0 -93 15t-79 42.5t-58.5 67t-32.5 89.5h-71v-197h-165v498h165v-179h74q11 45 35 81t58.5 61.5t77 39t89.5 13.5q55 0 104.5 -18.5t86.5 -53t58.5 -83.5t21.5 -110t-21.5 -110.5t-58.5 -84t-86.5 -53t-104.5 -18.5zM563 123q53 0 83 35.5t30 90.5t-30.5 91
t-82.5 36q-51 0 -81.5 -36t-30.5 -91q0 -56 30.5 -91t81.5 -35z" />
    <glyph glyph-name="uni044F" unicode="&#x44f;" horiz-adv-x="601" 
d="M147 183q-46 17 -73.5 52.5t-27.5 95.5q0 44 16.5 75.5t44.5 52t65 30t78 9.5h278v-498h-165v165h-61l-85 -165h-187zM363 268v126h-79q-35 0 -59 -15.5t-24 -47.5q0 -35 23 -49t60 -14h79z" />
    <glyph glyph-name="uni0450" unicode="&#x450;" horiz-adv-x="596" 
d="M260 572l-146 144h166l104 -144h-124zM313 -16q-56 0 -106 17.5t-87.5 51t-59 82.5t-21.5 112q0 61 21 110.5t57 84t85 53.5t106 19q55 0 101 -18.5t79 -53.5t51.5 -85t18.5 -114v-20t-1 -19h-361q2 -21 12.5 -38t27 -29.5t37 -19.5t42.5 -7q39 0 66 14.5t44 37.5
l114 -72q-35 -51 -92.5 -78.5t-133.5 -27.5zM407 306q0 39 -24.5 67t-73.5 28q-24 0 -44 -7.5t-35 -20.5t-24 -30.5t-10 -36.5h211z" />
    <glyph glyph-name="uni0451" unicode="&#x451;" horiz-adv-x="596" 
d="M503 658q0 -35 -24.5 -58.5t-58.5 -23.5q-35 0 -59 24t-24 58q0 16 6.5 30.5t17.5 26t26 18t33 6.5q34 0 58.5 -23.5t24.5 -57.5zM286 658q0 -35 -24.5 -58.5t-59.5 -23.5t-59 24t-24 58q0 16 6.5 30.5t17.5 26t26.5 18t32.5 6.5q35 0 59.5 -23.5t24.5 -57.5zM313 -16
q-56 0 -106 17.5t-87.5 51t-59 82.5t-21.5 112q0 61 21 110.5t57 84t85 53.5t106 19q55 0 101 -18.5t79 -53.5t51.5 -85t18.5 -114v-20t-1 -19h-361q2 -21 12.5 -38t27 -29.5t37 -19.5t42.5 -7q39 0 66 14.5t44 37.5l114 -72q-35 -51 -92.5 -78.5t-133.5 -27.5zM407 306
q0 39 -24.5 67t-73.5 28q-24 0 -44 -7.5t-35 -20.5t-24 -30.5t-10 -36.5h211z" />
    <glyph glyph-name="uni0452" unicode="&#x452;" horiz-adv-x="617" 
d="M348 -240q-18 0 -39 2t-38 7l13 128q8 -2 17 -4t20 -2q42 0 56.5 26.5t14.5 66.5v276q0 21 -3 40t-11.5 33.5t-22.5 23t-36 8.5q-43 0 -66 -30.5t-23 -75.5v-259h-164v564h-66v95h66v97h164v-97h134v-95h-134v-139h2q17 30 54 53.5t89 23.5q51 0 85.5 -18t56 -46.5
t31 -65.5t9.5 -74v-320q0 -46 -10.5 -85.5t-35.5 -69t-65 -46.5t-98 -17z" />
    <glyph glyph-name="uni0453" unicode="&#x453;" horiz-adv-x="449" 
d="M275 572h-124l104 144h166zM64 498h365v-126h-200v-372h-165v498z" />
    <glyph glyph-name="uni0454" unicode="&#x454;" horiz-adv-x="518" 
d="M321 -18q-65 0 -117.5 19t-89 54t-56 84t-19.5 109t20 109t57 84t89 54t117 19q56 0 108.5 -18t83.5 -46l-78 -106q-17 19 -46 32.5t-65 13.5q-45 0 -76.5 -22t-41.5 -60h168v-104h-172q9 -45 43.5 -69t81.5 -24q37 0 63.5 12t43.5 32l82 -105q-33 -30 -84 -49t-112 -19z
" />
    <glyph glyph-name="uni0455" unicode="&#x455;" horiz-adv-x="472" 
d="M228 -16q-61 0 -119.5 19.5t-97.5 57.5l92 97q22 -24 54 -40t68 -16q20 0 39.5 9.5t19.5 33.5q0 23 -24 34t-75 23q-26 6 -52 16t-46.5 27t-33.5 42t-13 60q0 45 19 76.5t49 51.5t66.5 29.5t72.5 9.5q56 0 109.5 -17.5t90.5 -52.5l-90 -93q-20 19 -47 32t-57 13
q-23 0 -42.5 -9t-19.5 -31q0 -21 21.5 -30t69.5 -20q28 -6 56.5 -17t51.5 -29t37 -44t14 -62q0 -47 -19 -79.5t-49.5 -52.5t-68.5 -29t-76 -9z" />
    <glyph glyph-name="uni0456" unicode="&#x456;" horiz-adv-x="296" 
d="M66 498h164v-498h-164v498zM148 567q-40 0 -67 26.5t-27 63.5q0 18 7 34.5t20 28.5t30 19.5t37 7.5q19 0 36.5 -7t30 -19t20 -28.5t7.5 -35.5t-7.5 -35.5t-20 -28.5t-30 -19t-36.5 -7z" />
    <glyph glyph-name="uni0457" unicode="&#x457;" horiz-adv-x="296" 
d="M340 658q0 -35 -24.5 -58.5t-58.5 -23.5q-35 0 -59 24t-24 58q0 16 6.5 30.5t17.5 26t26 18t33 6.5q34 0 58.5 -23.5t24.5 -57.5zM123 658q0 -35 -24.5 -58.5t-59.5 -23.5t-59 24t-24 58q0 16 6.5 30.5t17.5 26t26.5 18t32.5 6.5q35 0 59.5 -23.5t24.5 -57.5zM68 0v498
h164v-498h-164z" />
    <glyph glyph-name="uni0458" unicode="&#x458;" horiz-adv-x="299" 
d="M34 -240q-17 0 -37 2t-34 6l11 137q9 -3 18.5 -4t16.5 -1q36 0 48 24.5t12 62.5v511h164v-511q0 -46 -8.5 -87.5t-30.5 -72.5t-61 -49t-99 -18zM151 567q-40 0 -67 26.5t-27 63.5q0 18 7 34.5t20 28.5t30 19.5t37 7.5q19 0 36.5 -7t30 -19t20 -28.5t7.5 -35.5t-7.5 -35.5
t-20 -28.5t-30 -19t-36.5 -7z" />
    <glyph glyph-name="uni0459" unicode="&#x459;" horiz-adv-x="915" 
d="M95 -6q-9 0 -22.5 0.5t-27 2t-24.5 2.5t-16 3l10 124q7 -2 15 -3t16 -1q18 0 33.5 7.5t26.5 28.5t17.5 58t6.5 96v186h450v-163h101q42 0 79.5 -9t65.5 -28.5t44.5 -51.5t16.5 -77q0 -44 -16.5 -76t-44.5 -52.5t-65.5 -30.5t-79.5 -10h-266v372h-129v-89
q0 -81 -12.5 -136.5t-36.5 -89.5t-59.5 -48.5t-82.5 -14.5zM650 108q35 0 55 15t20 47q0 31 -19.5 45t-55.5 14h-70v-121h70z" />
    <glyph glyph-name="uni045A" unicode="&#x45a;" horiz-adv-x="891" 
d="M64 498h165v-173h162v173h165v-173h101q42 0 79.5 -8.5t65.5 -28t44.5 -50t16.5 -75.5q0 -43 -16.5 -73.5t-44 -50.5t-65 -29.5t-79.5 -9.5h-267v208h-162v-208h-165v498zM623 106q36 0 57 14t21 46t-20 45.5t-58 13.5h-67v-119h67z" />
    <glyph glyph-name="uni045B" unicode="&#x45b;" horiz-adv-x="617" 
d="M66 564h-66v95h66v97h164v-97h134v-95h-134v-139h2q17 30 54 53.5t89 23.5q51 0 85.5 -18t56 -46.5t31 -65.5t9.5 -74v-298h-165v260q0 21 -3 40t-11.5 33.5t-22.5 23t-36 8.5q-43 0 -66 -30.5t-23 -75.5v-259h-164v564z" />
    <glyph glyph-name="uni045C" unicode="&#x45c;" horiz-adv-x="599" 
d="M357 572h-124l104 144h166zM64 498h165v-211h3l163 211h199l-195 -233l204 -265h-201l-170 225h-3v-225h-165v498z" />
    <glyph glyph-name="uni045D" unicode="&#x45d;" horiz-adv-x="639" 
d="M273 572l-146 144h166l104 -144h-124zM64 498h162v-290h2l173 290h174v-498h-160v283h-3l-170 -283h-178v498z" />
    <glyph glyph-name="uni045E" unicode="&#x45e;" horiz-adv-x="567" 
d="M294 572q-65 0 -109.5 31.5t-55.5 99.5l80 16q5 -31 27.5 -45t57.5 -14t57.5 14t26.5 45l80 -16q-11 -69 -55.5 -100t-108.5 -31zM126 -240q-23 0 -47.5 3t-42.5 8l18 138q12 -4 26.5 -6.5t26.5 -2.5q38 0 55 17.5t29 49.5l16 41l-208 490h182l111 -320h3l99 320h174
l-223 -573q-15 -39 -33.5 -69.5t-44 -52t-60 -32.5t-81.5 -11z" />
    <glyph glyph-name="uni045F" unicode="&#x45f;" horiz-adv-x="620" 
d="M243 0h-179v498h165v-371h162v371h165v-498h-179v-125h-134v125z" />
    <glyph glyph-name="uni0490" unicode="&#x490;" horiz-adv-x="523" 
d="M73 708h307v132h138v-279h-274v-561h-171v708z" />
    <glyph glyph-name="uni0491" unicode="&#x491;" horiz-adv-x="449" 
d="M64 498h243v115h122v-241h-200v-372h-165v498z" />
    <glyph glyph-name="Wgrave" unicode="&#x1e80;" horiz-adv-x="1025" 
d="M823 0h-169l-140 479h-3l-140 -479h-170l-201 708h184l112 -471h3l126 471h178l127 -471h3l114 471h178zM467 764l-146 144h166l104 -144h-124z" />
    <glyph glyph-name="wgrave" unicode="&#x1e81;" horiz-adv-x="871" 
d="M698 0h-165l-98 310h-2l-96 -310h-165l-172 498h177l86 -315h3l89 315h165l92 -315h2l87 315h170zM385 572l-146 144h166l104 -144h-124z" />
    <glyph glyph-name="Wacute" unicode="&#x1e82;" horiz-adv-x="1025" 
d="M823 0h-169l-140 479h-3l-140 -479h-170l-201 708h184l112 -471h3l126 471h178l127 -471h3l114 471h178zM561 764h-124l104 144h166z" />
    <glyph glyph-name="wacute" unicode="&#x1e83;" horiz-adv-x="871" 
d="M698 0h-165l-98 310h-2l-96 -310h-165l-172 498h177l86 -315h3l89 315h165l92 -315h2l87 315h170zM490 572h-124l104 144h166z" />
    <glyph glyph-name="Wdieresis" unicode="&#x1e84;" horiz-adv-x="1025" 
d="M823 0h-169l-140 479h-3l-140 -479h-170l-201 708h184l112 -471h3l126 471h178l127 -471h3l114 471h178zM704 850q0 -35 -24.5 -58.5t-58.5 -23.5q-35 0 -59 24t-24 58q0 16 6.5 30.5t17.5 26t26 18t33 6.5q34 0 58.5 -23.5t24.5 -57.5zM487 850q0 -35 -24.5 -58.5
t-59.5 -23.5t-59 24t-24 58q0 16 6.5 30.5t17.5 26t26.5 18t32.5 6.5q35 0 59.5 -23.5t24.5 -57.5z" />
    <glyph glyph-name="wdieresis" unicode="&#x1e85;" horiz-adv-x="871" 
d="M698 0h-165l-98 310h-2l-96 -310h-165l-172 498h177l86 -315h3l89 315h165l92 -315h2l87 315h170zM626 658q0 -35 -24.5 -58.5t-58.5 -23.5q-35 0 -59 24t-24 58q0 16 6.5 30.5t17.5 26t26 18t33 6.5q34 0 58.5 -23.5t24.5 -57.5zM409 658q0 -35 -24.5 -58.5t-59.5 -23.5
t-59 24t-24 58q0 16 6.5 30.5t17.5 26t26.5 18t32.5 6.5q35 0 59.5 -23.5t24.5 -57.5z" />
    <glyph glyph-name="uni1EA0" unicode="&#x1ea0;" horiz-adv-x="729" 
d="M278 -118q0 15 6 28.5t16.5 24t25.5 17t32 6.5q35 0 58.5 -22t23.5 -54t-23.5 -54t-58.5 -22t-57.5 23t-22.5 53zM553 0l-55 139h-274l-52 -139h-186l297 708h166l294 -708h-190zM363 519l-90 -243h178z" />
    <glyph glyph-name="uni1EA1" unicode="&#x1ea1;" horiz-adv-x="566" 
d="M191 -118q0 15 6 28.5t16.5 24t25.5 17t32 6.5q35 0 58.5 -22t23.5 -54t-23.5 -54t-58.5 -22t-57.5 23t-22.5 53zM358 217h-21q-27 0 -54.5 -2.5t-49 -9.5t-35.5 -20.5t-14 -35.5q0 -14 6.5 -24t16.5 -16t23 -8.5t25 -2.5q50 0 76.5 27.5t26.5 74.5v17zM57 430
q44 42 102.5 63t119.5 21q63 0 106.5 -15.5t70.5 -48t39.5 -82t12.5 -117.5v-251h-150v53h-3q-19 -31 -57.5 -48t-83.5 -17q-30 0 -62 8t-58.5 26t-43.5 48t-17 74q0 54 29.5 87t76 51t103.5 24t111 6v8q0 37 -26 54.5t-64 17.5q-35 0 -67.5 -15t-55.5 -36z" />
    <glyph glyph-name="uni1EA2" unicode="&#x1ea2;" horiz-adv-x="729" 
d="M328 746v14q-2 23 3 37t28 27q6 2 12.5 8.5t6.5 12.5q0 4 -3.5 7.5t-11.5 3.5q-9 0 -18 -5.5t-15 -24.5l-69 31q27 71 103 71q39 0 67.5 -20.5t28.5 -58.5q0 -32 -16.5 -49t-30.5 -25q-7 -4 -7 -20v-9h-78zM553 0l-55 139h-274l-52 -139h-186l297 708h166l294 -708h-190z
M363 519l-90 -243h178z" />
    <glyph glyph-name="uni1EA3" unicode="&#x1ea3;" horiz-adv-x="566" 
d="M261 535v14q-2 23 3 37t28 27q6 2 12.5 8.5t6.5 12.5q0 4 -3.5 7.5t-11.5 3.5q-9 0 -18 -5.5t-15 -24.5l-69 31q27 71 103 71q39 0 67.5 -20.5t28.5 -58.5q0 -32 -16.5 -49t-30.5 -25q-7 -4 -7 -20v-9h-78zM358 217h-21q-27 0 -54.5 -2.5t-49 -9.5t-35.5 -20.5t-14 -35.5
q0 -14 6.5 -24t16.5 -16t23 -8.5t25 -2.5q50 0 76.5 27.5t26.5 74.5v17zM57 430q44 42 102.5 63t119.5 21q63 0 106.5 -15.5t70.5 -48t39.5 -82t12.5 -117.5v-251h-150v53h-3q-19 -31 -57.5 -48t-83.5 -17q-30 0 -62 8t-58.5 26t-43.5 48t-17 74q0 54 29.5 87t76 51
t103.5 24t111 6v8q0 37 -26 54.5t-64 17.5q-35 0 -67.5 -15t-55.5 -36z" />
    <glyph glyph-name="uni1EA4" unicode="&#x1ea4;" horiz-adv-x="729" 
d="M577 842h-109l75 130h135zM553 0l-55 139h-274l-52 -139h-186l297 708h166l294 -708h-190zM363 519l-90 -243h178zM322 746h-114l96 130h120l96 -130h-113l-43 51z" />
    <glyph glyph-name="uni1EA5" unicode="&#x1ea5;" horiz-adv-x="566" 
d="M501 634h-109l75 130h135zM358 217h-21q-27 0 -54.5 -2.5t-49 -9.5t-35.5 -20.5t-14 -35.5q0 -14 6.5 -24t16.5 -16t23 -8.5t25 -2.5q50 0 76.5 27.5t26.5 74.5v17zM57 430q44 42 102.5 63t119.5 21q63 0 106.5 -15.5t70.5 -48t39.5 -82t12.5 -117.5v-251h-150v53h-3
q-19 -31 -57.5 -48t-83.5 -17q-30 0 -62 8t-58.5 26t-43.5 48t-17 74q0 54 29.5 87t76 51t103.5 24t111 6v8q0 37 -26 54.5t-64 17.5q-35 0 -67.5 -15t-55.5 -36zM246 538h-114l96 130h120l96 -130h-113l-43 51z" />
    <glyph glyph-name="uni1EA6" unicode="&#x1ea6;" horiz-adv-x="729" 
d="M380 972h135l75 -130h-109zM553 0l-55 139h-274l-52 -139h-186l297 708h166l294 -708h-190zM363 519l-90 -243h178zM322 746h-114l96 130h120l96 -130h-113l-43 51z" />
    <glyph glyph-name="uni1EA7" unicode="&#x1ea7;" horiz-adv-x="566" 
d="M304 764h135l75 -130h-109zM358 217h-21q-27 0 -54.5 -2.5t-49 -9.5t-35.5 -20.5t-14 -35.5q0 -14 6.5 -24t16.5 -16t23 -8.5t25 -2.5q50 0 76.5 27.5t26.5 74.5v17zM57 430q44 42 102.5 63t119.5 21q63 0 106.5 -15.5t70.5 -48t39.5 -82t12.5 -117.5v-251h-150v53h-3
q-19 -31 -57.5 -48t-83.5 -17q-30 0 -62 8t-58.5 26t-43.5 48t-17 74q0 54 29.5 87t76 51t103.5 24t111 6v8q0 37 -26 54.5t-64 17.5q-35 0 -67.5 -15t-55.5 -36zM246 538h-114l96 130h120l96 -130h-113l-43 51z" />
    <glyph glyph-name="uni1EA8" unicode="&#x1ea8;" horiz-adv-x="729" 
d="M469 842v14q-2 23 3 37t28 27q6 2 12.5 8.5t6.5 12.5q0 4 -3.5 7.5t-11.5 3.5q-9 0 -18 -5.5t-15 -24.5l-69 31q27 71 103 71q39 0 67.5 -20.5t28.5 -58.5q0 -32 -16.5 -49t-30.5 -25q-7 -4 -7 -20v-9h-78zM553 0l-55 139h-274l-52 -139h-186l297 708h166l294 -708h-190z
M363 519l-90 -243h178zM322 746h-114l96 130h120l96 -130h-113l-43 51z" />
    <glyph glyph-name="uni1EA9" unicode="&#x1ea9;" horiz-adv-x="566" 
d="M393 634v14q-2 23 3 37t28 27q6 2 12.5 8.5t6.5 12.5q0 4 -3.5 7.5t-11.5 3.5q-9 0 -18 -5.5t-15 -24.5l-69 31q27 71 103 71q39 0 67.5 -20.5t28.5 -58.5q0 -32 -16.5 -49t-30.5 -25q-7 -4 -7 -20v-9h-78zM358 217h-21q-27 0 -54.5 -2.5t-49 -9.5t-35.5 -20.5t-14 -35.5
q0 -14 6.5 -24t16.5 -16t23 -8.5t25 -2.5q50 0 76.5 27.5t26.5 74.5v17zM57 430q44 42 102.5 63t119.5 21q63 0 106.5 -15.5t70.5 -48t39.5 -82t12.5 -117.5v-251h-150v53h-3q-19 -31 -57.5 -48t-83.5 -17q-30 0 -62 8t-58.5 26t-43.5 48t-17 74q0 54 29.5 87t76 51
t103.5 24t111 6v8q0 37 -26 54.5t-64 17.5q-35 0 -67.5 -15t-55.5 -36zM246 538h-114l96 130h120l96 -130h-113l-43 51z" />
    <glyph glyph-name="uni1EAA" unicode="&#x1eaa;" horiz-adv-x="729" 
d="M520 1011q0 -24 -4.5 -46t-14.5 -38.5t-26.5 -26t-40.5 -9.5q-22 0 -40.5 5.5t-38.5 15.5l-16 8t-15 3q-14 0 -20.5 -8.5t-8.5 -22.5h-77q1 23 5.5 44.5t14.5 38t26 26t40 9.5q41 0 79 -20q11 -5 18 -8.5t14 -3.5q14 0 20 8.5t9 24.5h76zM553 0l-55 139h-274l-52 -139
h-186l297 708h166l294 -708h-190zM363 519l-90 -243h178zM322 746h-114l96 130h120l96 -130h-113l-43 51z" />
    <glyph glyph-name="uni1EAB" unicode="&#x1eab;" horiz-adv-x="566" 
d="M444 803q0 -24 -4.5 -46t-14.5 -38.5t-26.5 -26t-40.5 -9.5q-22 0 -40.5 5.5t-38.5 15.5l-16 8t-15 3q-14 0 -20.5 -8.5t-8.5 -22.5h-77q1 23 5.5 44.5t14.5 38t26 26t40 9.5q41 0 79 -20q11 -5 18 -8.5t14 -3.5q14 0 20 8.5t9 24.5h76zM358 217h-21q-27 0 -54.5 -2.5
t-49 -9.5t-35.5 -20.5t-14 -35.5q0 -14 6.5 -24t16.5 -16t23 -8.5t25 -2.5q50 0 76.5 27.5t26.5 74.5v17zM57 430q44 42 102.5 63t119.5 21q63 0 106.5 -15.5t70.5 -48t39.5 -82t12.5 -117.5v-251h-150v53h-3q-19 -31 -57.5 -48t-83.5 -17q-30 0 -62 8t-58.5 26t-43.5 48
t-17 74q0 54 29.5 87t76 51t103.5 24t111 6v8q0 37 -26 54.5t-64 17.5q-35 0 -67.5 -15t-55.5 -36zM246 538h-114l96 130h120l96 -130h-113l-43 51z" />
    <glyph glyph-name="uni1EAC" unicode="&#x1eac;" horiz-adv-x="729" 
d="M278 -118q0 15 6 28.5t16.5 24t25.5 17t32 6.5q35 0 58.5 -22t23.5 -54t-23.5 -54t-58.5 -22t-57.5 23t-22.5 53zM553 0l-55 139h-274l-52 -139h-186l297 708h166l294 -708h-190zM363 519l-90 -243h178zM322 746h-114l96 130h120l96 -130h-113l-43 51z" />
    <glyph glyph-name="uni1EAD" unicode="&#x1ead;" horiz-adv-x="566" 
d="M191 -118q0 15 6 28.5t16.5 24t25.5 17t32 6.5q35 0 58.5 -22t23.5 -54t-23.5 -54t-58.5 -22t-57.5 23t-22.5 53zM358 217h-21q-27 0 -54.5 -2.5t-49 -9.5t-35.5 -20.5t-14 -35.5q0 -14 6.5 -24t16.5 -16t23 -8.5t25 -2.5q50 0 76.5 27.5t26.5 74.5v17zM57 430
q44 42 102.5 63t119.5 21q63 0 106.5 -15.5t70.5 -48t39.5 -82t12.5 -117.5v-251h-150v53h-3q-19 -31 -57.5 -48t-83.5 -17q-30 0 -62 8t-58.5 26t-43.5 48t-17 74q0 54 29.5 87t76 51t103.5 24t111 6v8q0 37 -26 54.5t-64 17.5q-35 0 -67.5 -15t-55.5 -36zM246 538h-114
l96 130h120l96 -130h-113l-43 51z" />
    <glyph glyph-name="uni1EAE" unicode="&#x1eae;" horiz-adv-x="729" 
d="M409 880h-109l75 130h135zM553 0l-55 139h-274l-52 -139h-186l297 708h166l294 -708h-190zM363 519l-90 -243h178zM512 865q-1 -57 -34.5 -88.5t-113.5 -31.5q-79 0 -112.5 31.5t-34.5 88.5h105q2 -20 9.5 -29t32.5 -9q26 0 33 9t9 29h106z" />
    <glyph glyph-name="uni1EAF" unicode="&#x1eaf;" horiz-adv-x="566" 
d="M345 670h-109l75 130h135zM358 217h-21q-27 0 -54.5 -2.5t-49 -9.5t-35.5 -20.5t-14 -35.5q0 -14 6.5 -24t16.5 -16t23 -8.5t25 -2.5q50 0 76.5 27.5t26.5 74.5v17zM57 430q44 42 102.5 63t119.5 21q63 0 106.5 -15.5t70.5 -48t39.5 -82t12.5 -117.5v-251h-150v53h-3
q-19 -31 -57.5 -48t-83.5 -17q-30 0 -62 8t-58.5 26t-43.5 48t-17 74q0 54 29.5 87t76 51t103.5 24t111 6v8q0 37 -26 54.5t-64 17.5q-35 0 -67.5 -15t-55.5 -36zM448 655q-1 -57 -34.5 -88.5t-113.5 -31.5q-79 0 -112.5 31.5t-34.5 88.5h105q2 -20 9.5 -29t32.5 -9
q26 0 33 9t9 29h106z" />
    <glyph glyph-name="uni1EB0" unicode="&#x1eb0;" horiz-adv-x="729" 
d="M223 1010h135l75 -130h-109zM553 0l-55 139h-274l-52 -139h-186l297 708h166l294 -708h-190zM363 519l-90 -243h178zM512 865q-1 -57 -34.5 -88.5t-113.5 -31.5q-79 0 -112.5 31.5t-34.5 88.5h105q2 -20 9.5 -29t32.5 -9q26 0 33 9t9 29h106z" />
    <glyph glyph-name="uni1EB1" unicode="&#x1eb1;" horiz-adv-x="566" 
d="M159 800h135l75 -130h-109zM358 217h-21q-27 0 -54.5 -2.5t-49 -9.5t-35.5 -20.5t-14 -35.5q0 -14 6.5 -24t16.5 -16t23 -8.5t25 -2.5q50 0 76.5 27.5t26.5 74.5v17zM57 430q44 42 102.5 63t119.5 21q63 0 106.5 -15.5t70.5 -48t39.5 -82t12.5 -117.5v-251h-150v53h-3
q-19 -31 -57.5 -48t-83.5 -17q-30 0 -62 8t-58.5 26t-43.5 48t-17 74q0 54 29.5 87t76 51t103.5 24t111 6v8q0 37 -26 54.5t-64 17.5q-35 0 -67.5 -15t-55.5 -36zM448 655q-1 -57 -34.5 -88.5t-113.5 -31.5q-79 0 -112.5 31.5t-34.5 88.5h105q2 -20 9.5 -29t32.5 -9
q26 0 33 9t9 29h106z" />
    <glyph glyph-name="uni1EB2" unicode="&#x1eb2;" horiz-adv-x="729" 
d="M326 880v14q-2 23 3 37t28 27q6 2 12.5 8.5t6.5 12.5q0 4 -3.5 7.5t-11.5 3.5q-9 0 -18 -5.5t-15 -24.5l-69 31q27 71 103 71q39 0 67.5 -20.5t28.5 -58.5q0 -32 -16.5 -49t-30.5 -25q-7 -4 -7 -20v-9h-78zM553 0l-55 139h-274l-52 -139h-186l297 708h166l294 -708h-190z
M363 519l-90 -243h178zM512 865q-1 -57 -34.5 -88.5t-113.5 -31.5q-79 0 -112.5 31.5t-34.5 88.5h105q2 -20 9.5 -29t32.5 -9q26 0 33 9t9 29h106z" />
    <glyph glyph-name="uni1EB3" unicode="&#x1eb3;" horiz-adv-x="566" 
d="M262 670v14q-2 23 3 37t28 27q6 2 12.5 8.5t6.5 12.5q0 4 -3.5 7.5t-11.5 3.5q-9 0 -18 -5.5t-15 -24.5l-69 31q27 71 103 71q39 0 67.5 -20.5t28.5 -58.5q0 -32 -16.5 -49t-30.5 -25q-7 -4 -7 -20v-9h-78zM358 217h-21q-27 0 -54.5 -2.5t-49 -9.5t-35.5 -20.5t-14 -35.5
q0 -14 6.5 -24t16.5 -16t23 -8.5t25 -2.5q50 0 76.5 27.5t26.5 74.5v17zM57 430q44 42 102.5 63t119.5 21q63 0 106.5 -15.5t70.5 -48t39.5 -82t12.5 -117.5v-251h-150v53h-3q-19 -31 -57.5 -48t-83.5 -17q-30 0 -62 8t-58.5 26t-43.5 48t-17 74q0 54 29.5 87t76 51
t103.5 24t111 6v8q0 37 -26 54.5t-64 17.5q-35 0 -67.5 -15t-55.5 -36zM448 655q-1 -57 -34.5 -88.5t-113.5 -31.5q-79 0 -112.5 31.5t-34.5 88.5h105q2 -20 9.5 -29t32.5 -9q26 0 33 9t9 29h106z" />
    <glyph glyph-name="uni1EB4" unicode="&#x1eb4;" horiz-adv-x="729" 
d="M525 1001q0 -24 -4.5 -46t-14.5 -38.5t-26.5 -26t-40.5 -9.5q-22 0 -40.5 5.5t-38.5 15.5l-16 8t-15 3q-14 0 -20.5 -8.5t-8.5 -22.5h-77q1 23 5.5 44.5t14.5 38t26 26t40 9.5q41 0 79 -20q11 -5 18 -8.5t14 -3.5q14 0 20 8.5t9 24.5h76zM553 0l-55 139h-274l-52 -139
h-186l297 708h166l294 -708h-190zM363 519l-90 -243h178zM512 865q-1 -57 -34.5 -88.5t-113.5 -31.5q-79 0 -112.5 31.5t-34.5 88.5h105q2 -20 9.5 -29t32.5 -9q26 0 33 9t9 29h106z" />
    <glyph glyph-name="uni1EB5" unicode="&#x1eb5;" horiz-adv-x="566" 
d="M461 791q0 -24 -4.5 -46t-14.5 -38.5t-26.5 -26t-40.5 -9.5q-22 0 -40.5 5.5t-38.5 15.5l-16 8t-15 3q-14 0 -20.5 -8.5t-8.5 -22.5h-77q1 23 5.5 44.5t14.5 38t26 26t40 9.5q41 0 79 -20q11 -5 18 -8.5t14 -3.5q14 0 20 8.5t9 24.5h76zM358 217h-21q-27 0 -54.5 -2.5
t-49 -9.5t-35.5 -20.5t-14 -35.5q0 -14 6.5 -24t16.5 -16t23 -8.5t25 -2.5q50 0 76.5 27.5t26.5 74.5v17zM57 430q44 42 102.5 63t119.5 21q63 0 106.5 -15.5t70.5 -48t39.5 -82t12.5 -117.5v-251h-150v53h-3q-19 -31 -57.5 -48t-83.5 -17q-30 0 -62 8t-58.5 26t-43.5 48
t-17 74q0 54 29.5 87t76 51t103.5 24t111 6v8q0 37 -26 54.5t-64 17.5q-35 0 -67.5 -15t-55.5 -36zM448 655q-1 -57 -34.5 -88.5t-113.5 -31.5q-79 0 -112.5 31.5t-34.5 88.5h105q2 -20 9.5 -29t32.5 -9q26 0 33 9t9 29h106z" />
    <glyph glyph-name="uni1EB6" unicode="&#x1eb6;" horiz-adv-x="729" 
d="M278 -118q0 15 6 28.5t16.5 24t25.5 17t32 6.5q35 0 58.5 -22t23.5 -54t-23.5 -54t-58.5 -22t-57.5 23t-22.5 53zM553 0l-55 139h-274l-52 -139h-186l297 708h166l294 -708h-190zM363 519l-90 -243h178zM512 865q-1 -57 -34.5 -88.5t-113.5 -31.5q-79 0 -112.5 31.5
t-34.5 88.5h105q2 -20 9.5 -29t32.5 -9q26 0 33 9t9 29h106z" />
    <glyph glyph-name="uni1EB7" unicode="&#x1eb7;" horiz-adv-x="566" 
d="M191 -118q0 15 6 28.5t16.5 24t25.5 17t32 6.5q35 0 58.5 -22t23.5 -54t-23.5 -54t-58.5 -22t-57.5 23t-22.5 53zM358 217h-21q-27 0 -54.5 -2.5t-49 -9.5t-35.5 -20.5t-14 -35.5q0 -14 6.5 -24t16.5 -16t23 -8.5t25 -2.5q50 0 76.5 27.5t26.5 74.5v17zM57 430
q44 42 102.5 63t119.5 21q63 0 106.5 -15.5t70.5 -48t39.5 -82t12.5 -117.5v-251h-150v53h-3q-19 -31 -57.5 -48t-83.5 -17q-30 0 -62 8t-58.5 26t-43.5 48t-17 74q0 54 29.5 87t76 51t103.5 24t111 6v8q0 37 -26 54.5t-64 17.5q-35 0 -67.5 -15t-55.5 -36zM448 655
q-1 -57 -34.5 -88.5t-113.5 -31.5q-79 0 -112.5 31.5t-34.5 88.5h105q2 -20 9.5 -29t32.5 -9q26 0 33 9t9 29h106z" />
    <glyph glyph-name="uni1EB8" unicode="&#x1eb8;" horiz-adv-x="607" 
d="M224 -118q0 15 6 28.5t16.5 24t25.5 17t32 6.5q35 0 58.5 -22t23.5 -54t-23.5 -54t-58.5 -22t-57.5 23t-22.5 53zM73 0v708h476v-145h-311v-133h294v-137h-294v-147h329v-146h-494z" />
    <glyph glyph-name="uni1EB9" unicode="&#x1eb9;" horiz-adv-x="596" 
d="M227 -118q0 15 6 28.5t16.5 24t25.5 17t32 6.5q35 0 58.5 -22t23.5 -54t-23.5 -54t-58.5 -22t-57.5 23t-22.5 53zM407 306q0 39 -24.5 67t-73.5 28q-24 0 -44 -7.5t-35 -20.5t-24 -30.5t-10 -36.5h211zM558 243v-20t-1 -19h-361q2 -21 12.5 -38t27 -29.5t37 -19.5
t42.5 -7q39 0 66 14.5t44 37.5l114 -72q-35 -51 -92.5 -78.5t-133.5 -27.5q-56 0 -106 17.5t-87.5 51t-59 82.5t-21.5 112q0 61 21 110.5t57 84t85 53.5t106 19q55 0 101 -18.5t79 -53.5t51.5 -85t18.5 -114z" />
    <glyph glyph-name="uni1EBA" unicode="&#x1eba;" horiz-adv-x="607" 
d="M288 746v14q-2 23 3 37t28 27q6 2 12.5 8.5t6.5 12.5q0 4 -3.5 7.5t-11.5 3.5q-9 0 -18 -5.5t-15 -24.5l-69 31q27 71 103 71q39 0 67.5 -20.5t28.5 -58.5q0 -32 -16.5 -49t-30.5 -25q-7 -4 -7 -20v-9h-78zM73 0v708h476v-145h-311v-133h294v-137h-294v-147h329v-146
h-494z" />
    <glyph glyph-name="uni1EBB" unicode="&#x1ebb;" horiz-adv-x="596" 
d="M279 535v14q-2 23 3 37t28 27q6 2 12.5 8.5t6.5 12.5q0 4 -3.5 7.5t-11.5 3.5q-9 0 -18 -5.5t-15 -24.5l-69 31q27 71 103 71q39 0 67.5 -20.5t28.5 -58.5q0 -32 -16.5 -49t-30.5 -25q-7 -4 -7 -20v-9h-78zM407 306q0 39 -24.5 67t-73.5 28q-24 0 -44 -7.5t-35 -20.5
t-24 -30.5t-10 -36.5h211zM558 243v-20t-1 -19h-361q2 -21 12.5 -38t27 -29.5t37 -19.5t42.5 -7q39 0 66 14.5t44 37.5l114 -72q-35 -51 -92.5 -78.5t-133.5 -27.5q-56 0 -106 17.5t-87.5 51t-59 82.5t-21.5 112q0 61 21 110.5t57 84t85 53.5t106 19q55 0 101 -18.5
t79 -53.5t51.5 -85t18.5 -114z" />
    <glyph glyph-name="uni1EBC" unicode="&#x1ebc;" horiz-adv-x="607" 
d="M475 871q0 -24 -4.5 -46t-14.5 -38.5t-26.5 -26t-40.5 -9.5q-22 0 -40.5 5.5t-38.5 15.5l-16 8t-15 3q-14 0 -20.5 -8.5t-8.5 -22.5h-77q1 23 5.5 44.5t14.5 38t26 26t40 9.5q41 0 79 -20q11 -5 18 -8.5t14 -3.5q14 0 20 8.5t9 24.5h76zM73 0v708h476v-145h-311v-133h294
v-137h-294v-147h329v-146h-494z" />
    <glyph glyph-name="uni1EBD" unicode="&#x1ebd;" horiz-adv-x="596" 
d="M472 667q0 -24 -4.5 -46t-14.5 -38.5t-26.5 -26t-40.5 -9.5q-22 0 -40.5 5.5t-38.5 15.5l-16 8t-15 3q-14 0 -20.5 -8.5t-8.5 -22.5h-77q1 23 5.5 44.5t14.5 38t26 26t40 9.5q41 0 79 -20q11 -5 18 -8.5t14 -3.5q14 0 20 8.5t9 24.5h76zM407 306q0 39 -24.5 67t-73.5 28
q-24 0 -44 -7.5t-35 -20.5t-24 -30.5t-10 -36.5h211zM558 243v-20t-1 -19h-361q2 -21 12.5 -38t27 -29.5t37 -19.5t42.5 -7q39 0 66 14.5t44 37.5l114 -72q-35 -51 -92.5 -78.5t-133.5 -27.5q-56 0 -106 17.5t-87.5 51t-59 82.5t-21.5 112q0 61 21 110.5t57 84t85 53.5
t106 19q55 0 101 -18.5t79 -53.5t51.5 -85t18.5 -114z" />
    <glyph glyph-name="uni1EBE" unicode="&#x1ebe;" horiz-adv-x="607" 
d="M523 842h-109l75 130h135zM73 0v708h476v-145h-311v-133h294v-137h-294v-147h329v-146h-494zM268 746h-114l96 130h120l96 -130h-113l-43 51z" />
    <glyph glyph-name="uni1EBF" unicode="&#x1ebf;" horiz-adv-x="596" 
d="M528 634h-109l75 130h135zM407 306q0 39 -24.5 67t-73.5 28q-24 0 -44 -7.5t-35 -20.5t-24 -30.5t-10 -36.5h211zM558 243v-20t-1 -19h-361q2 -21 12.5 -38t27 -29.5t37 -19.5t42.5 -7q39 0 66 14.5t44 37.5l114 -72q-35 -51 -92.5 -78.5t-133.5 -27.5q-56 0 -106 17.5
t-87.5 51t-59 82.5t-21.5 112q0 61 21 110.5t57 84t85 53.5t106 19q55 0 101 -18.5t79 -53.5t51.5 -85t18.5 -114zM273 538h-114l96 130h120l96 -130h-113l-43 51z" />
    <glyph glyph-name="uni1EC0" unicode="&#x1ec0;" horiz-adv-x="607" 
d="M326 972h135l75 -130h-109zM73 0v708h476v-145h-311v-133h294v-137h-294v-147h329v-146h-494zM268 746h-114l96 130h120l96 -130h-113l-43 51z" />
    <glyph glyph-name="uni1EC1" unicode="&#x1ec1;" horiz-adv-x="596" 
d="M331 764h135l75 -130h-109zM407 306q0 39 -24.5 67t-73.5 28q-24 0 -44 -7.5t-35 -20.5t-24 -30.5t-10 -36.5h211zM558 243v-20t-1 -19h-361q2 -21 12.5 -38t27 -29.5t37 -19.5t42.5 -7q39 0 66 14.5t44 37.5l114 -72q-35 -51 -92.5 -78.5t-133.5 -27.5q-56 0 -106 17.5
t-87.5 51t-59 82.5t-21.5 112q0 61 21 110.5t57 84t85 53.5t106 19q55 0 101 -18.5t79 -53.5t51.5 -85t18.5 -114zM273 538h-114l96 130h120l96 -130h-113l-43 51z" />
    <glyph glyph-name="uni1EC2" unicode="&#x1ec2;" horiz-adv-x="607" 
d="M415 842v14q-2 23 3 37t28 27q6 2 12.5 8.5t6.5 12.5q0 4 -3.5 7.5t-11.5 3.5q-9 0 -18 -5.5t-15 -24.5l-69 31q27 71 103 71q39 0 67.5 -20.5t28.5 -58.5q0 -32 -16.5 -49t-30.5 -25q-7 -4 -7 -20v-9h-78zM73 0v708h476v-145h-311v-133h294v-137h-294v-147h329v-146
h-494zM268 746h-114l96 130h120l96 -130h-113l-43 51z" />
    <glyph glyph-name="uni1EC3" unicode="&#x1ec3;" horiz-adv-x="596" 
d="M420 634v14q-2 23 3 37t28 27q6 2 12.5 8.5t6.5 12.5q0 4 -3.5 7.5t-11.5 3.5q-9 0 -18 -5.5t-15 -24.5l-69 31q27 71 103 71q39 0 67.5 -20.5t28.5 -58.5q0 -32 -16.5 -49t-30.5 -25q-7 -4 -7 -20v-9h-78zM407 306q0 39 -24.5 67t-73.5 28q-24 0 -44 -7.5t-35 -20.5
t-24 -30.5t-10 -36.5h211zM558 243v-20t-1 -19h-361q2 -21 12.5 -38t27 -29.5t37 -19.5t42.5 -7q39 0 66 14.5t44 37.5l114 -72q-35 -51 -92.5 -78.5t-133.5 -27.5q-56 0 -106 17.5t-87.5 51t-59 82.5t-21.5 112q0 61 21 110.5t57 84t85 53.5t106 19q55 0 101 -18.5
t79 -53.5t51.5 -85t18.5 -114zM273 538h-114l96 130h120l96 -130h-113l-43 51z" />
    <glyph glyph-name="uni1EC4" unicode="&#x1ec4;" horiz-adv-x="607" 
d="M466 1011q0 -24 -4.5 -46t-14.5 -38.5t-26.5 -26t-40.5 -9.5q-22 0 -40.5 5.5t-38.5 15.5l-16 8t-15 3q-14 0 -20.5 -8.5t-8.5 -22.5h-77q1 23 5.5 44.5t14.5 38t26 26t40 9.5q41 0 79 -20q11 -5 18 -8.5t14 -3.5q14 0 20 8.5t9 24.5h76zM73 0v708h476v-145h-311v-133
h294v-137h-294v-147h329v-146h-494zM268 746h-114l96 130h120l96 -130h-113l-43 51z" />
    <glyph glyph-name="uni1EC5" unicode="&#x1ec5;" horiz-adv-x="596" 
d="M471 803q0 -24 -4.5 -46t-14.5 -38.5t-26.5 -26t-40.5 -9.5q-22 0 -40.5 5.5t-38.5 15.5l-16 8t-15 3q-14 0 -20.5 -8.5t-8.5 -22.5h-77q1 23 5.5 44.5t14.5 38t26 26t40 9.5q41 0 79 -20q11 -5 18 -8.5t14 -3.5q14 0 20 8.5t9 24.5h76zM407 306q0 39 -24.5 67t-73.5 28
q-24 0 -44 -7.5t-35 -20.5t-24 -30.5t-10 -36.5h211zM558 243v-20t-1 -19h-361q2 -21 12.5 -38t27 -29.5t37 -19.5t42.5 -7q39 0 66 14.5t44 37.5l114 -72q-35 -51 -92.5 -78.5t-133.5 -27.5q-56 0 -106 17.5t-87.5 51t-59 82.5t-21.5 112q0 61 21 110.5t57 84t85 53.5
t106 19q55 0 101 -18.5t79 -53.5t51.5 -85t18.5 -114zM273 538h-114l96 130h120l96 -130h-113l-43 51z" />
    <glyph glyph-name="uni1EC6" unicode="&#x1ec6;" horiz-adv-x="607" 
d="M224 -118q0 15 6 28.5t16.5 24t25.5 17t32 6.5q35 0 58.5 -22t23.5 -54t-23.5 -54t-58.5 -22t-57.5 23t-22.5 53zM73 0v708h476v-145h-311v-133h294v-137h-294v-147h329v-146h-494zM268 746h-114l96 130h120l96 -130h-113l-43 51z" />
    <glyph glyph-name="uni1EC7" unicode="&#x1ec7;" horiz-adv-x="596" 
d="M227 -118q0 15 6 28.5t16.5 24t25.5 17t32 6.5q35 0 58.5 -22t23.5 -54t-23.5 -54t-58.5 -22t-57.5 23t-22.5 53zM407 306q0 39 -24.5 67t-73.5 28q-24 0 -44 -7.5t-35 -20.5t-24 -30.5t-10 -36.5h211zM558 243v-20t-1 -19h-361q2 -21 12.5 -38t27 -29.5t37 -19.5
t42.5 -7q39 0 66 14.5t44 37.5l114 -72q-35 -51 -92.5 -78.5t-133.5 -27.5q-56 0 -106 17.5t-87.5 51t-59 82.5t-21.5 112q0 61 21 110.5t57 84t85 53.5t106 19q55 0 101 -18.5t79 -53.5t51.5 -85t18.5 -114zM273 538h-114l96 130h120l96 -130h-113l-43 51z" />
    <glyph glyph-name="uni1EC8" unicode="&#x1ec8;" horiz-adv-x="318" 
d="M120 746v14q-2 23 3 37t28 27q6 2 12.5 8.5t6.5 12.5q0 4 -3.5 7.5t-11.5 3.5q-9 0 -18 -5.5t-15 -24.5l-69 31q27 71 103 71q39 0 67.5 -20.5t28.5 -58.5q0 -32 -16.5 -49t-30.5 -25q-7 -4 -7 -20v-9h-78zM73 0v708h172v-708h-172z" />
    <glyph glyph-name="uni1EC9" unicode="&#x1ec9;" horiz-adv-x="296" 
d="M107 535v14q-2 23 3 37t28 27q6 2 12.5 8.5t6.5 12.5q0 4 -3.5 7.5t-11.5 3.5q-9 0 -18 -5.5t-15 -24.5l-69 31q27 71 103 71q39 0 67.5 -20.5t28.5 -58.5q0 -32 -16.5 -49t-30.5 -25q-7 -4 -7 -20v-9h-78zM66 0v498h164v-498h-164z" />
    <glyph glyph-name="uni1ECA" unicode="&#x1eca;" horiz-adv-x="318" 
d="M78 -118q0 15 6 28.5t16.5 24t25.5 17t32 6.5q35 0 58.5 -22t23.5 -54t-23.5 -54t-58.5 -22t-57.5 23t-22.5 53zM73 0v708h172v-708h-172z" />
    <glyph glyph-name="uni1ECB" unicode="&#x1ecb;" horiz-adv-x="296" 
d="M67 -118q0 15 6 28.5t16.5 24t25.5 17t32 6.5q35 0 58.5 -22t23.5 -54t-23.5 -54t-58.5 -22t-57.5 23t-22.5 53zM66 0v498h164v-498h-164zM67 610q0 15 6 28.5t16.5 24t25.5 17t32 6.5q35 0 58.5 -22t23.5 -54t-23.5 -54t-58.5 -22t-57.5 23t-22.5 53z" />
    <glyph glyph-name="uni1ECC" unicode="&#x1ecc;" horiz-adv-x="851" 
d="M336 -118q0 15 6 28.5t16.5 24t25.5 17t32 6.5q35 0 58.5 -22t23.5 -54t-23.5 -54t-58.5 -22t-57.5 23t-22.5 53zM811 357q0 -84 -29 -153.5t-80.5 -119t-122.5 -76.5t-154 -27t-153.5 27t-122 76.5t-80.5 119t-29 153.5q0 85 29 153.5t80.5 116.5t122 74t153.5 26
t154 -26t122.5 -74t80.5 -116.5t29 -153.5zM628 357q0 46 -15 86t-41.5 68.5t-64 45t-82.5 16.5t-82 -16.5t-64 -45t-41.5 -68.5t-14.5 -86q0 -48 15 -88.5t41.5 -69.5t63.5 -45.5t82 -16.5t82 16.5t64 45.5t42 69.5t15 88.5z" />
    <glyph glyph-name="uni1ECD" unicode="&#x1ecd;" horiz-adv-x="632" 
d="M235 -118q0 15 6 28.5t16.5 24t25.5 17t32 6.5q35 0 58.5 -22t23.5 -54t-23.5 -54t-58.5 -22t-57.5 23t-22.5 53zM592 251q0 -61 -22 -110.5t-60 -84t-88 -53.5t-107 -19q-56 0 -106.5 19t-88 53.5t-59.5 84t-22 110.5t22 110t59.5 83t88 52t106.5 18q57 0 107 -18
t88 -52t60 -83t22 -110zM434 251q0 24 -8 47t-23 40.5t-37 28.5t-51 11t-51 -11t-36.5 -28.5t-22 -40.5t-7.5 -47t7.5 -47t22.5 -41.5t37 -29.5t51 -11t51 11t37 29.5t22.5 41.5t7.5 47z" />
    <glyph glyph-name="uni1ECE" unicode="&#x1ece;" horiz-adv-x="851" 
d="M395 746v14q-2 23 3 37t28 27q6 2 12.5 8.5t6.5 12.5q0 4 -3.5 7.5t-11.5 3.5q-9 0 -18 -5.5t-15 -24.5l-69 31q27 71 103 71q39 0 67.5 -20.5t28.5 -58.5q0 -32 -16.5 -49t-30.5 -25q-7 -4 -7 -20v-9h-78zM811 357q0 -84 -29 -153.5t-80.5 -119t-122.5 -76.5t-154 -27
t-153.5 27t-122 76.5t-80.5 119t-29 153.5q0 85 29 153.5t80.5 116.5t122 74t153.5 26t154 -26t122.5 -74t80.5 -116.5t29 -153.5zM628 357q0 46 -15 86t-41.5 68.5t-64 45t-82.5 16.5t-82 -16.5t-64 -45t-41.5 -68.5t-14.5 -86q0 -48 15 -88.5t41.5 -69.5t63.5 -45.5
t82 -16.5t82 16.5t64 45.5t42 69.5t15 88.5z" />
    <glyph glyph-name="uni1ECF" unicode="&#x1ecf;" horiz-adv-x="632" 
d="M286 535v14q-2 23 3 37t28 27q6 2 12.5 8.5t6.5 12.5q0 4 -3.5 7.5t-11.5 3.5q-9 0 -18 -5.5t-15 -24.5l-69 31q27 71 103 71q39 0 67.5 -20.5t28.5 -58.5q0 -32 -16.5 -49t-30.5 -25q-7 -4 -7 -20v-9h-78zM592 251q0 -61 -22 -110.5t-60 -84t-88 -53.5t-107 -19
q-56 0 -106.5 19t-88 53.5t-59.5 84t-22 110.5t22 110t59.5 83t88 52t106.5 18q57 0 107 -18t88 -52t60 -83t22 -110zM434 251q0 24 -8 47t-23 40.5t-37 28.5t-51 11t-51 -11t-36.5 -28.5t-22 -40.5t-7.5 -47t7.5 -47t22.5 -41.5t37 -29.5t51 -11t51 11t37 29.5t22.5 41.5
t7.5 47z" />
    <glyph glyph-name="uni1ED0" unicode="&#x1ed0;" horiz-adv-x="851" 
d="M643 842h-109l75 130h135zM811 357q0 -84 -29 -153.5t-80.5 -119t-122.5 -76.5t-154 -27t-153.5 27t-122 76.5t-80.5 119t-29 153.5q0 85 29 153.5t80.5 116.5t122 74t153.5 26t154 -26t122.5 -74t80.5 -116.5t29 -153.5zM628 357q0 46 -15 86t-41.5 68.5t-64 45
t-82.5 16.5t-82 -16.5t-64 -45t-41.5 -68.5t-14.5 -86q0 -48 15 -88.5t41.5 -69.5t63.5 -45.5t82 -16.5t82 16.5t64 45.5t42 69.5t15 88.5zM388 746h-114l96 130h120l96 -130h-113l-43 51z" />
    <glyph glyph-name="uni1ED1" unicode="&#x1ed1;" horiz-adv-x="632" 
d="M534 634h-109l75 130h135zM592 251q0 -61 -22 -110.5t-60 -84t-88 -53.5t-107 -19q-56 0 -106.5 19t-88 53.5t-59.5 84t-22 110.5t22 110t59.5 83t88 52t106.5 18q57 0 107 -18t88 -52t60 -83t22 -110zM434 251q0 24 -8 47t-23 40.5t-37 28.5t-51 11t-51 -11t-36.5 -28.5
t-22 -40.5t-7.5 -47t7.5 -47t22.5 -41.5t37 -29.5t51 -11t51 11t37 29.5t22.5 41.5t7.5 47zM279 538h-114l96 130h120l96 -130h-113l-43 51z" />
    <glyph glyph-name="uni1ED2" unicode="&#x1ed2;" horiz-adv-x="851" 
d="M446 972h135l75 -130h-109zM811 357q0 -84 -29 -153.5t-80.5 -119t-122.5 -76.5t-154 -27t-153.5 27t-122 76.5t-80.5 119t-29 153.5q0 85 29 153.5t80.5 116.5t122 74t153.5 26t154 -26t122.5 -74t80.5 -116.5t29 -153.5zM628 357q0 46 -15 86t-41.5 68.5t-64 45
t-82.5 16.5t-82 -16.5t-64 -45t-41.5 -68.5t-14.5 -86q0 -48 15 -88.5t41.5 -69.5t63.5 -45.5t82 -16.5t82 16.5t64 45.5t42 69.5t15 88.5zM388 746h-114l96 130h120l96 -130h-113l-43 51z" />
    <glyph glyph-name="uni1ED3" unicode="&#x1ed3;" horiz-adv-x="632" 
d="M337 764h135l75 -130h-109zM592 251q0 -61 -22 -110.5t-60 -84t-88 -53.5t-107 -19q-56 0 -106.5 19t-88 53.5t-59.5 84t-22 110.5t22 110t59.5 83t88 52t106.5 18q57 0 107 -18t88 -52t60 -83t22 -110zM434 251q0 24 -8 47t-23 40.5t-37 28.5t-51 11t-51 -11
t-36.5 -28.5t-22 -40.5t-7.5 -47t7.5 -47t22.5 -41.5t37 -29.5t51 -11t51 11t37 29.5t22.5 41.5t7.5 47zM279 538h-114l96 130h120l96 -130h-113l-43 51z" />
    <glyph glyph-name="uni1ED4" unicode="&#x1ed4;" horiz-adv-x="851" 
d="M535 842v14q-2 23 3 37t28 27q6 2 12.5 8.5t6.5 12.5q0 4 -3.5 7.5t-11.5 3.5q-9 0 -18 -5.5t-15 -24.5l-69 31q27 71 103 71q39 0 67.5 -20.5t28.5 -58.5q0 -32 -16.5 -49t-30.5 -25q-7 -4 -7 -20v-9h-78zM811 357q0 -84 -29 -153.5t-80.5 -119t-122.5 -76.5t-154 -27
t-153.5 27t-122 76.5t-80.5 119t-29 153.5q0 85 29 153.5t80.5 116.5t122 74t153.5 26t154 -26t122.5 -74t80.5 -116.5t29 -153.5zM628 357q0 46 -15 86t-41.5 68.5t-64 45t-82.5 16.5t-82 -16.5t-64 -45t-41.5 -68.5t-14.5 -86q0 -48 15 -88.5t41.5 -69.5t63.5 -45.5
t82 -16.5t82 16.5t64 45.5t42 69.5t15 88.5zM388 746h-114l96 130h120l96 -130h-113l-43 51z" />
    <glyph glyph-name="uni1ED5" unicode="&#x1ed5;" horiz-adv-x="632" 
d="M426 634v14q-2 23 3 37t28 27q6 2 12.5 8.5t6.5 12.5q0 4 -3.5 7.5t-11.5 3.5q-9 0 -18 -5.5t-15 -24.5l-69 31q27 71 103 71q39 0 67.5 -20.5t28.5 -58.5q0 -32 -16.5 -49t-30.5 -25q-7 -4 -7 -20v-9h-78zM592 251q0 -61 -22 -110.5t-60 -84t-88 -53.5t-107 -19
q-56 0 -106.5 19t-88 53.5t-59.5 84t-22 110.5t22 110t59.5 83t88 52t106.5 18q57 0 107 -18t88 -52t60 -83t22 -110zM434 251q0 24 -8 47t-23 40.5t-37 28.5t-51 11t-51 -11t-36.5 -28.5t-22 -40.5t-7.5 -47t7.5 -47t22.5 -41.5t37 -29.5t51 -11t51 11t37 29.5t22.5 41.5
t7.5 47zM279 538h-114l96 130h120l96 -130h-113l-43 51z" />
    <glyph glyph-name="uni1ED6" unicode="&#x1ed6;" horiz-adv-x="851" 
d="M586 1011q0 -24 -4.5 -46t-14.5 -38.5t-26.5 -26t-40.5 -9.5q-22 0 -40.5 5.5t-38.5 15.5l-16 8t-15 3q-14 0 -20.5 -8.5t-8.5 -22.5h-77q1 23 5.5 44.5t14.5 38t26 26t40 9.5q41 0 79 -20q11 -5 18 -8.5t14 -3.5q14 0 20 8.5t9 24.5h76zM811 357q0 -84 -29 -153.5
t-80.5 -119t-122.5 -76.5t-154 -27t-153.5 27t-122 76.5t-80.5 119t-29 153.5q0 85 29 153.5t80.5 116.5t122 74t153.5 26t154 -26t122.5 -74t80.5 -116.5t29 -153.5zM628 357q0 46 -15 86t-41.5 68.5t-64 45t-82.5 16.5t-82 -16.5t-64 -45t-41.5 -68.5t-14.5 -86
q0 -48 15 -88.5t41.5 -69.5t63.5 -45.5t82 -16.5t82 16.5t64 45.5t42 69.5t15 88.5zM388 746h-114l96 130h120l96 -130h-113l-43 51z" />
    <glyph glyph-name="uni1ED7" unicode="&#x1ed7;" horiz-adv-x="632" 
d="M477 803q0 -24 -4.5 -46t-14.5 -38.5t-26.5 -26t-40.5 -9.5q-22 0 -40.5 5.5t-38.5 15.5l-16 8t-15 3q-14 0 -20.5 -8.5t-8.5 -22.5h-77q1 23 5.5 44.5t14.5 38t26 26t40 9.5q41 0 79 -20q11 -5 18 -8.5t14 -3.5q14 0 20 8.5t9 24.5h76zM592 251q0 -61 -22 -110.5
t-60 -84t-88 -53.5t-107 -19q-56 0 -106.5 19t-88 53.5t-59.5 84t-22 110.5t22 110t59.5 83t88 52t106.5 18q57 0 107 -18t88 -52t60 -83t22 -110zM434 251q0 24 -8 47t-23 40.5t-37 28.5t-51 11t-51 -11t-36.5 -28.5t-22 -40.5t-7.5 -47t7.5 -47t22.5 -41.5t37 -29.5
t51 -11t51 11t37 29.5t22.5 41.5t7.5 47zM279 538h-114l96 130h120l96 -130h-113l-43 51z" />
    <glyph glyph-name="uni1ED8" unicode="&#x1ed8;" horiz-adv-x="851" 
d="M336 -118q0 15 6 28.5t16.5 24t25.5 17t32 6.5q35 0 58.5 -22t23.5 -54t-23.5 -54t-58.5 -22t-57.5 23t-22.5 53zM811 357q0 -84 -29 -153.5t-80.5 -119t-122.5 -76.5t-154 -27t-153.5 27t-122 76.5t-80.5 119t-29 153.5q0 85 29 153.5t80.5 116.5t122 74t153.5 26
t154 -26t122.5 -74t80.5 -116.5t29 -153.5zM628 357q0 46 -15 86t-41.5 68.5t-64 45t-82.5 16.5t-82 -16.5t-64 -45t-41.5 -68.5t-14.5 -86q0 -48 15 -88.5t41.5 -69.5t63.5 -45.5t82 -16.5t82 16.5t64 45.5t42 69.5t15 88.5zM388 746h-114l96 130h120l96 -130h-113l-43 51z
" />
    <glyph glyph-name="uni1ED9" unicode="&#x1ed9;" horiz-adv-x="632" 
d="M235 -118q0 15 6 28.5t16.5 24t25.5 17t32 6.5q35 0 58.5 -22t23.5 -54t-23.5 -54t-58.5 -22t-57.5 23t-22.5 53zM592 251q0 -61 -22 -110.5t-60 -84t-88 -53.5t-107 -19q-56 0 -106.5 19t-88 53.5t-59.5 84t-22 110.5t22 110t59.5 83t88 52t106.5 18q57 0 107 -18
t88 -52t60 -83t22 -110zM434 251q0 24 -8 47t-23 40.5t-37 28.5t-51 11t-51 -11t-36.5 -28.5t-22 -40.5t-7.5 -47t7.5 -47t22.5 -41.5t37 -29.5t51 -11t51 11t37 29.5t22.5 41.5t7.5 47zM276 538h-114l96 130h120l96 -130h-113l-43 51z" />
    <glyph glyph-name="uni1EDA" unicode="&#x1eda;" horiz-adv-x="851" 
d="M474 746h-109l75 130h135zM811 357q0 -84 -29 -153.5t-80.5 -119t-122.5 -76.5t-154 -27t-153.5 27t-122 76.5t-80.5 119t-29 153.5q0 85 29 153.5t80.5 116.5t122 74t153.5 26q75 0 140 -21q11 -1 24 -0.5t25 1.5q21 2 26.5 19.5t5.5 44.5h117q0 -17 -1 -37t-8 -38.5
t-21.5 -34.5t-41.5 -25q57 -49 88.5 -119t31.5 -160zM628 357q0 46 -15 86t-41.5 68.5t-64 45t-82.5 16.5t-82 -16.5t-64 -45t-41.5 -68.5t-14.5 -86q0 -48 15 -88.5t41.5 -69.5t63.5 -45.5t82 -16.5t82 16.5t64 45.5t42 69.5t15 88.5z" />
    <glyph glyph-name="uni1EDB" unicode="&#x1edb;" horiz-adv-x="632" 
d="M367 538h-109l75 130h135zM592 251q0 -61 -22 -110.5t-60 -84t-88 -53.5t-107 -19q-56 0 -106.5 19t-88 53.5t-59.5 84t-22 110.5t22 110t59.5 83t88 52t106.5 18q26 0 51.5 -4t48.5 -12q11 -2 20 -1.5t13 0.5q21 0 26.5 18.5t5.5 45.5h117q0 -17 -1 -36.5t-7.5 -38.5
t-21 -34.5t-40.5 -25.5q30 -33 47.5 -77t17.5 -98zM434 251q0 24 -8 47t-23 40.5t-37 28.5t-51 11t-51 -11t-36.5 -28.5t-22 -40.5t-7.5 -47t7.5 -47t22.5 -41.5t37 -29.5t51 -11t51 11t37 29.5t22.5 41.5t7.5 47z" />
    <glyph glyph-name="uni1EDC" unicode="&#x1edc;" horiz-adv-x="851" 
d="M294 876h135l75 -130h-109zM811 357q0 -84 -29 -153.5t-80.5 -119t-122.5 -76.5t-154 -27t-153.5 27t-122 76.5t-80.5 119t-29 153.5q0 85 29 153.5t80.5 116.5t122 74t153.5 26q75 0 140 -21q11 -1 24 -0.5t25 1.5q21 2 26.5 19.5t5.5 44.5h117q0 -17 -1 -37t-8 -38.5
t-21.5 -34.5t-41.5 -25q57 -49 88.5 -119t31.5 -160zM628 357q0 46 -15 86t-41.5 68.5t-64 45t-82.5 16.5t-82 -16.5t-64 -45t-41.5 -68.5t-14.5 -86q0 -48 15 -88.5t41.5 -69.5t63.5 -45.5t82 -16.5t82 16.5t64 45.5t42 69.5t15 88.5z" />
    <glyph glyph-name="uni1EDD" unicode="&#x1edd;" horiz-adv-x="632" 
d="M189 668h135l75 -130h-109zM592 251q0 -61 -22 -110.5t-60 -84t-88 -53.5t-107 -19q-56 0 -106.5 19t-88 53.5t-59.5 84t-22 110.5t22 110t59.5 83t88 52t106.5 18q26 0 51.5 -4t48.5 -12q11 -2 20 -1.5t13 0.5q21 0 26.5 18.5t5.5 45.5h117q0 -17 -1 -36.5t-7.5 -38.5
t-21 -34.5t-40.5 -25.5q30 -33 47.5 -77t17.5 -98zM434 251q0 24 -8 47t-23 40.5t-37 28.5t-51 11t-51 -11t-36.5 -28.5t-22 -40.5t-7.5 -47t7.5 -47t22.5 -41.5t37 -29.5t51 -11t51 11t37 29.5t22.5 41.5t7.5 47z" />
    <glyph glyph-name="uni1EDE" unicode="&#x1ede;" horiz-adv-x="851" 
d="M395 746v14q-2 23 3 37t28 27q6 2 12.5 8.5t6.5 12.5q0 4 -3.5 7.5t-11.5 3.5q-9 0 -18 -5.5t-15 -24.5l-69 31q27 71 103 71q39 0 67.5 -20.5t28.5 -58.5q0 -32 -16.5 -49t-30.5 -25q-7 -4 -7 -20v-9h-78zM811 357q0 -84 -29 -153.5t-80.5 -119t-122.5 -76.5t-154 -27
t-153.5 27t-122 76.5t-80.5 119t-29 153.5q0 85 29 153.5t80.5 116.5t122 74t153.5 26q75 0 140 -21q11 -1 24 -0.5t25 1.5q21 2 26.5 19.5t5.5 44.5h117q0 -17 -1 -37t-8 -38.5t-21.5 -34.5t-41.5 -25q57 -49 88.5 -119t31.5 -160zM628 357q0 46 -15 86t-41.5 68.5t-64 45
t-82.5 16.5t-82 -16.5t-64 -45t-41.5 -68.5t-14.5 -86q0 -48 15 -88.5t41.5 -69.5t63.5 -45.5t82 -16.5t82 16.5t64 45.5t42 69.5t15 88.5z" />
    <glyph glyph-name="uni1EDF" unicode="&#x1edf;" horiz-adv-x="632" 
d="M286 535v14q-2 23 3 37t28 27q6 2 12.5 8.5t6.5 12.5q0 4 -3.5 7.5t-11.5 3.5q-9 0 -18 -5.5t-15 -24.5l-69 31q27 71 103 71q39 0 67.5 -20.5t28.5 -58.5q0 -32 -16.5 -49t-30.5 -25q-7 -4 -7 -20v-9h-78zM592 251q0 -61 -22 -110.5t-60 -84t-88 -53.5t-107 -19
q-56 0 -106.5 19t-88 53.5t-59.5 84t-22 110.5t22 110t59.5 83t88 52t106.5 18q26 0 51.5 -4t48.5 -12q11 -2 20 -1.5t13 0.5q21 0 26.5 18.5t5.5 45.5h117q0 -17 -1 -36.5t-7.5 -38.5t-21 -34.5t-40.5 -25.5q30 -33 47.5 -77t17.5 -98zM434 251q0 24 -8 47t-23 40.5
t-37 28.5t-51 11t-51 -11t-36.5 -28.5t-22 -40.5t-7.5 -47t7.5 -47t22.5 -41.5t37 -29.5t51 -11t51 11t37 29.5t22.5 41.5t7.5 47z" />
    <glyph glyph-name="uni1EE0" unicode="&#x1ee0;" horiz-adv-x="851" 
d="M579 881q0 -24 -4.5 -46t-14.5 -38.5t-26.5 -26t-40.5 -9.5q-22 0 -40.5 5.5t-38.5 15.5l-16 8t-15 3q-14 0 -20.5 -8.5t-8.5 -22.5h-77q1 23 5.5 44.5t14.5 38t26 26t40 9.5q41 0 79 -20q11 -5 18 -8.5t14 -3.5q14 0 20 8.5t9 24.5h76zM811 357q0 -84 -29 -153.5
t-80.5 -119t-122.5 -76.5t-154 -27t-153.5 27t-122 76.5t-80.5 119t-29 153.5q0 85 29 153.5t80.5 116.5t122 74t153.5 26q75 0 140 -21q11 -1 24 -0.5t25 1.5q21 2 26.5 19.5t5.5 44.5h117q0 -17 -1 -37t-8 -38.5t-21.5 -34.5t-41.5 -25q57 -49 88.5 -119t31.5 -160z
M628 357q0 46 -15 86t-41.5 68.5t-64 45t-82.5 16.5t-82 -16.5t-64 -45t-41.5 -68.5t-14.5 -86q0 -48 15 -88.5t41.5 -69.5t63.5 -45.5t82 -16.5t82 16.5t64 45.5t42 69.5t15 88.5z" />
    <glyph glyph-name="uni1EE1" unicode="&#x1ee1;" horiz-adv-x="632" 
d="M472 667q0 -24 -4.5 -46t-14.5 -38.5t-26.5 -26t-40.5 -9.5q-22 0 -40.5 5.5t-38.5 15.5l-16 8t-15 3q-14 0 -20.5 -8.5t-8.5 -22.5h-77q1 23 5.5 44.5t14.5 38t26 26t40 9.5q41 0 79 -20q11 -5 18 -8.5t14 -3.5q14 0 20 8.5t9 24.5h76zM592 251q0 -61 -22 -110.5
t-60 -84t-88 -53.5t-107 -19q-56 0 -106.5 19t-88 53.5t-59.5 84t-22 110.5t22 110t59.5 83t88 52t106.5 18q26 0 51.5 -4t48.5 -12q11 -2 20 -1.5t13 0.5q21 0 26.5 18.5t5.5 45.5h117q0 -17 -1 -36.5t-7.5 -38.5t-21 -34.5t-40.5 -25.5q30 -33 47.5 -77t17.5 -98zM434 251
q0 24 -8 47t-23 40.5t-37 28.5t-51 11t-51 -11t-36.5 -28.5t-22 -40.5t-7.5 -47t7.5 -47t22.5 -41.5t37 -29.5t51 -11t51 11t37 29.5t22.5 41.5t7.5 47z" />
    <glyph glyph-name="uni1EE2" unicode="&#x1ee2;" horiz-adv-x="851" 
d="M336 -118q0 15 6 28.5t16.5 24t25.5 17t32 6.5q35 0 58.5 -22t23.5 -54t-23.5 -54t-58.5 -22t-57.5 23t-22.5 53zM811 357q0 -84 -29 -153.5t-80.5 -119t-122.5 -76.5t-154 -27t-153.5 27t-122 76.5t-80.5 119t-29 153.5q0 85 29 153.5t80.5 116.5t122 74t153.5 26
q75 0 140 -21q11 -1 24 -0.5t25 1.5q21 2 26.5 19.5t5.5 44.5h117q0 -17 -1 -37t-8 -38.5t-21.5 -34.5t-41.5 -25q57 -49 88.5 -119t31.5 -160zM628 357q0 46 -15 86t-41.5 68.5t-64 45t-82.5 16.5t-82 -16.5t-64 -45t-41.5 -68.5t-14.5 -86q0 -48 15 -88.5t41.5 -69.5
t63.5 -45.5t82 -16.5t82 16.5t64 45.5t42 69.5t15 88.5z" />
    <glyph glyph-name="uni1EE3" unicode="&#x1ee3;" horiz-adv-x="632" 
d="M235 -118q0 15 6 28.5t16.5 24t25.5 17t32 6.5q35 0 58.5 -22t23.5 -54t-23.5 -54t-58.5 -22t-57.5 23t-22.5 53zM592 251q0 -61 -22 -110.5t-60 -84t-88 -53.5t-107 -19q-56 0 -106.5 19t-88 53.5t-59.5 84t-22 110.5t22 110t59.5 83t88 52t106.5 18q26 0 51.5 -4
t48.5 -12q11 -2 20 -1.5t13 0.5q21 0 26.5 18.5t5.5 45.5h117q0 -17 -1 -36.5t-7.5 -38.5t-21 -34.5t-40.5 -25.5q30 -33 47.5 -77t17.5 -98zM434 251q0 24 -8 47t-23 40.5t-37 28.5t-51 11t-51 -11t-36.5 -28.5t-22 -40.5t-7.5 -47t7.5 -47t22.5 -41.5t37 -29.5t51 -11
t51 11t37 29.5t22.5 41.5t7.5 47z" />
    <glyph glyph-name="uni1EE4" unicode="&#x1ee4;" horiz-adv-x="738" 
d="M282 -118q0 15 6 28.5t16.5 24t25.5 17t32 6.5q35 0 58.5 -22t23.5 -54t-23.5 -54t-58.5 -22t-57.5 23t-22.5 53zM673 267q0 -64 -21.5 -116.5t-61.5 -90t-96.5 -58.5t-125.5 -21q-70 0 -126 21t-95 58.5t-60 90t-21 116.5v441h170v-427q0 -29 7.5 -55t23 -46.5t41 -32.5
t61.5 -12t61.5 12t41.5 32.5t23 46.5t7 55v427h171v-441z" />
    <glyph glyph-name="uni1EE5" unicode="&#x1ee5;" horiz-adv-x="614" 
d="M216 -118q0 15 6 28.5t16.5 24t25.5 17t32 6.5q35 0 58.5 -22t23.5 -54t-23.5 -54t-58.5 -22t-57.5 23t-22.5 53zM392 0v69h-2q-9 -17 -23.5 -32t-34 -26t-43 -18t-49.5 -7q-50 0 -84.5 18t-56 46.5t-31 65t-9.5 74.5v308h165v-270q0 -21 3 -40t11.5 -34t22.5 -23.5
t37 -8.5q43 0 65.5 32t22.5 75v269h164v-498h-158z" />
    <glyph glyph-name="uni1EE6" unicode="&#x1ee6;" horiz-adv-x="738" 
d="M337 746v14q-2 23 3 37t28 27q6 2 12.5 8.5t6.5 12.5q0 4 -3.5 7.5t-11.5 3.5q-9 0 -18 -5.5t-15 -24.5l-69 31q27 71 103 71q39 0 67.5 -20.5t28.5 -58.5q0 -32 -16.5 -49t-30.5 -25q-7 -4 -7 -20v-9h-78zM673 267q0 -64 -21.5 -116.5t-61.5 -90t-96.5 -58.5t-125.5 -21
q-70 0 -126 21t-95 58.5t-60 90t-21 116.5v441h170v-427q0 -29 7.5 -55t23 -46.5t41 -32.5t61.5 -12t61.5 12t41.5 32.5t23 46.5t7 55v427h171v-441z" />
    <glyph glyph-name="uni1EE7" unicode="&#x1ee7;" horiz-adv-x="614" 
d="M268 535v14q-2 23 3 37t28 27q6 2 12.5 8.5t6.5 12.5q0 4 -3.5 7.5t-11.5 3.5q-9 0 -18 -5.5t-15 -24.5l-69 31q27 71 103 71q39 0 67.5 -20.5t28.5 -58.5q0 -32 -16.5 -49t-30.5 -25q-7 -4 -7 -20v-9h-78zM392 0v69h-2q-9 -17 -23.5 -32t-34 -26t-43 -18t-49.5 -7
q-50 0 -84.5 18t-56 46.5t-31 65t-9.5 74.5v308h165v-270q0 -21 3 -40t11.5 -34t22.5 -23.5t37 -8.5q43 0 65.5 32t22.5 75v269h164v-498h-158z" />
    <glyph glyph-name="uni1EE8" unicode="&#x1ee8;" horiz-adv-x="738" 
d="M423 746h-109l75 130h135zM673 267q0 -64 -21.5 -116.5t-61.5 -90t-96.5 -58.5t-125.5 -21q-70 0 -126 21t-95 58.5t-60 90t-21 116.5v441h170v-427q0 -29 7.5 -55t23 -46.5t41 -32.5t61.5 -12t61.5 12t41.5 32.5t23 46.5t7 55v427h124q16 4 20 21t4 42h117
q0 -19 -1.5 -40.5t-10.5 -41.5t-28 -36t-54 -23v-363z" />
    <glyph glyph-name="uni1EE9" unicode="&#x1ee9;" horiz-adv-x="614" 
d="M354 538h-109l75 130h135zM392 0v69h-2q-9 -17 -23.5 -32t-34 -26t-43 -18t-49.5 -7q-50 0 -84.5 18t-56 46.5t-31 65t-9.5 74.5v308h165v-270q0 -21 3 -40t11.5 -34t22.5 -23.5t37 -8.5q43 0 65.5 32t22.5 75v269h119q17 3 21 20.5t4 42.5h117q0 -19 -1.5 -41
t-10.5 -42.5t-29 -36t-56 -22.5v-419h-158z" />
    <glyph glyph-name="uni1EEA" unicode="&#x1eea;" horiz-adv-x="738" 
d="M236 876h135l75 -130h-109zM673 267q0 -64 -21.5 -116.5t-61.5 -90t-96.5 -58.5t-125.5 -21q-70 0 -126 21t-95 58.5t-60 90t-21 116.5v441h170v-427q0 -29 7.5 -55t23 -46.5t41 -32.5t61.5 -12t61.5 12t41.5 32.5t23 46.5t7 55v427h124q16 4 20 21t4 42h117
q0 -19 -1.5 -40.5t-10.5 -41.5t-28 -36t-54 -23v-363z" />
    <glyph glyph-name="uni1EEB" unicode="&#x1eeb;" horiz-adv-x="614" 
d="M166 668h135l75 -130h-109zM392 0v69h-2q-9 -17 -23.5 -32t-34 -26t-43 -18t-49.5 -7q-50 0 -84.5 18t-56 46.5t-31 65t-9.5 74.5v308h165v-270q0 -21 3 -40t11.5 -34t22.5 -23.5t37 -8.5q43 0 65.5 32t22.5 75v269h119q17 3 21 20.5t4 42.5h117q0 -19 -1.5 -41
t-10.5 -42.5t-29 -36t-56 -22.5v-419h-158z" />
    <glyph glyph-name="uni1EEC" unicode="&#x1eec;" horiz-adv-x="738" 
d="M337 746v14q-2 23 3 37t28 27q6 2 12.5 8.5t6.5 12.5q0 4 -3.5 7.5t-11.5 3.5q-9 0 -18 -5.5t-15 -24.5l-69 31q27 71 103 71q39 0 67.5 -20.5t28.5 -58.5q0 -32 -16.5 -49t-30.5 -25q-7 -4 -7 -20v-9h-78zM673 267q0 -64 -21.5 -116.5t-61.5 -90t-96.5 -58.5t-125.5 -21
q-70 0 -126 21t-95 58.5t-60 90t-21 116.5v441h170v-427q0 -29 7.5 -55t23 -46.5t41 -32.5t61.5 -12t61.5 12t41.5 32.5t23 46.5t7 55v427h124q16 4 20 21t4 42h117q0 -19 -1.5 -40.5t-10.5 -41.5t-28 -36t-54 -23v-363z" />
    <glyph glyph-name="uni1EED" unicode="&#x1eed;" horiz-adv-x="614" 
d="M268 535v14q-2 23 3 37t28 27q6 2 12.5 8.5t6.5 12.5q0 4 -3.5 7.5t-11.5 3.5q-9 0 -18 -5.5t-15 -24.5l-69 31q27 71 103 71q39 0 67.5 -20.5t28.5 -58.5q0 -32 -16.5 -49t-30.5 -25q-7 -4 -7 -20v-9h-78zM392 0v69h-2q-9 -17 -23.5 -32t-34 -26t-43 -18t-49.5 -7
q-50 0 -84.5 18t-56 46.5t-31 65t-9.5 74.5v308h165v-270q0 -21 3 -40t11.5 -34t22.5 -23.5t37 -8.5q43 0 65.5 32t22.5 75v269h119q17 3 21 20.5t4 42.5h117q0 -19 -1.5 -41t-10.5 -42.5t-29 -36t-56 -22.5v-419h-158z" />
    <glyph glyph-name="uni1EEE" unicode="&#x1eee;" horiz-adv-x="738" 
d="M521 871q0 -24 -4.5 -46t-14.5 -38.5t-26.5 -26t-40.5 -9.5q-22 0 -40.5 5.5t-38.5 15.5l-16 8t-15 3q-14 0 -20.5 -8.5t-8.5 -22.5h-77q1 23 5.5 44.5t14.5 38t26 26t40 9.5q41 0 79 -20q11 -5 18 -8.5t14 -3.5q14 0 20 8.5t9 24.5h76zM673 267q0 -64 -21.5 -116.5
t-61.5 -90t-96.5 -58.5t-125.5 -21q-70 0 -126 21t-95 58.5t-60 90t-21 116.5v441h170v-427q0 -29 7.5 -55t23 -46.5t41 -32.5t61.5 -12t61.5 12t41.5 32.5t23 46.5t7 55v427h124q16 4 20 21t4 42h117q0 -19 -1.5 -40.5t-10.5 -41.5t-28 -36t-54 -23v-363z" />
    <glyph glyph-name="uni1EEF" unicode="&#x1eef;" horiz-adv-x="614" 
d="M451 667q0 -24 -4.5 -46t-14.5 -38.5t-26.5 -26t-40.5 -9.5q-22 0 -40.5 5.5t-38.5 15.5l-16 8t-15 3q-14 0 -20.5 -8.5t-8.5 -22.5h-77q1 23 5.5 44.5t14.5 38t26 26t40 9.5q41 0 79 -20q11 -5 18 -8.5t14 -3.5q14 0 20 8.5t9 24.5h76zM392 0v69h-2q-9 -17 -23.5 -32
t-34 -26t-43 -18t-49.5 -7q-50 0 -84.5 18t-56 46.5t-31 65t-9.5 74.5v308h165v-270q0 -21 3 -40t11.5 -34t22.5 -23.5t37 -8.5q43 0 65.5 32t22.5 75v269h119q17 3 21 20.5t4 42.5h117q0 -19 -1.5 -41t-10.5 -42.5t-29 -36t-56 -22.5v-419h-158z" />
    <glyph glyph-name="uni1EF0" unicode="&#x1ef0;" horiz-adv-x="738" 
d="M282 -118q0 15 6 28.5t16.5 24t25.5 17t32 6.5q35 0 58.5 -22t23.5 -54t-23.5 -54t-58.5 -22t-57.5 23t-22.5 53zM673 267q0 -64 -21.5 -116.5t-61.5 -90t-96.5 -58.5t-125.5 -21q-70 0 -126 21t-95 58.5t-60 90t-21 116.5v441h170v-427q0 -29 7.5 -55t23 -46.5t41 -32.5
t61.5 -12t61.5 12t41.5 32.5t23 46.5t7 55v427h124q16 4 20 21t4 42h117q0 -19 -1.5 -40.5t-10.5 -41.5t-28 -36t-54 -23v-363z" />
    <glyph glyph-name="uni1EF1" unicode="&#x1ef1;" horiz-adv-x="614" 
d="M216 -118q0 15 6 28.5t16.5 24t25.5 17t32 6.5q35 0 58.5 -22t23.5 -54t-23.5 -54t-58.5 -22t-57.5 23t-22.5 53zM392 0v69h-2q-9 -17 -23.5 -32t-34 -26t-43 -18t-49.5 -7q-50 0 -84.5 18t-56 46.5t-31 65t-9.5 74.5v308h165v-270q0 -21 3 -40t11.5 -34t22.5 -23.5
t37 -8.5q43 0 65.5 32t22.5 75v269h119q17 3 21 20.5t4 42.5h117q0 -19 -1.5 -41t-10.5 -42.5t-29 -36t-56 -22.5v-419h-158z" />
    <glyph glyph-name="Ygrave" unicode="&#x1ef2;" horiz-adv-x="669" 
d="M199 876h135l75 -130h-109zM417 300v-300h-171v300l-266 408h207l151 -262l151 262h200z" />
    <glyph glyph-name="ygrave" unicode="&#x1ef3;" horiz-adv-x="567" 
d="M146 668h135l75 -130h-109zM345 -75q-15 -39 -33.5 -69.5t-44 -52t-60 -32.5t-81.5 -11q-23 0 -47.5 3t-42.5 8l18 138q12 -4 26.5 -6.5t26.5 -2.5q38 0 55 17.5t29 49.5l16 41l-208 490h182l111 -320h3l99 320h174z" />
    <glyph glyph-name="uni1EF4" unicode="&#x1ef4;" horiz-adv-x="669" 
d="M251 -118q0 15 6 28.5t16.5 24t25.5 17t32 6.5q35 0 58.5 -22t23.5 -54t-23.5 -54t-58.5 -22t-57.5 23t-22.5 53zM417 300v-300h-171v300l-266 408h207l151 -262l151 262h200z" />
    <glyph glyph-name="uni1EF5" unicode="&#x1ef5;" horiz-adv-x="567" 
d="M365 -118q0 15 6 28.5t16.5 24t25.5 17t32 6.5q35 0 58.5 -22t23.5 -54t-23.5 -54t-58.5 -22t-57.5 23t-22.5 53zM345 -75q-15 -39 -33.5 -69.5t-44 -52t-60 -32.5t-81.5 -11q-23 0 -47.5 3t-42.5 8l18 138q12 -4 26.5 -6.5t26.5 -2.5q38 0 55 17.5t29 49.5l16 41
l-208 490h182l111 -320h3l99 320h174z" />
    <glyph glyph-name="uni1EF6" unicode="&#x1ef6;" horiz-adv-x="669" 
d="M301 746v14q-2 23 3 37t28 27q6 2 12.5 8.5t6.5 12.5q0 4 -3.5 7.5t-11.5 3.5q-9 0 -18 -5.5t-15 -24.5l-69 31q27 71 103 71q39 0 67.5 -20.5t28.5 -58.5q0 -32 -16.5 -49t-30.5 -25q-7 -4 -7 -20v-9h-78zM417 300v-300h-171v300l-266 408h207l151 -262l151 262h200z
" />
    <glyph glyph-name="uni1EF7" unicode="&#x1ef7;" horiz-adv-x="567" 
d="M253 535v14q-2 23 3 37t28 27q6 2 12.5 8.5t6.5 12.5q0 4 -3.5 7.5t-11.5 3.5q-9 0 -18 -5.5t-15 -24.5l-69 31q27 71 103 71q39 0 67.5 -20.5t28.5 -58.5q0 -32 -16.5 -49t-30.5 -25q-7 -4 -7 -20v-9h-78zM345 -75q-15 -39 -33.5 -69.5t-44 -52t-60 -32.5t-81.5 -11
q-23 0 -47.5 3t-42.5 8l18 138q12 -4 26.5 -6.5t26.5 -2.5q38 0 55 17.5t29 49.5l16 41l-208 490h182l111 -320h3l99 320h174z" />
    <glyph glyph-name="uni1EF8" unicode="&#x1ef8;" horiz-adv-x="669" 
d="M488 871q0 -24 -4.5 -46t-14.5 -38.5t-26.5 -26t-40.5 -9.5q-22 0 -40.5 5.5t-38.5 15.5l-16 8t-15 3q-14 0 -20.5 -8.5t-8.5 -22.5h-77q1 23 5.5 44.5t14.5 38t26 26t40 9.5q41 0 79 -20q11 -5 18 -8.5t14 -3.5q14 0 20 8.5t9 24.5h76zM417 300v-300h-171v300l-266 408
h207l151 -262l151 262h200z" />
    <glyph glyph-name="uni1EF9" unicode="&#x1ef9;" horiz-adv-x="567" 
d="M439 667q0 -24 -4.5 -46t-14.5 -38.5t-26.5 -26t-40.5 -9.5q-22 0 -40.5 5.5t-38.5 15.5l-16 8t-15 3q-14 0 -20.5 -8.5t-8.5 -22.5h-77q1 23 5.5 44.5t14.5 38t26 26t40 9.5q41 0 79 -20q11 -5 18 -8.5t14 -3.5q14 0 20 8.5t9 24.5h76zM345 -75q-15 -39 -33.5 -69.5
t-44 -52t-60 -32.5t-81.5 -11q-23 0 -47.5 3t-42.5 8l18 138q12 -4 26.5 -6.5t26.5 -2.5q38 0 55 17.5t29 49.5l16 41l-208 490h182l111 -320h3l99 320h174z" />
    <glyph glyph-name="uni2010" unicode="&#x2010;" horiz-adv-x="326" 
d="M36 197v130h254v-130h-254z" />
    <glyph glyph-name="endash" unicode="&#x2013;" horiz-adv-x="400" 
d="M30 210v103h340v-103h-340z" />
    <glyph glyph-name="emdash" unicode="&#x2014;" horiz-adv-x="600" 
d="M30 209v104h540v-104h-540z" />
    <glyph glyph-name="quoteleft" unicode="&#x2018;" 
d="M187 437h-145l91 271h126z" />
    <glyph glyph-name="quoteright" unicode="&#x2019;" 
d="M167 437h-126l72 271h145z" />
    <glyph glyph-name="quotesinglbase" unicode="&#x201a;" 
d="M166 -126h-126l72 271h145z" />
    <glyph glyph-name="quotedblleft" unicode="&#x201c;" horiz-adv-x="507" 
d="M395 437h-144l89 271h126zM185 437h-143l91 271h126z" />
    <glyph glyph-name="quotedblright" unicode="&#x201d;" horiz-adv-x="507" 
d="M375 437h-127l74 271h143zM167 437h-126l72 271h143z" />
    <glyph glyph-name="quotedblbase" unicode="&#x201e;" horiz-adv-x="507" 
d="M374 -126h-127l74 271h143zM166 -126h-126l72 271h143z" />
    <glyph glyph-name="dagger" unicode="&#x2020;" horiz-adv-x="603" 
d="M371 382v-511h-142v511h-191v125h191v201h142v-201h194v-125h-194z" />
    <glyph glyph-name="daggerdbl" unicode="&#x2021;" horiz-adv-x="603" 
d="M372 50v-179h-141v179h-189v124h189v232h-189v123h188v179h142v-179h190v-123h-190v-232h190v-124h-190z" />
    <glyph glyph-name="bullet" unicode="&#x2022;" horiz-adv-x="500" 
d="M427 354q0 -37 -14 -69t-38 -56t-56 -38t-69 -14t-69 14t-56 38t-38 56t-14 69t14 69t38 56t56 38t69 14t69 -14t56 -38t38 -56t14 -69z" />
    <glyph glyph-name="ellipsis" unicode="&#x2026;" horiz-adv-x="1000" 
d="M933 88q0 -42 -29.5 -70t-70.5 -28q-20 0 -38.5 7.5t-32.5 20.5t-22.5 30.5t-8.5 38.5q0 20 8 38t22 31.5t32.5 21.5t39.5 8q41 0 70.5 -28t29.5 -70zM600 88q0 -42 -29.5 -70t-70.5 -28q-20 0 -38.5 7.5t-32.5 20.5t-22.5 30.5t-8.5 38.5q0 20 8 38t22 31.5t32.5 21.5
t39.5 8q41 0 70.5 -28t29.5 -70zM267 88q0 -42 -29 -70t-71 -28q-20 0 -38.5 7.5t-32.5 20.5t-22 30.5t-8 38.5q0 20 8 38t22 31.5t32 21.5t39 8q41 0 70.5 -28t29.5 -70z" />
    <glyph glyph-name="perthousand" unicode="&#x2030;" horiz-adv-x="1245" 
d="M1210 167q0 -37 -14 -69.5t-38.5 -57t-57.5 -38.5t-70 -14t-69.5 14t-57 38.5t-38.5 57t-14 69.5t14 69.5t38.5 56.5t57 38t69.5 14t70 -14t57.5 -38t38.5 -56.5t14 -69.5zM1104 167q0 32 -21 53t-53 21t-53 -21t-21 -53t21 -53t53 -21t53 21t21 53zM812 167
q0 -37 -14.5 -69.5t-39 -57t-57 -38.5t-69.5 -14t-70 14t-57.5 38.5t-38.5 57t-14 69.5t14 69.5t38.5 56.5t57.5 38t70 14t69.5 -14t57 -38t39 -56.5t14.5 -69.5zM706 167q0 32 -21.5 53t-52.5 21q-32 0 -53 -21t-21 -53t21 -53t53 -21q31 0 52.5 21t21.5 53zM394 542
q0 -37 -14.5 -69.5t-39 -57t-57 -38.5t-69.5 -14t-70 14t-57.5 38.5t-38.5 57t-14 69.5t14 69.5t38.5 56.5t57.5 38t70 14t69.5 -14t57 -38t39 -56.5t14.5 -69.5zM288 542q0 32 -21.5 53t-52.5 21q-32 0 -53 -21t-21 -53t21 -53t53 -21q31 0 52.5 21t21.5 53zM272 -30
l-89 39l388 731l89 -41z" />
    <glyph glyph-name="guilsinglleft" unicode="&#x2039;" horiz-adv-x="318" 
d="M186 22l-161 232l161 232l97 -63l-115 -169l116 -169z" />
    <glyph glyph-name="guilsinglright" unicode="&#x203a;" horiz-adv-x="318" 
d="M132 22l-97 63l115 168l-116 170l98 63l161 -233z" />
    <glyph glyph-name="interrobang" unicode="&#x203d;" horiz-adv-x="546" 
d="M198 226l-1 278h133l-5 -112l1 -1q31 33 43.5 59.5t12.5 58.5q0 38 -24 63.5t-72 25.5q-46 0 -71 -23t-31 -60l-148 18q7 46 28.5 82t54.5 61t76.5 38t93.5 13t93.5 -12.5t75.5 -38t50.5 -63.5t18.5 -89q0 -32 -8 -58.5t-23 -50t-37 -45t-50 -43.5q-18 -14 -29 -24.5
t-18 -20.5t-9.5 -21.5t-2.5 -26.5v-8h-152zM373 85q0 -20 -7.5 -37.5t-21 -30t-31.5 -20t-38 -7.5t-37.5 7t-31 20t-21.5 30t-8 37q0 19 7.5 36.5t21 30.5t31.5 20.5t38 7.5t37.5 -7.5t31 -20t21.5 -30t8 -36.5z" />
    <glyph glyph-name="fraction" unicode="&#x2044;" horiz-adv-x="100" 
d="M-107 -30l-87 39l388 731l87 -41z" />
    <glyph glyph-name="zero.superior" unicode="&#x2070;" horiz-adv-x="420" 
d="M385 664q0 -46 -9 -87t-30 -72.5t-54 -50t-81 -18.5t-81.5 18.5t-54.5 50t-30.5 72.5t-9.5 87q0 45 9.5 86t30.5 72t54.5 49.5t81.5 18.5t81 -18.5t54 -49.5t30 -72t9 -86zM267 664q0 22 -2.5 44.5t-8.5 41t-17 30t-28 11.5t-28.5 -11.5t-18 -30t-9 -41t-2.5 -44.5
q0 -23 2.5 -45.5t9 -41.5t18 -30.5t28.5 -11.5t28 11.5t17 30.5t8.5 41.5t2.5 45.5z" />
    <glyph glyph-name="four.superior" unicode="&#x2074;" horiz-adv-x="420" 
d="M229 445v83h-200v93l175 260h131v-259h58v-94h-58v-83h-106zM229 756h-1l-88 -134h89v134z" />
    <glyph glyph-name="five.superior" unicode="&#x2075;" horiz-adv-x="420" 
d="M378 593q0 -40 -14.5 -69.5t-38 -49t-54 -29t-62.5 -9.5q-60 0 -105.5 30t-62.5 87l103 31q8 -23 24 -37t39 -14q24 0 40 14.5t16 40.5q0 29 -21 43.5t-56 14.5q-21 0 -53.5 -6.5t-58.5 -17.5l10 259h273v-100h-170l-3 -51q19 3 36 3q33 0 62 -9t50 -27t33.5 -44
t12.5 -60z" />
    <glyph glyph-name="six.superior" unicode="&#x2076;" horiz-adv-x="420" 
d="M383 595q0 -38 -13.5 -67.5t-37 -49.5t-55 -31t-67.5 -11t-67.5 11t-55 31.5t-37 49.5t-13.5 65q0 38 13 70.5t34 64.5l104 153h139l-105 -142l1 -1q3 1 9.5 1h8.5q28 0 54 -10.5t45.5 -29.5t31 -45.5t11.5 -58.5zM269 593q0 25 -16.5 42.5t-42.5 17.5t-42.5 -17.5
t-16.5 -43.5q0 -24 16 -41.5t42 -17.5q27 0 43.5 17t16.5 43z" />
    <glyph glyph-name="seven.superior" unicode="&#x2077;" horiz-adv-x="420" 
d="M77 445l171 336h-194v100h320v-87l-164 -349h-133z" />
    <glyph glyph-name="eight.superior" unicode="&#x2078;" horiz-adv-x="420" 
d="M375 572q0 -35 -13.5 -60.5t-36.5 -42t-52.5 -25t-62.5 -8.5t-63 8.5t-52.5 25t-36 42t-13.5 60.5q0 36 19.5 62t48.5 39v2q-26 11 -42 34t-16 55q0 31 12.5 54.5t34 39.5t49.5 24t59 8q30 0 58 -8t49.5 -23.5t34.5 -38.5t13 -54q0 -32 -15.5 -55.5t-41.5 -35.5v-2
q29 -12 48 -39t19 -62zM210 800q-19 0 -31.5 -12.5t-12.5 -30.5t12 -30.5t32 -12.5q19 0 31.5 12.5t12.5 30.5t-12.5 30.5t-31.5 12.5zM210 628q-23 0 -38 -14.5t-15 -36.5t15 -35.5t38 -13.5t38 13.5t15 35.5q0 21 -15 36t-38 15z" />
    <glyph glyph-name="nine.superior" unicode="&#x2079;" horiz-adv-x="420" 
d="M383 733q0 -39 -13.5 -71t-34.5 -64l-103 -153h-140l105 142l-1 2q-4 -2 -10 -2h-8q-29 0 -55 11t-45 30t-30 45.5t-11 57.5q0 37 13.5 66.5t37 50t54.5 31.5t67 11t68 -11t55.5 -31.5t37 -49.5t13.5 -65zM268 734q0 24 -16 42t-42 18q-27 0 -43.5 -17t-16.5 -44
q0 -25 16.5 -42t42.5 -17t42.5 17t16.5 43z" />
    <glyph glyph-name="zero.inferior" unicode="&#x2080;" horiz-adv-x="420" 
d="M385 74q0 -46 -9 -87t-30 -72.5t-54 -50t-81 -18.5t-81.5 18.5t-54.5 50t-30.5 72.5t-9.5 87q0 45 9.5 86t30.5 72t54.5 49.5t81.5 18.5t81 -18.5t54 -49.5t30 -72t9 -86zM267 74q0 22 -2.5 44.5t-8.5 41t-17 30t-28 11.5t-28.5 -11.5t-18 -30t-9 -41t-2.5 -44.5
q0 -23 2.5 -45.5t9 -41.5t18 -30.5t28.5 -11.5t28 11.5t17 30.5t8.5 41.5t2.5 45.5z" />
    <glyph glyph-name="one.inferior" unicode="&#x2081;" horiz-adv-x="420" 
d="M181 -145v306l-74 -58l-60 81l145 107h106v-436h-117z" />
    <glyph glyph-name="two.inferior" unicode="&#x2082;" horiz-adv-x="420" 
d="M55 -145v92l170 156q29 26 29 56q0 18 -12 29t-33 11q-23 0 -37.5 -17t-16.5 -44l-110 14q4 35 18.5 62.5t37.5 46.5t52 29t61 10q30 0 59 -8t51.5 -24.5t36 -41.5t13.5 -60q0 -24 -6.5 -43t-17 -34.5t-24 -29.5t-28.5 -27l-87 -77h163v-100h-319z" />
    <glyph glyph-name="three.inferior" unicode="&#x2083;" horiz-adv-x="420" 
d="M379 -17q0 -36 -14.5 -62t-38 -42.5t-52.5 -24.5t-59 -8t-57.5 7t-51 21.5t-41 37.5t-26.5 56l105 28q7 -22 22.5 -37.5t41.5 -15.5q20 0 38 10t18 36q0 15 -6.5 24t-17.5 14t-25 7t-29 2h-33v84h36q27 0 46 10.5t19 36.5q0 17 -13 27.5t-33 10.5q-18 0 -32 -13t-19 -35
l-105 25q8 29 24.5 51t38.5 37t48 22.5t53 7.5q30 0 57.5 -7t48.5 -22t34 -38t13 -54q0 -34 -15.5 -58.5t-41.5 -37.5q32 -11 49.5 -38t17.5 -62z" />
    <glyph glyph-name="four.inferior" unicode="&#x2084;" horiz-adv-x="420" 
d="M229 -145v83h-200v93l175 260h131v-259h58v-94h-58v-83h-106zM229 166h-1l-88 -134h89v134z" />
    <glyph glyph-name="five.inferior" unicode="&#x2085;" horiz-adv-x="420" 
d="M378 3q0 -40 -14.5 -69.5t-38 -49t-54 -29t-62.5 -9.5q-60 0 -105.5 30t-62.5 87l103 31q8 -23 24 -37t39 -14q24 0 40 14.5t16 40.5q0 29 -21 43.5t-56 14.5q-21 0 -53.5 -6.5t-58.5 -17.5l10 259h273v-100h-170l-3 -51q19 3 36 3q33 0 62 -9t50 -27t33.5 -44t12.5 -60z
" />
    <glyph glyph-name="six.inferior" unicode="&#x2086;" horiz-adv-x="420" 
d="M383 5q0 -38 -13.5 -67.5t-37 -49.5t-55 -31t-67.5 -11t-67.5 11t-55 31.5t-37 49.5t-13.5 65q0 38 13 70.5t34 64.5l104 153h139l-105 -142l1 -1q3 1 9.5 1h8.5q28 0 54 -10.5t45.5 -29.5t31 -45.5t11.5 -58.5zM269 3q0 25 -16.5 42.5t-42.5 17.5t-42.5 -17.5
t-16.5 -43.5q0 -24 16 -41.5t42 -17.5q27 0 43.5 17t16.5 43z" />
    <glyph glyph-name="seven.inferior" unicode="&#x2087;" horiz-adv-x="420" 
d="M77 -145l171 336h-194v100h320v-87l-164 -349h-133z" />
    <glyph glyph-name="eight.inferior" unicode="&#x2088;" horiz-adv-x="420" 
d="M375 -18q0 -35 -13.5 -60.5t-36.5 -42t-52.5 -25t-62.5 -8.5t-63 8.5t-52.5 25t-36 42t-13.5 60.5q0 36 19.5 62t48.5 39v2q-26 11 -42 34t-16 55q0 31 12.5 54.5t34 39.5t49.5 24t59 8q30 0 58 -8t49.5 -23.5t34.5 -38.5t13 -54q0 -32 -15.5 -55.5t-41.5 -35.5v-2
q29 -12 48 -39t19 -62zM210 210q-19 0 -31.5 -12.5t-12.5 -30.5t12 -30.5t32 -12.5q19 0 31.5 12.5t12.5 30.5t-12.5 30.5t-31.5 12.5zM210 38q-23 0 -38 -14.5t-15 -36.5t15 -35.5t38 -13.5t38 13.5t15 35.5q0 21 -15 36t-38 15z" />
    <glyph glyph-name="nine.inferior" unicode="&#x2089;" horiz-adv-x="420" 
d="M383 143q0 -39 -13.5 -71t-34.5 -64l-103 -153h-140l105 142l-1 2q-4 -2 -10 -2h-8q-29 0 -55 11t-45 30t-30 45.5t-11 57.5q0 37 13.5 66.5t37 50t54.5 31.5t67 11t68 -11t55.5 -31.5t37 -49.5t13.5 -65zM268 144q0 24 -16 42t-42 18q-27 0 -43.5 -17t-16.5 -44
q0 -25 16.5 -42t42.5 -17t42.5 17t16.5 43z" />
    <glyph glyph-name="Euro" unicode="&#x20ac;" horiz-adv-x="646" 
d="M604 20q-29 -17 -74.5 -28t-101.5 -11q-66 0 -118.5 18t-91.5 49.5t-65.5 74.5t-39.5 93h-92l34 103h45q-1 9 -1 18v17q0 18 3 36h-78l36 104h57q16 55 47 98t74.5 73t97 46t114.5 16q44 0 89 -8t74 -22l-49 -126q-22 11 -54.5 17t-64.5 6q-26 0 -51 -6.5t-46.5 -19
t-38.5 -31.5t-26 -43h265l-35 -104h-258q-2 -9 -2 -17.5v-19.5v-16.5t1 -17.5h241l-34 -103h-186q7 -21 22 -39.5t37 -32t49 -21t57 -7.5q74 0 127 31z" />
    <glyph glyph-name="afii61248" unicode="&#x2105;" horiz-adv-x="942" 
d="M238 346q-42 0 -78 13t-63 37t-42.5 59t-15.5 79q0 43 15.5 78.5t42.5 60t63.5 38t77.5 13.5q40 0 77 -14.5t60 -39.5l-75 -83q-10 13 -25 20.5t-35 7.5q-32 0 -53.5 -21.5t-21.5 -59.5q0 -32 21 -55.5t56 -23.5q37 0 61 27l72 -84q-25 -24 -61.5 -38t-75.5 -14zM903 179
q0 -44 -15.5 -79t-42.5 -60t-63 -38.5t-76 -13.5t-76 13.5t-63 38.5t-42.5 60t-15.5 79q0 43 15.5 77.5t42.5 59t63 37.5t76 13t76 -13t63 -37.5t42.5 -59t15.5 -77.5zM782 179q0 15 -5 29t-14.5 25t-23.5 18t-33 7t-33.5 -7t-24 -18t-14 -25t-4.5 -29q0 -31 19 -56.5
t57 -25.5t57 25.5t19 56.5zM295 -34l-89 44l416 730l90 -45z" />
    <glyph glyph-name="afii61289" unicode="&#x2113;" horiz-adv-x="500" 
d="M465 56q-43 -35 -86.5 -52.5t-94.5 -17.5q-42 0 -74.5 12t-54.5 32t-33 47.5t-11 59.5v25l-54 -45h-2l-54 84l109 86v233q0 42 14 78.5t39.5 64t61 43t77.5 15.5q37 0 66.5 -11.5t50.5 -31.5t32 -49t11 -63q0 -77 -48 -149.5t-148 -153.5v-101q0 -35 18 -49t39 -14
q36 0 88 37h2zM336 557q0 25 -9 43.5t-26 18.5q-15 0 -25 -19.5t-10 -49.5v-157q39 40 54.5 81t15.5 83z" />
    <glyph glyph-name="uni2116" unicode="&#x2116;" horiz-adv-x="1068" 
d="M73 708h181l227 -433h3v433h165v-708h-184l-223 422h-4v-422h-165v708zM739 371h289v-85h-289v85zM881 418q-32 0 -60.5 11t-49.5 30.5t-33 47.5t-12 62t12 61.5t33 47t49.5 30t60.5 10.5q33 0 61.5 -10.5t49.5 -30t33 -47t12 -61.5t-12 -62t-33 -47.5t-49.5 -30.5
t-61.5 -11zM881 505q29 0 45 19t16 45q0 25 -16 44t-45 19t-44 -19t-15 -44q0 -26 15 -45t44 -19z" />
    <glyph glyph-name="published" unicode="&#x2117;" horiz-adv-x="800" 
d="M20 353q0 79 30 147.5t81.5 119.5t121 80.5t148.5 29.5q78 0 147 -29.5t120.5 -80.5t81.5 -119.5t30 -147.5q0 -78 -30 -146.5t-81.5 -119.5t-120.5 -80t-147 -29q-79 0 -148.5 29t-121 80t-81.5 119.5t-30 146.5zM80 353q0 -66 25 -124t68 -101.5t101.5 -68.5t124.5 -25
t124.5 25t102 68.5t69 101.5t25.5 124t-25 124.5t-68.5 102t-101.5 69t-124 25.5t-124.5 -25.5t-102 -69t-69 -102t-25.5 -124.5zM260 569h178q37 0 69.5 -8.5t56.5 -26.5t37.5 -46t13.5 -67t-14 -67.5t-38.5 -47t-56.5 -27.5t-68 -9h-59v-145h-119v444zM434 366
q30 0 47 13.5t17 40.5t-16.5 40t-45.5 13h-57v-107h55z" />
    <glyph glyph-name="trademark" unicode="&#x2122;" horiz-adv-x="1000" 
d="M842 296v259h-2l-97 -259h-79l-96 259h-2v-259h-105v412h150l95 -260l92 260h150v-412h-106zM268 613v-317h-110v317h-118v95h346v-95h-118z" />
    <glyph glyph-name="Omega" unicode="&#x2126;" horiz-adv-x="760" 
d="M419 0v219q59 17 91 66.5t32 113.5q0 42 -12.5 74t-34.5 54.5t-51.5 34t-63.5 11.5q-35 0 -64.5 -12t-51.5 -34.5t-34 -54.5t-12 -73q0 -39 10.5 -69.5t28 -53t39.5 -37t45 -20.5v-219h-287v144h157v11q-75 28 -120.5 96t-45.5 165q0 75 26.5 133t72.5 97.5t106 60
t128 20.5q70 0 131.5 -21t107.5 -60.5t72 -97.5t26 -132q0 -91 -42.5 -160.5t-123.5 -100.5v-11h157v-144h-287z" />
    <glyph glyph-name="estimated" unicode="&#x212e;" horiz-adv-x="500" 
d="M157 259v-181q59 -59 145 -59q63 0 109 28.5t84 91.5l35 -21q-23 -36 -46.5 -61.5t-51 -42t-59.5 -24t-71 -7.5q-59 0 -106.5 21.5t-81.5 59t-52 87.5t-18 108t18 108.5t52 87.5t81.5 58.5t106.5 21.5q58 0 105.5 -20.5t81.5 -57t53 -87t19 -111.5h-404zM448 295v145
q-63 60 -147 60t-144 -60v-145h291z" />
    <glyph glyph-name="partialdiff" unicode="&#x2202;" horiz-adv-x="666" 
d="M427 428q0 27 -7.5 54t-23.5 49.5t-40 36.5t-58 14q-33 0 -67 -12t-70 -54l-77 112q93 93 215 93q84 0 139.5 -33t89 -85t47.5 -116.5t14 -127.5q0 -39 -4.5 -82t-15.5 -84.5t-30.5 -79t-50 -65.5t-73 -44.5t-99.5 -16.5q-54 0 -99.5 18t-78.5 50t-51 76.5t-18 97.5
q0 49 16.5 91t47 72.5t75 47.5t101.5 17q65 0 118 -29zM420 292q-47 36 -92 36q-46 0 -69.5 -29.5t-23.5 -76.5q0 -45 23 -73.5t61 -28.5q27 0 46.5 14t31.5 36.5t17.5 51t5.5 57.5v13z" />
    <glyph glyph-name="Delta" unicode="&#x2206;" horiz-adv-x="735" 
d="M27 0v102l258 606h166l256 -602v-106h-680zM365 519l-142 -371h281z" />
    <glyph glyph-name="product" unicode="&#x220f;" horiz-adv-x="753" 
d="M543 -214v867h-333v-867h-151v1000h636v-1000h-152z" />
    <glyph glyph-name="summation" unicode="&#x2211;" horiz-adv-x="666" 
d="M26 -214v111l292 395l-280 383v111h594v-133h-402l256 -360l-273 -374h431v-133h-618z" />
    <glyph glyph-name="minus" unicode="&#x2212;" horiz-adv-x="666" 
d="M68 242v123h530v-123h-530z" />
    <glyph glyph-name="uni2215" unicode="&#x2215;" horiz-adv-x="100" 
d="M-107 -30l-87 39l388 731l87 -41z" />
    <glyph glyph-name="uni2219" unicode="&#x2219;" 
d="M251 291q0 -42 -29.5 -70t-70.5 -28q-21 0 -39.5 7.5t-32.5 20.5t-22 30.5t-8 38.5q0 20 8 38t22 31.5t32.5 21.5t39.5 8q41 0 70.5 -28t29.5 -70z" />
    <glyph glyph-name="radical" unicode="&#x221a;" horiz-adv-x="569" 
d="M365 -214h-126l-145 300l-51 -24l-54 114l175 79l112 -239l158 770h145z" />
    </font>
</defs>
</svg>
