<svg xmlns="http://www.w3.org/2000/svg" width="573.144" height="602.149" viewBox="0 0 573.144 602.149"><path d="M-576.945,47.485c-26.282-29.8-7.8-53.715,11.759-79.037,15.006-19.424,30.525-39.51,27.668-63.918l.247-.031-.247.031c-2.788-23.819-22.015-42.7-40.608-60.966-15.433-15.159-30.01-29.477-35.8-46.321-6.562-19.093-.591-38.058,18.793-59.688,7.111-7.936,17.361-14.259,27.273-20.374,14.226-8.777,28.937-17.854,35.469-32.064,9.867-21.465,2.5-34.344-6.029-49.258-5.091-8.9-10.358-18.111-12.415-30.063-3.412-19.811,5.5-34.745,25.763-43.184,26.33-10.963,70.31-10.029,114.781,2.437,22,6.166,42.728,14.832,59.947,25.061,18.949,11.255,33.169,23.955,42.266,37.745,9.109,13.809,12.738,28.339,10.79,43.188-2.149,16.376-11.117,33.1-26.658,49.721-7.818,8.361-19,14.843-29.817,21.115-14.6,8.463-29.693,17.214-36.815,30.71-12.712,24.089-3.956,38.237,6.182,54.619,5.392,8.712,10.966,17.72,14.189,29.225,7.866,28.072-2.4,44.355-15.4,64.97-3.669,5.819-7.463,11.835-11.157,18.589-7.468,13.657-10.741,29.754-13.907,45.32-3.316,16.308-6.449,31.711-14,44.358-12.791,21.42-43.177,37.378-77.408,40.654q-6.3.6-12.385.6C-540.89,70.924-563.693,62.507-576.945,47.485Zm52.061-484.4c-20.022,8.337-28.827,23.075-25.461,42.621,2.044,11.861,7.285,21.029,12.355,29.893,8.243,14.413,16.029,28.027,6.049,49.736-6.6,14.35-21.373,23.466-35.662,32.284-9.882,6.1-20.1,12.4-27.165,20.282C-637-214.971-608.236-186.717-577.783-156.8c18.657,18.325,37.948,37.273,40.758,61.274,2.882,24.619-12.7,44.789-27.772,64.3-19.428,25.148-37.778,48.9-11.78,78.377,15.178,17.206,43,25.677,74.447,22.674C-468.047,66.553-437.81,50.691-425.1,29.4c7.508-12.571,10.631-27.932,13.939-44.195,3.173-15.6,6.455-31.741,13.96-45.466,3.7-6.769,7.5-12.792,11.173-18.616,12.932-20.507,23.147-36.7,15.344-64.553-3.2-11.435-8.76-20.411-14.131-29.091-10.222-16.519-19.051-30.784-6.2-55.137,7.19-13.626,22.348-22.414,37.007-30.912,10.784-6.252,21.935-12.717,29.7-21.024,29.415-31.452,34.884-63.358,15.814-92.268-17.5-26.529-54.652-49.345-101.932-62.6-23.8-6.672-47.446-10.034-68.309-10.034C-496.764-444.493-512.722-441.978-524.884-436.914Z" transform="translate(523.734 733.798) rotate(39)" fill="#c7daf2"/></svg>