<svg id="Layer_1" data-name="Layer 1" xmlns="http://www.w3.org/2000/svg" width="272.8" height="264.9" viewBox="0 0 272.8 264.9"><defs><style>.cls-1{fill:#42c1e5;}.cls-2{fill:#ff495e;}.cls-3{fill:#fba552;}.cls-4{fill:#fff;}</style></defs><title>icon-front-page-hover</title><g id="_" data-name=" "><path class="cls-1" d="M62.76,16.89A24.34,24.34,0,0,1,81.43,40.65a23.44,23.44,0,0,1-3.31,12.19,24.81,24.81,0,0,1-8.88,8.89A23.55,23.55,0,0,1,57.05,65H6.25A6.06,6.06,0,0,1,.16,59V25.4a4.61,4.61,0,0,1,.38-1.9L6.89,4.19A6,6,0,0,1,12.76,0H52.6a6,6,0,0,1,5.84,4.19ZM6.25,61H43.58a23.7,23.7,0,0,1-8-8.7,24.34,24.34,0,0,1-2.92-11.75A23.71,23.71,0,0,1,36,28.45H4.22V58.94a2,2,0,0,0,2,2ZM10.7,5.46,4.47,24.39H30.63V4H12.76a2.07,2.07,0,0,0-1.27.38A2.35,2.35,0,0,0,10.7,5.46Zm24-1.4V24.39h4.19a24.64,24.64,0,0,1,8.12-6,23.81,23.81,0,0,1,10-2.16h1.14L54.59,5.43a2.35,2.35,0,0,0-.76-1A2.1,2.1,0,0,0,52.6,4ZM57.05,61A19.79,19.79,0,0,0,67.2,58.24a20.33,20.33,0,1,0-20.31,0A20,20,0,0,0,57.05,61Zm8.25-28.2,2.28,2.41a1,1,0,0,1,.26.7,1,1,0,0,1-.26.7L55.65,48.52a1.06,1.06,0,0,1-1.4,0l-7-7a1.42,1.42,0,0,1-.26-.77.88.88,0,0,1,.26-.63l2.41-2.41a1.06,1.06,0,0,1,1.4,0L55,41.64l8.77-8.87a1.3,1.3,0,0,1,.76-.25A1.37,1.37,0,0,1,65.3,32.77Z" transform="translate(-0.01 0)"/></g><g id="_2" data-name=" 2"><path class="cls-2" d="M107,52.84a9.09,9.09,0,0,1,6.79,3A10,10,0,0,1,116.62,63a2,2,0,1,1-4.07,0,6.08,6.08,0,0,0-1.65-4.31A5.15,5.15,0,0,0,107,56.94h-5.08A5.17,5.17,0,0,0,98,58.72,6.08,6.08,0,0,0,96.3,63a2,2,0,0,1-.57,1.47,2.15,2.15,0,0,1-2.92,0A2,2,0,0,1,92.24,63a10,10,0,0,1,2.85-7.17,9.13,9.13,0,0,1,6.8-3Zm-2.54-4.06a10.21,10.21,0,1,1,7.17-3A9.77,9.77,0,0,1,104.43,48.78ZM100.36,6.1V25a18.37,18.37,0,0,0-4.06,1.91V6.1A6.08,6.08,0,0,1,102.36,0h61a6.06,6.06,0,0,1,6.09,6v20.9a18.46,18.46,0,0,0-4.11-1.9V6.1a2,2,0,0,0-2-2H102.4a2,2,0,0,0-2,2Zm4.07,26.42a6.1,6.1,0,1,0,4.33,1.78A5.83,5.83,0,0,0,104.43,32.52Zm31,20.32a9.09,9.09,0,0,1,6.79,3A10,10,0,0,1,145.06,63a2,2,0,0,1-.57,1.47,2.15,2.15,0,0,1-2.92,0A2,2,0,0,1,141,63a6.08,6.08,0,0,0-1.65-4.31,5.17,5.17,0,0,0-3.94-1.78h-5.08a5.15,5.15,0,0,0-3.93,1.78A6.07,6.07,0,0,0,124.76,63a2,2,0,0,1-.57,1.47,2.15,2.15,0,0,1-2.92,0A2,2,0,0,1,120.7,63a10,10,0,0,1,2.86-7.17,9.09,9.09,0,0,1,6.79-3ZM122.76,38.61a10.17,10.17,0,1,1,3,7.14A10.17,10.17,0,0,1,122.76,38.61Zm16.26,0a6.08,6.08,0,1,0-1.78,4.32A5.87,5.87,0,0,0,139,38.61Zm24.84,14.23a9.09,9.09,0,0,1,6.79,3A10,10,0,0,1,173.51,63,2.07,2.07,0,0,1,170,64.5a2,2,0,0,1-.57-1.47,6.09,6.09,0,0,0-1.68-4.34,5.15,5.15,0,0,0-3.93-1.78h-5.07a5.17,5.17,0,0,0-3.94,1.78A6.12,6.12,0,0,0,153.19,63a2,2,0,0,1-.57,1.47,2.15,2.15,0,0,1-2.92,0,2,2,0,0,1-.57-1.47A10,10,0,0,1,152,55.86a9.13,9.13,0,0,1,6.8-3Zm-2.54-24.39a10.21,10.21,0,1,1-7.18,3,9.77,9.77,0,0,1,7.18-3Zm0,16.26A6.1,6.1,0,1,0,157,42.93a5.86,5.86,0,0,0,4.32,1.78Z" transform="translate(-0.01 0)"/></g><g id="_3" data-name=" 3"><path class="cls-3" d="M255.3,21a5.78,5.78,0,0,1,2.16,4.7V58.94A6.08,6.08,0,0,1,251.4,65H198.54a6.08,6.08,0,0,1-6.1-6.06V25.53a5.87,5.87,0,0,1,2.32-4.7l5.84-4.7V12.19a4.1,4.1,0,0,1,4.06-4.06h5.84L213.17,6q3.3-2.67,5.2-3.94a11.75,11.75,0,0,1,13.21,0A49.42,49.42,0,0,1,236.76,6l2.66,2.16h5.84a4.12,4.12,0,0,1,4.07,4.06v3.94Q254.76,20.57,255.3,21Zm-58.8,4.57v2.16l4.07,3.3V21.34L197.26,24A1.93,1.93,0,0,0,196.5,25.53Zm56.89,33.41v-26l-17.9,14.35A54,54,0,0,1,230.66,51a9.56,9.56,0,0,1-11.43,0,36,36,0,0,1-4.82-3.69L196.5,32.9v26a2,2,0,0,0,2,2h52.82a2,2,0,0,0,2-2ZM204.63,12.19v22l12.19,9.91a32.61,32.61,0,0,0,4.06,3,5.83,5.83,0,0,0,8.13,0,30.75,30.75,0,0,0,4.06-3l12.19-9.91v-22ZM225,4q-3,0-8,4.07h16Q228,4,225,4Zm-3.43,26.55a6.11,6.11,0,0,1-2.92-2.16A5.61,5.61,0,0,1,217.46,25,5.52,5.52,0,0,1,219,21.09a5.61,5.61,0,0,1,3.88-1.77v-2a1.06,1.06,0,0,1,1-1h2a1,1,0,0,1,.7.31,1,1,0,0,1,.32.7v2a6.85,6.85,0,0,1,3.94,1.52,1,1,0,0,1,.12,1.53l-1.52,1.39a1,1,0,0,1-1.27.07,3.2,3.2,0,0,0-1.65-.45H223a1.4,1.4,0,0,0-1.08.51,1.71,1.71,0,0,0-.44,1.14,1.82,1.82,0,0,0,.32,1.08,1.34,1.34,0,0,0,.82.57l5.72,1.66a6.16,6.16,0,0,1,2.92,2.16,5.69,5.69,0,0,1-.45,7.36A5.62,5.62,0,0,1,227,39.64v2a1.11,1.11,0,0,1-1,1h-2a1,1,0,0,1-.7-.32,1,1,0,0,1-.31-.7v-2A6.85,6.85,0,0,1,219,38.1a1,1,0,0,1-.45-.7,1,1,0,0,1,.32-.83l1.53-1.4a1,1,0,0,1,1.27-.06,3.11,3.11,0,0,0,1.65.45h3.55a1.34,1.34,0,0,0,1.08-.51,1.68,1.68,0,0,0,.45-1.15,1.82,1.82,0,0,0-.32-1.08,1.48,1.48,0,0,0-.83-.57Zm31.87-2.92v-2a2,2,0,0,0-.76-1.65l-3.3-2.67V31l2.16-1.78Z" transform="translate(-0.01 0)"/></g><g id="_4" data-name=" 4"><path class="cls-4" d="M22.66,119.75a4.06,4.06,0,0,1-.84,3.56,4,4,0,0,1-3.29,1.63H17.38v5.19a4.66,4.66,0,0,1-4.62,4.66h-2.5a4.66,4.66,0,0,1-4.65-4.66v-5.19H4.47a4,4,0,0,1-3.3-1.63,4,4,0,0,1-.83-3.56l3.51-14.41A4.1,4.1,0,0,1,5.34,103l.44-.26A7.72,7.72,0,0,1,16.85,91.94l.09.09a7.64,7.64,0,0,1,.27,10.64l.44.26a4.1,4.1,0,0,1,1.49,2.38Zm-4.13,2.38a1.27,1.27,0,0,0,1.09-.53,1.59,1.59,0,0,0,.31-1.23L16.42,106a2.06,2.06,0,0,0-.53-.74,1.28,1.28,0,0,0-.88-.31H14a7.84,7.84,0,0,1-4.93,0H8a1.28,1.28,0,0,0-.88.31,2.06,2.06,0,0,0-.53.74L3.06,120.37a1.59,1.59,0,0,0,.31,1.23,1.3,1.3,0,0,0,1.1.53h4v8A1.82,1.82,0,0,0,9,131.45a1.79,1.79,0,0,0,1.31.52h2.5a1.79,1.79,0,0,0,1.84-1.74v-8.1Zm-7-29.54A5,5,0,1,0,15,94a4.72,4.72,0,0,0-3.47-1.44Z" transform="translate(-0.01 0)"/></g><g id="_5" data-name=" 5"><path class="cls-4" d="M77.26,120.35a.76.76,0,0,1,.7.7v1.41a.77.77,0,0,1-.7.7H33.67a.76.76,0,0,1-.7-.7V121a.77.77,0,0,1,.7-.7h2.09V114.7A19.59,19.59,0,0,1,54,95.1V92.2h-3.5a.74.74,0,0,1-.48-.22.66.66,0,0,1-.22-.49v-1.4a.66.66,0,0,1,.22-.49.74.74,0,0,1,.48-.22h9.84a.76.76,0,0,1,.71.71v1.4a.76.76,0,0,1-.71.71H56.87v2.9a19.59,19.59,0,0,1,18.28,19.6v5.63Zm-4.92,0v-5.63a16.59,16.59,0,0,0-2.07-8.09,16.88,16.88,0,0,0-5.67-6.11,16.18,16.18,0,0,0-7.91-2.59l-.61-.09H54.85l-.62.09a16.18,16.18,0,0,0-7.91,2.59,17,17,0,0,0-7.73,14.2v5.63Z" transform="translate(-0.01 0)"/></g><g id="_6" data-name=" 6"><path class="cls-4" d="M144.38,110.88a1.35,1.35,0,0,1-.46,1.84,1.52,1.52,0,0,1-.42.16l-4.57,1.32v12.92a2.62,2.62,0,0,1-.61,1.71,3,3,0,0,1-1.5,1l-19.06,4.78a5.23,5.23,0,0,1-2.72,0l-19-4.75a3,3,0,0,1-1.5-1,2.62,2.62,0,0,1-.61-1.71V114.22l-4.57-1.32a1.34,1.34,0,0,1-1-1.58,1.26,1.26,0,0,1,.16-.42L93,101.84a1.41,1.41,0,0,1,1.32-.79l2.55.35a12.2,12.2,0,0,1,2-5.89,12.76,12.76,0,0,1,4.53-4.17,12.58,12.58,0,0,1,16.78,4.52,13,13,0,0,1,1.92,6.17l3.7-10.41A3,3,0,0,1,127.25,90a2.44,2.44,0,0,1,2.11-.09l4.92,1.76a3.06,3.06,0,0,1,1.59,1.5,2.41,2.41,0,0,1,.08,2.11l-2.28,6.33,4.92-.62a1.42,1.42,0,0,1,1.32.79Zm-52.62-.27,14.77,4.22,5.27-8.7-16.7-2.2Zm23.29,21.1V106.13l-6.68,11.08a1.27,1.27,0,0,1-1.23.7c-.12,0-1.67-.44-4.66-1.32L96.76,115v12.13Zm1.4-27.87,2.73-.35.09-1a9.85,9.85,0,0,0-9.83-9.85h0a9.38,9.38,0,0,0-6.66,2.59,9.51,9.51,0,0,0-3.08,6.5L113,103.4Zm19.69,23.3V115l-6.38,1.74c-2.58.76-3.92,1.14-4,1.14a1.27,1.27,0,0,1-1.23-.7l-6.68-11.08v25.58Zm-9.78-12.31,14.77-4.22-3.37-6.68L121.09,106Zm2-22.24-3.69,10.2,5.79-.79,2.82-7.65Z" transform="translate(-0.01 0)"/></g><g id="_8" data-name=" 8"><path class="cls-4" d="M260.25,100.83a6.94,6.94,0,0,1,4,2.46,6.79,6.79,0,0,1,1.58,4.4,6.93,6.93,0,0,1-.75,3.16,6.67,6.67,0,0,1-2.06,2.47v7a2.85,2.85,0,0,1-2.81,2.81h-5.63a2.58,2.58,0,0,1-1.93-.83,3.19,3.19,0,0,1-.88-2H234.94a3.19,3.19,0,0,1-.88,2,2.58,2.58,0,0,1-1.93.83H226.5a2.85,2.85,0,0,1-2.81-2.81v-7a7.06,7.06,0,0,1-2.81-5.54,7.06,7.06,0,0,1,5.62-7v-3a8.42,8.42,0,0,1,8.4-8.44h16.91a8.42,8.42,0,0,1,8.44,8.4v3.09Zm-28.12,19.52V104.88a1.4,1.4,0,0,0-.4-1,1.28,1.28,0,0,0-1-.44h-2.81a4,4,0,0,0-3,1.27,4.11,4.11,0,0,0-1.23,3,3.88,3.88,0,0,0,.88,2.55,6.1,6.1,0,0,0,1.93,1.49v8.62Zm19.68-15.47a4.14,4.14,0,0,1,1.23-2.95,4,4,0,0,1,3-1.27h1.41V97.84a5.7,5.7,0,0,0-5.63-5.62H234.94a5.7,5.7,0,0,0-5.63,5.62v2.82h1.45a4,4,0,0,1,3,1.27,4.14,4.14,0,0,1,1.23,2.95v1.4h16.87Zm0,12.65V109.1H234.94v8.43Zm8.44-5.8a6.66,6.66,0,0,0,2-1.58,3.71,3.71,0,0,0,.79-2.46,4.11,4.11,0,0,0-1.23-3,4,4,0,0,0-3-1.27H256a1.28,1.28,0,0,0-1,.44,1.44,1.44,0,0,0-.4,1v15.47h5.63Z" transform="translate(-0.01 0)"/></g><g id="_9" data-name=" 9"><path class="cls-4" d="M40.76,160.87A4.2,4.2,0,0,1,45,165.05v8.48a1.35,1.35,0,0,1-1.29,1.41H42.18v9.84A4.2,4.2,0,0,1,38,189H7a4.2,4.2,0,0,1-4.22-4.18V175H1.4a1.34,1.34,0,0,1-1-.4,1.39,1.39,0,0,1-.39-1v-8.44a4.2,4.2,0,0,1,4.18-4.22H7.65a7.39,7.39,0,0,1-1.31-4.22,7,7,0,0,1,1.93-5,6.12,6.12,0,0,1,4.61-2.07,7,7,0,0,1,4.79,1.85A31,31,0,0,1,22.49,158a31.61,31.61,0,0,1,4.84-6.59,7,7,0,0,1,4.79-1.85,6.11,6.11,0,0,1,4.64,2.1,7,7,0,0,1,1.93,5,7.39,7.39,0,0,1-1.31,4.22ZM16.87,172.13v-8.44H4.22a1.39,1.39,0,0,0-1,.39,1.34,1.34,0,0,0-.4,1v7Zm0,14.06V174.94H5.62v9.84A1.37,1.37,0,0,0,7,186.19h9.92Zm-4-33.76a3.45,3.45,0,0,0-2.68,1.23,4.61,4.61,0,0,0,0,6,3.35,3.35,0,0,0,2.59,1.23h8.08l-.17-.35a57.7,57.7,0,0,0-3.47-5.27,9.6,9.6,0,0,0-2.42-2.38A4,4,0,0,0,12.92,152.43Zm12.39,33.76v-22.5H19.68v22.5Zm-1.06-25.67-.17.35h8a3.45,3.45,0,0,0,2.68-1.23,4.61,4.61,0,0,0,0-6,3.35,3.35,0,0,0-2.59-1.23,4.21,4.21,0,0,0-2,.44,9.48,9.48,0,0,0-2.41,2.4,60.27,60.27,0,0,0-3.51,5.27Zm17.93,11.61v-7a1.34,1.34,0,0,0-.4-1,1.39,1.39,0,0,0-1-.39H28.12v8.44Zm-2.81,12.65v-9.84H28.12v11.25H38a1.37,1.37,0,0,0,1.41-1.33Z" transform="translate(-0.01 0)"/></g><g id="_10" data-name=" 10"><path class="cls-4" d="M93,181.89A1.51,1.51,0,0,0,94.51,183c.59,0,2.12-.94,4.57-2.81l.88-.62q0,6.6-3,10.72a11.35,11.35,0,0,1-9.66,4.58c-4.21,0-7.42-1.18-9.58-3.52a11.06,11.06,0,0,1-2.9-6.42l-8.26,8.27-9.41,1.67a2.1,2.1,0,0,1-1.62-.58,1.62,1.62,0,0,1-.57-1.62l1.67-9.41,10-10L57,162.49A6.58,6.58,0,0,1,55,156.68a7.74,7.74,0,0,1,2.85-4.83,8,8,0,0,1,5.23-2A6.67,6.67,0,0,1,68.82,153L76,163.82,88.76,151a4.26,4.26,0,0,1,6,0l4,4a4.26,4.26,0,0,1,0,6l-14,14a9.41,9.41,0,0,1,4.74,1.85A11,11,0,0,1,93,181.89ZM59.1,160.62l9.58,10.55L74,165.81l-7.47-11.25a4.15,4.15,0,0,0-3.43-1.94,5.1,5.1,0,0,0-2.94,1A5.33,5.33,0,0,0,58.13,156,4,4,0,0,0,59.1,160.62Zm6.15,29.89L90.76,165l-6-6-25.49,25.5L58,191.74ZM87.31,192q6.85,0,9-6.68a5.12,5.12,0,0,1-1.85.44,4.28,4.28,0,0,1-4-2.81l-.18-.26a7.36,7.36,0,0,0-1.84-3.08,9.16,9.16,0,0,0-5.89-2.11L79,180.69l-1.5,1.5a10.76,10.76,0,0,0,.35,3.87,7.54,7.54,0,0,0,1.76,3.25Q82.13,192,87.31,192Zm3.45-39-4,4,6,6,4-4a1.39,1.39,0,0,0,0-1.95l0-.05-4-4a1.43,1.43,0,0,0-1-.26A1.54,1.54,0,0,0,90.76,153Z" transform="translate(-0.01 0)"/></g><g id="_11" data-name=" 11"><path class="cls-4" d="M159.69,163.69a1,1,0,0,1,1,1v.75a1,1,0,0,1-.94,1.06h-1.47l-2.63,18.9A4.42,4.42,0,0,1,154.2,188a4.06,4.06,0,0,1-2.77,1.05h-32a4.06,4.06,0,0,1-2.77-1.05,4.42,4.42,0,0,1-1.45-2.55l-2.63-18.9h-1.41a1,1,0,0,1-1-1v-.76a1,1,0,0,1,1-1.05h6.82L130.16,150a1.4,1.4,0,0,1,1-.44,1.44,1.44,0,0,1,1,.4,1.2,1.2,0,0,1,.44,1,1.53,1.53,0,0,1-.35,1l-10.49,11.7h27.41L138.6,152a1.53,1.53,0,0,1-.35-1,1.2,1.2,0,0,1,.44-1,1.44,1.44,0,0,1,1-.4,1.4,1.4,0,0,1,1,.44L152.9,163.7ZM152.83,185l2.55-18.46H115.49L118,185a1.46,1.46,0,0,0,.48.88,1.35,1.35,0,0,0,.92.35h32a1.35,1.35,0,0,0,.92-.35,1.44,1.44,0,0,0,.47-.88ZM127,171.42a1.34,1.34,0,0,0-.4-1,1.39,1.39,0,0,0-2.39,1v9.85a1.34,1.34,0,0,0,1.28,1.4h.12a1.39,1.39,0,0,0,1-.39,1.34,1.34,0,0,0,.4-1Zm9.84,0a1.39,1.39,0,1,0-2.78,0v9.85a1.34,1.34,0,0,0,1.39,1.39,1.34,1.34,0,0,0,1.4-1.28v-10Zm9.84,0a1.41,1.41,0,0,0-2.39-1,1.34,1.34,0,0,0-.4,1v9.85a1.34,1.34,0,0,0,.4,1,1.39,1.39,0,0,0,1,.39,1.34,1.34,0,0,0,1.4-1.28v-10Z" transform="translate(-0.01 0)"/></g><g id="_12" data-name=" 12"><path class="cls-4" d="M209.84,149.62h6.06V151a23.38,23.38,0,0,1-2.42,10.55,20.16,20.16,0,0,1-6.5,7.69,15.33,15.33,0,0,1-8.92,2.86h-3.25V188.3a.76.76,0,0,1-.7.7H192.7a.76.76,0,0,1-.7-.7V177.75h-3.24a15.19,15.19,0,0,1-8.92-2.86,20,20,0,0,1-6.5-7.69,23.12,23.12,0,0,1-2.42-10.55v-1.4H177a15.38,15.38,0,0,1,9,2.9A19.24,19.24,0,0,1,192.4,166a23.45,23.45,0,0,1,3.47-8.39,18.6,18.6,0,0,1,6.15-5.85A15.25,15.25,0,0,1,209.84,149.62Zm-21.08,25.32H192a21.41,21.41,0,0,0-2.42-8.53,16.72,16.72,0,0,0-5.4-6.11,12.72,12.72,0,0,0-7.21-2.24h-3.22a21.24,21.24,0,0,0,2.42,8.53,16.47,16.47,0,0,0,5.4,6.11A12.78,12.78,0,0,0,188.76,174.94Zm9.31-5.63a12.7,12.7,0,0,0,7.21-2.24,16.55,16.55,0,0,0,5.4-6.11,21.41,21.41,0,0,0,2.42-8.53h-3.25a12.63,12.63,0,0,0-7.21,2.25,16.61,16.61,0,0,0-5.4,6.1,20.22,20.22,0,0,0-2.33,8.53Z" transform="translate(-0.01 0)"/></g><g id="_13" data-name=" 13"><path class="cls-4" d="M266.65,155.43a4.2,4.2,0,0,1,4.22,4.18v8.48a4.2,4.2,0,0,1-4.18,4.22H248.38A1.35,1.35,0,0,0,247,173.6v4.34h1.41a2.85,2.85,0,0,1,2.81,2.81V192a2.87,2.87,0,0,1-2.81,2.82h-5.62A2.85,2.85,0,0,1,240,192V180.75a2.83,2.83,0,0,1,2.81-2.81h1.41v-4.22a4.2,4.2,0,0,1,4.18-4.22h18.31a1.37,1.37,0,0,0,1.41-1.33v-8.52a1.34,1.34,0,0,0-.4-1,1.39,1.39,0,0,0-1-.39h-4.21v1.4a4.2,4.2,0,0,1-4.18,4.22H230.1a4.2,4.2,0,0,1-4.22-4.18V154a4.2,4.2,0,0,1,4.18-4.22h28.16a4.2,4.2,0,0,1,4.22,4.18v1.44Zm-7,0V154a1.39,1.39,0,0,0-.39-1,1.34,1.34,0,0,0-1-.4H230.1a1.37,1.37,0,0,0-1.41,1.33v5.7a1.37,1.37,0,0,0,1.33,1.41h28.2a1.34,1.34,0,0,0,1-.4,1.39,1.39,0,0,0,.39-1ZM248.38,192V180.75h-5.62V192Z" transform="translate(-0.01 0)"/></g><g id="_14" data-name=" 14"><path class="cls-4" d="M45.37,231.72A10.84,10.84,0,0,1,51,233.25a11.42,11.42,0,0,1,4.13,4.18,10.36,10.36,0,0,1,1.45,5.67A11.42,11.42,0,0,1,55,248.73a11.11,11.11,0,0,1-9.67,5.49,10.8,10.8,0,0,1-5.62-1.54,11.45,11.45,0,0,1-4.09-4.09A10.76,10.76,0,0,1,34.12,243a11.26,11.26,0,0,1,1.18-5.1,11.56,11.56,0,0,1,3.21-4L37,231.56a14.36,14.36,0,0,0-4.44,5.54,13.84,13.84,0,0,0-1.19,7.12,1.51,1.51,0,0,1-.39,1.05,1.28,1.28,0,0,1-1,.44H22.52a11.24,11.24,0,0,1-20.65,2.77,10.92,10.92,0,0,1-1.5-5.63,10.8,10.8,0,0,1,1.54-5.62,11.45,11.45,0,0,1,9.8-5.58,10.07,10.07,0,0,1,3.52.61l1-1.67a6.18,6.18,0,0,0-4.57-1.76H7.4a1.28,1.28,0,0,1-1-.44,1.48,1.48,0,0,1-.39-1,1.2,1.2,0,0,1,.44-1,1.38,1.38,0,0,1,1-.4h4.22a13.06,13.06,0,0,1,4.92.79,8.11,8.11,0,0,1,3,2H35.35l-3.43-5.62H26A1.06,1.06,0,0,1,25,222.1v-.7A1.06,1.06,0,0,1,26,220.34h6.73a1.37,1.37,0,0,1,1.23.71l2.33,4,2.81-3.69a1.94,1.94,0,0,1,1.67-.88h5.27a2.13,2.13,0,0,1,2.11,2.11v4.22a2,2,0,0,1-.62,1.5,2,2,0,0,1-1.49.61H38.69L41,232.59A11.43,11.43,0,0,1,45.37,231.72ZM11.62,251.41a8,8,0,0,0,4.88-1.59,8.41,8.41,0,0,0,3-4H10.22a1.26,1.26,0,0,1-1.19-.7,1.42,1.42,0,0,1,0-1.41l4.83-8.88a9.59,9.59,0,0,0-2.2-.26,8.44,8.44,0,1,0,0,16.88ZM28.49,243a17.25,17.25,0,0,1,1.1-6.07,15.7,15.7,0,0,1,3.17-5.18h-14L12.61,243ZM45,251.41a8.42,8.42,0,0,0,7.61-4.09A8.3,8.3,0,0,0,53.76,243a8.4,8.4,0,0,0-8.36-8.44h-.07a8.23,8.23,0,0,0-2.9.53l5,8.17a1.27,1.27,0,0,1,.08.79,1.14,1.14,0,0,1-.44.71l-.61.35a1.27,1.27,0,0,1-.79.08,1.13,1.13,0,0,1-.71-.43l-5-8.27a8.43,8.43,0,0,0-2.33,3,8,8,0,0,0-.75,3.83A8.6,8.6,0,0,0,45,251.38Zm-4-28.49-2.63,3.52h7.38v-3.52Z" transform="translate(-0.01 0)"/></g><g id="_15" data-name=" 15"><path class="cls-4" d="M101.07,227.84a5.53,5.53,0,0,1,.1,7.81l-.1.1-6.76,6.86v17.31a5,5,0,0,1-4.93,4.93H88a4.65,4.65,0,0,1-3.52-1.5,4.63,4.63,0,0,1-3.51,1.5H79.54a5,5,0,0,1-4.92-4.93V242.61l-6.76-6.86a5.22,5.22,0,0,1-1.67-4,5.53,5.53,0,0,1,5.62-5.62,5.92,5.92,0,0,1,4.26,1.93,8.26,8.26,0,0,1,2.55-5.85,8.4,8.4,0,0,1,11.77,0,8.26,8.26,0,0,1,2.55,5.85,5.92,5.92,0,0,1,4.26-1.93A5.13,5.13,0,0,1,101.07,227.84Zm-1.93,6a2.92,2.92,0,0,0,.79-2A2.87,2.87,0,0,0,97.12,229a2.92,2.92,0,0,0-2,.79l-6.86,7H80.68l-6.85-7a2.92,2.92,0,0,0-2-.79A2.85,2.85,0,0,0,69,231.84a2.92,2.92,0,0,0,.79,2l7.64,7.56V260A2.1,2.1,0,0,0,79.54,262H81a2.1,2.1,0,0,0,2.11-2.09v-9.86h2.81v9.84a2.08,2.08,0,0,0,2,2.11h1.46a2.08,2.08,0,0,0,2.11-2V241.37ZM84.46,222.65a5.57,5.57,0,1,0,4,1.63A5.38,5.38,0,0,0,84.46,222.65Z" transform="translate(-0.01 0)"/></g><g id="_16" data-name=" 16"><path class="cls-4" d="M168.2,254.12a10.24,10.24,0,0,1,.35,2.64,7.49,7.49,0,0,1-2.54,5.76,8.7,8.7,0,0,1-6.07,2.33,9.49,9.49,0,0,1-1.84-.18c-.47-.12-1.53-.41-3.17-.88l-2.63-.7a8.11,8.11,0,0,1-4.54-2.86,7.66,7.66,0,0,1-1.71-4.88v-7.91l2.81,1.85v6.06a5,5,0,0,0,1.14,3.17,5.78,5.78,0,0,0,3,1.93l5.62,1.41a5.31,5.31,0,0,0,1.32.17,5.89,5.89,0,0,0,4.09-1.54,4.82,4.82,0,0,0,1.71-3.73,7.44,7.44,0,0,0-.26-1.94,69.09,69.09,0,0,0-8.61-19.51C156,234,155.37,233,155,232.5a4.11,4.11,0,0,0-1.27-1.15,3.84,3.84,0,0,0-1.54-.26,3.36,3.36,0,0,0-2.37.88,2.74,2.74,0,0,0-1,2.11v8.44l8.61,5.8a.62.62,0,0,1,.31.44,1.19,1.19,0,0,1,0,.53l-.79,1.14a.7.7,0,0,1-.49.31.79.79,0,0,1-.48,0l-15.56-10.37-15.55,10.37a.45.45,0,0,1-.48.09.91.91,0,0,1-.49-.35l-.79-1.14a1.19,1.19,0,0,1,0-.53.62.62,0,0,1,.31-.44l8.61-5.8v-8.44a2.74,2.74,0,0,0-1-2.11,3.36,3.36,0,0,0-2.37-.88,3.84,3.84,0,0,0-1.54.26,4.11,4.11,0,0,0-1.27,1.15c-.35.52-1,1.46-1.85,2.81a69.09,69.09,0,0,0-8.61,19.51,7.44,7.44,0,0,0-.26,1.94,4.82,4.82,0,0,0,1.71,3.73,5.88,5.88,0,0,0,4.09,1.54,5.29,5.29,0,0,0,1.31-.17l5.63-1.41a5.89,5.89,0,0,0,3-1.93A5,5,0,0,0,132,255.4v-6.06l2.81-1.85v7.91a7.66,7.66,0,0,1-1.71,4.88,8.08,8.08,0,0,1-4.53,2.86l-2.64.7c-1.64.47-2.69.76-3.16.88a9.49,9.49,0,0,1-1.84.18,8.7,8.7,0,0,1-6.07-2.33,7.5,7.5,0,0,1-2.55-5.76,9.83,9.83,0,0,1,.36-2.64,73.76,73.76,0,0,1,9-20.31l.44-.7a19.51,19.51,0,0,1,2.63-3.43,5.88,5.88,0,0,1,4-1.4,6,6,0,0,1,4.26,1.67,5.42,5.42,0,0,1,1.8,4.13v6.59l4.22-2.81V220.54a.76.76,0,0,1,.7-.7h1.41a.76.76,0,0,1,.7.7v17.32l4.22,2.81v-6.59a5.42,5.42,0,0,1,1.8-4.13,6,6,0,0,1,4.26-1.67,5.85,5.85,0,0,1,4,1.4,19.1,19.1,0,0,1,2.64,3.43l.44.7A74,74,0,0,1,168.2,254.12Z" transform="translate(-0.01 0)"/></g><g id="_17" data-name=" 17"><path class="cls-4" d="M217,262a1.06,1.06,0,0,1,1.06,1.06v.7a1.05,1.05,0,0,1-1.06,1.06H185.76a7.07,7.07,0,0,1-7-7v-31a7.06,7.06,0,0,1,7-7H216a2,2,0,0,1,1.49.61,2,2,0,0,1,.62,1.5v32.35a2,2,0,0,1-.35,1.14,2.21,2.21,0,0,1-1,.79,12.62,12.62,0,0,0-.26,2.81,15.08,15.08,0,0,0,.26,3Zm-31.27-8.44h1.41V222.65h-1.41a4.2,4.2,0,0,0-4.22,4.18V255A6.78,6.78,0,0,1,185.76,253.59Zm28.47,2.82H185.76a5.07,5.07,0,0,0-3.12.83,2.34,2.34,0,0,0-.8,3.2,2.27,2.27,0,0,0,.8.8,5.12,5.12,0,0,0,3.12.79h28.47a18.26,18.26,0,0,1,0-5.62Zm1.06-2.82V222.65H190v30.94Zm-20-19.69a1,1,0,0,1-1-1v-.76a1,1,0,0,1,1-1h14.81a1.06,1.06,0,0,1,1.06,1v.71a1.06,1.06,0,0,1-1.06,1.05Zm15.82,3.87a1,1,0,0,0-1-1.05H195.24a1,1,0,0,0-1,1v.75a1,1,0,0,0,.94,1.06H210a1.05,1.05,0,0,0,1.06-1.06Z" transform="translate(-0.01 0)"/></g><g id="_18" data-name=" 18"><path class="cls-4" d="M266.63,236.72H251.76v2.81h16.17a1.81,1.81,0,0,1,1.49.79,3,3,0,0,1,.62,1.85V251a2.9,2.9,0,0,1-.62,1.84,1.81,1.81,0,0,1-1.49.79H251.76v10.55a.66.66,0,0,1-.22.49.72.72,0,0,1-.48.22h-1.41a.74.74,0,0,1-.48-.22.66.66,0,0,1-.22-.49V253.59H234.12a2.42,2.42,0,0,1-2-1.05l-3.78-4.75a1.93,1.93,0,0,1,0-2.46l3.78-4.75a2.42,2.42,0,0,1,2-1.05H249v-2.81H232.76a1.85,1.85,0,0,1-1.49-.8,2.9,2.9,0,0,1-.62-1.84v-8.79a3,3,0,0,1,.62-1.85,1.81,1.81,0,0,1,1.49-.79h16.17v-2.11a.76.76,0,0,1,.7-.7H251a.76.76,0,0,1,.7.7v2.11h14.85a2.4,2.4,0,0,1,2,1.06l3.78,4.74a1.93,1.93,0,0,1,0,2.46l-3.78,4.75A2.43,2.43,0,0,1,266.63,236.72Zm.62,14.06v-8.44h-33l-3.42,4.22,3.42,4.22ZM233.5,225.46v8.44h33l3.42-4.22-3.42-4.22Z" transform="translate(-0.01 0)"/></g><path class="cls-4" d="M206.31,89.79A4.2,4.2,0,0,1,210.52,94v28.12a4.2,4.2,0,0,1-4.21,4.22h-22.5V132h14.06a1.41,1.41,0,1,1,0,2.82H166.93a1.41,1.41,0,1,1,0-2.82H181v-5.62h-22.5a4.2,4.2,0,0,1-4.22-4.22V94a4.2,4.2,0,0,1,4.22-4.22Zm1.4,32.34V94a1.41,1.41,0,0,0-.39-1,1.39,1.39,0,0,0-1-.39H158.49a1.39,1.39,0,0,0-1,.39,1.41,1.41,0,0,0-.39,1v28.12a1.37,1.37,0,0,0,.39,1,1.4,1.4,0,0,0,1,.4h47.82a1.4,1.4,0,0,0,1-.4A1.37,1.37,0,0,0,207.71,122.13Z" transform="translate(-0.01 0)"/></svg>